<?xml version="1.0" encoding="UTF-8"?>
<!DOCTYPE svg PUBLIC "-//W3C//DTD SVG 1.1//EN" "http://www.w3.org/Graphics/SVG/1.1/DTD/svg11.dtd">
<svg xmlns="http://www.w3.org/2000/svg" version="1.1" width="1500px" height="1500px" style="shape-rendering:geometricPrecision; text-rendering:geometricPrecision; image-rendering:optimizeQuality; fill-rule:evenodd; clip-rule:evenodd" xmlns:xlink="http://www.w3.org/1999/xlink">
<g><path style="opacity:0.987" fill="#000000" d="M 572.5,436.5 C 682.167,436.5 791.833,436.5 901.5,436.5C 892.299,527.181 882.965,617.848 873.5,708.5C 862.01,712.164 850.677,716.331 839.5,721C 919.499,721.5 999.499,721.667 1079.5,721.5C 1076.37,752.812 1073.37,784.145 1070.5,815.5C 1001.48,815.97 932.478,815.47 863.5,814C 812.504,807.669 783.337,779.169 776,728.5C 774.047,711.169 774.047,693.836 776,676.5C 783.799,601.511 791.132,526.511 798,451.5C 788.569,472.862 778.735,494.029 768.5,515C 667.501,515.5 566.501,515.667 465.5,515.5C 479.501,477.337 506.168,452.837 545.5,442C 554.596,439.948 563.596,438.115 572.5,436.5 Z"/></g>
<g><path style="opacity:0.985" fill="#000000" d="M 427.5,811.5 C 435.351,735.326 443.018,658.992 450.5,582.5C 555.833,582.5 661.167,582.5 766.5,582.5C 763.702,608.479 761.035,634.479 758.5,660.5C 664.835,659.503 571.169,659.336 477.5,660C 498.839,665.835 520.172,671.668 541.5,677.5C 541.833,679 542.167,680.5 542.5,682C 537.967,726.163 533.467,770.33 529,814.5C 528.333,815.167 527.667,815.833 527,816.5C 493.592,815.742 460.425,815.409 427.5,815.5C 427.5,814.167 427.5,812.833 427.5,811.5 Z"/></g>
<g><path style="opacity:0.004" fill="#000000" d="M 422.5,782.5 C 423.833,783.167 423.833,783.167 422.5,782.5 Z"/></g>
<g><path style="opacity:0.004" fill="#000000" d="M 417.5,793.5 C 418.833,794.167 418.833,794.167 417.5,793.5 Z"/></g>
<g><path style="opacity:0.004" fill="#000000" d="M 426.5,797.5 C 427.833,798.167 427.833,798.167 426.5,797.5 Z"/></g>
<g><path style="opacity:0.004" fill="#000000" d="M 416.5,804.5 C 417.833,805.167 417.833,805.167 416.5,804.5 Z"/></g>
<g><path style="opacity:0.004" fill="#000000" d="M 420.5,805.5 C 421.833,806.167 421.833,806.167 420.5,805.5 Z"/></g>
<g><path style="opacity:0.004" fill="#000000" d="M 418.5,806.5 C 419.833,807.167 419.833,807.167 418.5,806.5 Z"/></g>
<g><path style="opacity:0.004" fill="#000000" d="M 409.5,808.5 C 410.525,808.897 410.692,809.563 410,810.5C 409.536,809.906 409.369,809.239 409.5,808.5 Z"/></g>
<g><path style="opacity:0.004" fill="#000000" d="M 427.5,811.5 C 426.833,810.167 426.833,810.167 427.5,811.5 Z"/></g>
<g><path style="opacity:0.004" fill="#000000" d="M 409.5,813.5 C 410.833,814.167 410.833,814.167 409.5,813.5 Z"/></g>
<g><path style="opacity:0.004" fill="#000000" d="M 418.5,815.5 C 417.833,814.167 417.833,814.167 418.5,815.5 Z"/></g>
<g><path style="opacity:0.004" fill="#000000" d="M 425.5,814.5 C 426.833,815.167 426.833,815.167 425.5,814.5 Z"/></g>
<g><path style="opacity:0.004" fill="#000000" d="M 418.5,815.5 C 419.833,816.167 419.833,816.167 418.5,815.5 Z"/></g>
<g><path style="opacity:0.004" fill="#000000" d="M 405.5,816.5 C 406.833,817.167 406.833,817.167 405.5,816.5 Z"/></g>
<g><path style="opacity:0.004" fill="#000000" d="M 422.5,816.5 C 423.833,817.167 423.833,817.167 422.5,816.5 Z"/></g>
<g><path style="opacity:0.004" fill="#000000" d="M 426.5,817.5 C 425.833,816.167 425.833,816.167 426.5,817.5 Z"/></g>
<g><path style="opacity:0.004" fill="#000000" d="M 430.5,816.5 C 431.833,817.167 431.833,817.167 430.5,816.5 Z"/></g>
<g><path style="opacity:0.004" fill="#000000" d="M 487.5,816.5 C 488.833,817.167 488.833,817.167 487.5,816.5 Z"/></g>
<g><path style="opacity:0.004" fill="#000000" d="M 520.5,817.5 C 519.833,816.167 519.833,816.167 520.5,817.5 Z"/></g>
<g><path style="opacity:0.004" fill="#000000" d="M 426.5,817.5 C 427.833,818.167 427.833,818.167 426.5,817.5 Z"/></g>
<g><path style="opacity:0.004" fill="#000000" d="M 452.5,817.5 C 453.833,818.167 453.833,818.167 452.5,817.5 Z"/></g>
<g><path style="opacity:0.004" fill="#000000" d="M 520.5,817.5 C 521.833,818.167 521.833,818.167 520.5,817.5 Z"/></g>
<g><path style="opacity:0.004" fill="#000000" d="M 530.5,817.5 C 531.833,818.167 531.833,818.167 530.5,817.5 Z"/></g>
<g><path style="opacity:0.004" fill="#000000" d="M 423.5,819.5 C 423.897,818.475 424.563,818.308 425.5,819C 424.906,819.464 424.239,819.631 423.5,819.5 Z"/></g>
<g><path style="opacity:0.004" fill="#000000" d="M 507.5,818.5 C 508.833,819.167 508.833,819.167 507.5,818.5 Z"/></g>
<g><path style="opacity:0.004" fill="#000000" d="M 405.5,819.5 C 408.001,819.511 408.168,820.178 406,821.5C 405.536,820.906 405.369,820.239 405.5,819.5 Z"/></g>
<g><path style="opacity:0.004" fill="#000000" d="M 413.5,819.5 C 414.833,820.167 414.833,820.167 413.5,819.5 Z"/></g>
<g><path style="opacity:0.004" fill="#000000" d="M 427.5,820.5 C 426.833,819.167 426.833,819.167 427.5,820.5 Z"/></g>
<g><path style="opacity:0.004" fill="#000000" d="M 427.5,820.5 C 428.833,821.167 428.833,821.167 427.5,820.5 Z"/></g>
<g><path style="opacity:0.004" fill="#000000" d="M 410.5,821.5 C 411.833,822.167 411.833,822.167 410.5,821.5 Z"/></g>
<g><path style="opacity:0.004" fill="#000000" d="M 418.5,821.5 C 419.525,821.897 419.692,822.563 419,823.5C 418.536,822.906 418.369,822.239 418.5,821.5 Z"/></g>
<g><path style="opacity:0.004" fill="#000000" d="M 436.5,821.5 C 437.525,821.897 437.692,822.563 437,823.5C 436.536,822.906 436.369,822.239 436.5,821.5 Z"/></g>
<g><path style="opacity:0.004" fill="#000000" d="M 478.5,821.5 C 479.833,822.167 479.833,822.167 478.5,821.5 Z"/></g>
<g><path style="opacity:0.004" fill="#000000" d="M 403.5,822.5 C 404.833,823.167 404.833,823.167 403.5,822.5 Z"/></g>
<g><path style="opacity:0.004" fill="#000000" d="M 410.5,822.5 C 409.833,823.167 409.833,823.167 410.5,822.5 Z"/></g>
<g><path style="opacity:0.004" fill="#000000" d="M 414.5,822.5 C 415.833,823.167 415.833,823.167 414.5,822.5 Z"/></g>
<g><path style="opacity:0.004" fill="#000000" d="M 424.5,822.5 C 425.833,823.167 425.833,823.167 424.5,822.5 Z"/></g>
<g><path style="opacity:0.004" fill="#000000" d="M 559.5,822.5 C 560.833,823.167 560.833,823.167 559.5,822.5 Z"/></g>
<g><path style="opacity:0.004" fill="#585958" d="M 401.5,823.5 C 402.833,824.167 402.833,824.167 401.5,823.5 Z"/></g>
<g><path style="opacity:0.004" fill="#000000" d="M 407.5,823.5 C 408.833,824.167 408.833,824.167 407.5,823.5 Z"/></g>
<g><path style="opacity:0.004" fill="#000000" d="M 411.5,823.5 C 412.833,824.167 412.833,824.167 411.5,823.5 Z"/></g>
<g><path style="opacity:0.004" fill="#000000" d="M 444.5,823.5 C 445.833,824.167 445.833,824.167 444.5,823.5 Z"/></g>
<g><path style="opacity:0.004" fill="#000000" d="M 456.5,823.5 C 457.833,824.167 457.833,824.167 456.5,823.5 Z"/></g>
<g><path style="opacity:0.004" fill="#000000" d="M 469.5,823.5 C 470.833,824.167 470.833,824.167 469.5,823.5 Z"/></g>
<g><path style="opacity:0.004" fill="#000000" d="M 424.5,824.5 C 425.833,825.167 425.833,825.167 424.5,824.5 Z"/></g>
<g><path style="opacity:0.004" fill="#000000" d="M 402.5,825.5 C 403.525,825.897 403.692,826.563 403,827.5C 402.536,826.906 402.369,826.239 402.5,825.5 Z"/></g>
<g><path style="opacity:0.004" fill="#000000" d="M 463.5,825.5 C 464.833,826.167 464.833,826.167 463.5,825.5 Z"/></g>
<g><path style="opacity:0.004" fill="#000000" d="M 474.5,825.5 C 475.833,826.167 475.833,826.167 474.5,825.5 Z"/></g>
<g><path style="opacity:0.004" fill="#000000" d="M 415.5,826.5 C 416.833,827.167 416.833,827.167 415.5,826.5 Z"/></g>
<g><path style="opacity:0.004" fill="#000000" d="M 418.5,826.5 C 419.833,827.167 419.833,827.167 418.5,826.5 Z"/></g>
<g><path style="opacity:0.004" fill="#000000" d="M 426.5,826.5 C 427.833,827.167 427.833,827.167 426.5,826.5 Z"/></g>
<g><path style="opacity:0.004" fill="#000000" d="M 431.5,826.5 C 432.833,827.167 432.833,827.167 431.5,826.5 Z"/></g>
<g><path style="opacity:0.004" fill="#000000" d="M 554.5,826.5 C 555.833,827.167 555.833,827.167 554.5,826.5 Z"/></g>
<g><path style="opacity:0.004" fill="#000000" d="M 577.5,826.5 C 578.833,827.167 578.833,827.167 577.5,826.5 Z"/></g>
<g><path style="opacity:0.004" fill="#000000" d="M 413.5,827.5 C 414.833,828.167 414.833,828.167 413.5,827.5 Z"/></g>
<g><path style="opacity:0.004" fill="#000000" d="M 466.5,827.5 C 467.833,828.167 467.833,828.167 466.5,827.5 Z"/></g>
<g><path style="opacity:0.004" fill="#000000" d="M 400.5,828.5 C 401.833,829.167 401.833,829.167 400.5,828.5 Z"/></g>
<g><path style="opacity:0.004" fill="#000000" d="M 404.5,829.5 C 403.833,828.167 403.833,828.167 404.5,829.5 Z"/></g>
<g><path style="opacity:0.004" fill="#000000" d="M 405.5,828.5 C 406.833,829.167 406.833,829.167 405.5,828.5 Z"/></g>
<g><path style="opacity:0.004" fill="#000000" d="M 409.5,828.5 C 410.833,829.167 410.833,829.167 409.5,828.5 Z"/></g>
<g><path style="opacity:0.004" fill="#000000" d="M 416.5,828.5 C 417.833,829.167 417.833,829.167 416.5,828.5 Z"/></g>
<g><path style="opacity:0.004" fill="#000000" d="M 670.5,828.5 C 671.833,829.167 671.833,829.167 670.5,828.5 Z"/></g>
<g><path style="opacity:0.004" fill="#000000" d="M 404.5,829.5 C 404.833,829.5 405.167,829.5 405.5,829.5C 405.5,830.5 405.5,831.5 405.5,832.5C 404.596,831.791 404.263,830.791 404.5,829.5 Z"/></g>
<g><path style="opacity:0.004" fill="#000000" d="M 420.5,829.5 C 421.525,829.897 421.692,830.563 421,831.5C 420.536,830.906 420.369,830.239 420.5,829.5 Z"/></g>
<g><path style="opacity:0.004" fill="#000000" d="M 462.5,829.5 C 463.833,830.167 463.833,830.167 462.5,829.5 Z"/></g>
<g><path style="opacity:0.004" fill="#000000" d="M 401.5,830.5 C 402.833,831.167 402.833,831.167 401.5,830.5 Z"/></g>
<g><path style="opacity:0.004" fill="#000000" d="M 407.5,831.5 C 407.897,830.475 408.563,830.308 409.5,831C 408.906,831.464 408.239,831.631 407.5,831.5 Z"/></g>
<g><path style="opacity:0.004" fill="#000000" d="M 410.5,830.5 C 411.833,831.167 411.833,831.167 410.5,830.5 Z"/></g>
<g><path style="opacity:0.004" fill="#000000" d="M 415.5,830.5 C 416.833,831.167 416.833,831.167 415.5,830.5 Z"/></g>
<g><path style="opacity:0.004" fill="#000000" d="M 424.5,830.5 C 425.833,831.167 425.833,831.167 424.5,830.5 Z"/></g>
<g><path style="opacity:0.004" fill="#000000" d="M 448.5,830.5 C 449.833,831.167 449.833,831.167 448.5,830.5 Z"/></g>
<g><path style="opacity:0.004" fill="#000000" d="M 464.5,830.5 C 465.833,831.167 465.833,831.167 464.5,830.5 Z"/></g>
<g><path style="opacity:0.004" fill="#000000" d="M 577.5,830.5 C 578.833,831.167 578.833,831.167 577.5,830.5 Z"/></g>
<g><path style="opacity:0.004" fill="#000000" d="M 401.5,831.5 C 401.5,831.833 401.5,832.167 401.5,832.5C 400.83,832.019 400.83,831.685 401.5,831.5 Z"/></g>
<g><path style="opacity:0.004" fill="#000000" d="M 412.5,831.5 C 413.833,832.167 413.833,832.167 412.5,831.5 Z"/></g>
<g><path style="opacity:0.004" fill="#000000" d="M 415.5,831.5 C 414.833,832.167 414.833,832.167 415.5,831.5 Z"/></g>
<g><path style="opacity:0.004" fill="#000000" d="M 479.5,832.5 C 478.833,831.167 478.833,831.167 479.5,832.5 Z"/></g>
<g><path style="opacity:0.004" fill="#000000" d="M 401.5,832.5 C 402.833,833.167 402.833,833.167 401.5,832.5 Z"/></g>
<g><path style="opacity:0.004" fill="#000000" d="M 405.5,833.5 C 405.5,833.167 405.5,832.833 405.5,832.5C 408.167,832.833 408.167,833.167 405.5,833.5 Z"/></g>
<g><path style="opacity:0.004" fill="#000000" d="M 424.5,832.5 C 425.833,833.167 425.833,833.167 424.5,832.5 Z"/></g>
<g><path style="opacity:0.004" fill="#000000" d="M 428.5,833.5 C 428.897,832.475 429.563,832.308 430.5,833C 429.906,833.464 429.239,833.631 428.5,833.5 Z"/></g>
<g><path style="opacity:0.004" fill="#000000" d="M 437.5,832.5 C 438.833,833.167 438.833,833.167 437.5,832.5 Z"/></g>
<g><path style="opacity:0.004" fill="#000000" d="M 479.5,832.5 C 480.833,833.167 480.833,833.167 479.5,832.5 Z"/></g>
<g><path style="opacity:0.004" fill="#000000" d="M 529.5,832.5 C 530.833,833.167 530.833,833.167 529.5,832.5 Z"/></g>
<g><path style="opacity:0.004" fill="#030303" d="M 397.5,832.5 C 401.268,834.132 401.435,835.132 398,835.5C 397.517,834.552 397.351,833.552 397.5,832.5 Z"/></g>
<g><path style="opacity:0.004" fill="#000000" d="M 405.5,833.5 C 404.833,834.167 404.833,834.167 405.5,833.5 Z"/></g>
<g><path style="opacity:0.004" fill="#000000" d="M 409.5,833.5 C 410.525,833.897 410.692,834.563 410,835.5C 409.536,834.906 409.369,834.239 409.5,833.5 Z"/></g>
<g><path style="opacity:0.004" fill="#000000" d="M 442.5,833.5 C 443.833,834.167 443.833,834.167 442.5,833.5 Z"/></g>
<g><path style="opacity:0.004" fill="#000000" d="M 447.5,834.5 C 446.833,833.167 446.833,833.167 447.5,834.5 Z"/></g>
<g><path style="opacity:0.004" fill="#000000" d="M 457.5,833.5 C 458.833,834.167 458.833,834.167 457.5,833.5 Z"/></g>
<g><path style="opacity:0.004" fill="#000000" d="M 465.5,834.5 C 465.897,833.475 466.563,833.308 467.5,834C 466.906,834.464 466.239,834.631 465.5,834.5 Z"/></g>
<g><path style="opacity:0.004" fill="#000000" d="M 490.5,833.5 C 491.833,834.167 491.833,834.167 490.5,833.5 Z"/></g>
<g><path style="opacity:0.004" fill="#000000" d="M 504.5,833.5 C 505.833,834.167 505.833,834.167 504.5,833.5 Z"/></g>
<g><path style="opacity:0.004" fill="#000000" d="M 415.5,834.5 C 416.833,835.167 416.833,835.167 415.5,834.5 Z"/></g>
<g><path style="opacity:0.004" fill="#000000" d="M 421.5,834.5 C 422.833,835.167 422.833,835.167 421.5,834.5 Z"/></g>
<g><path style="opacity:0.004" fill="#000000" d="M 428.5,834.5 C 429.833,835.167 429.833,835.167 428.5,834.5 Z"/></g>
<g><path style="opacity:0.004" fill="#000000" d="M 434.5,834.5 C 435.833,835.167 435.833,835.167 434.5,834.5 Z"/></g>
<g><path style="opacity:0.004" fill="#000000" d="M 442.5,834.5 C 441.833,835.167 441.833,835.167 442.5,834.5 Z"/></g>
<g><path style="opacity:0.004" fill="#000000" d="M 447.5,834.5 C 448.833,835.167 448.833,835.167 447.5,834.5 Z"/></g>
<g><path style="opacity:0.004" fill="#000000" d="M 490.5,834.5 C 489.833,835.167 489.833,835.167 490.5,834.5 Z"/></g>
<g><path style="opacity:0.004" fill="#000000" d="M 530.5,834.5 C 531.833,835.167 531.833,835.167 530.5,834.5 Z"/></g>
<g><path style="opacity:0.004" fill="#000000" d="M 537.5,834.5 C 538.833,835.167 538.833,835.167 537.5,834.5 Z"/></g>
<g><path style="opacity:0.004" fill="#000000" d="M 585.5,834.5 C 586.833,835.167 586.833,835.167 585.5,834.5 Z"/></g>
<g><path style="opacity:0.004" fill="#000000" d="M 405.5,835.5 C 406.833,836.167 406.833,836.167 405.5,835.5 Z"/></g>
<g><path style="opacity:0.004" fill="#000000" d="M 424.5,836.5 C 424.897,835.475 425.563,835.308 426.5,836C 425.906,836.464 425.239,836.631 424.5,836.5 Z"/></g>
<g><path style="opacity:0.004" fill="#000000" d="M 434.5,835.5 C 433.833,836.167 433.833,836.167 434.5,835.5 Z"/></g>
<g><path style="opacity:0.004" fill="#000000" d="M 451.5,835.5 C 452.833,836.167 452.833,836.167 451.5,835.5 Z"/></g>
<g><path style="opacity:0.004" fill="#000000" d="M 459.5,835.5 C 460.833,836.167 460.833,836.167 459.5,835.5 Z"/></g>
<g><path style="opacity:0.004" fill="#000000" d="M 467.5,835.5 C 468.833,836.167 468.833,836.167 467.5,835.5 Z"/></g>
<g><path style="opacity:0.004" fill="#1c1d1c" d="M 395.5,836.5 C 396.833,837.167 396.833,837.167 395.5,836.5 Z"/></g>
<g><path style="opacity:0.004" fill="#000000" d="M 398.5,836.5 C 399.525,836.897 399.692,837.563 399,838.5C 398.536,837.906 398.369,837.239 398.5,836.5 Z"/></g>
<g><path style="opacity:0.004" fill="#000000" d="M 412.5,836.5 C 413.833,837.167 413.833,837.167 412.5,836.5 Z"/></g>
<g><path style="opacity:0.004" fill="#000000" d="M 418.5,836.5 C 419.833,837.167 419.833,837.167 418.5,836.5 Z"/></g>
<g><path style="opacity:0.004" fill="#000000" d="M 422.5,837.5 C 421.833,836.167 421.833,836.167 422.5,837.5 Z"/></g>
<g><path style="opacity:0.004" fill="#000000" d="M 431.5,836.5 C 432.833,837.167 432.833,837.167 431.5,836.5 Z"/></g>
<g><path style="opacity:0.004" fill="#000000" d="M 437.5,836.5 C 438.833,837.167 438.833,837.167 437.5,836.5 Z"/></g>
<g><path style="opacity:0.004" fill="#000000" d="M 487.5,836.5 C 488.833,837.167 488.833,837.167 487.5,836.5 Z"/></g>
<g><path style="opacity:0.004" fill="#000000" d="M 408.5,837.5 C 409.833,838.167 409.833,838.167 408.5,837.5 Z"/></g>
<g><path style="opacity:0.004" fill="#000000" d="M 415.5,837.5 C 416.833,838.167 416.833,838.167 415.5,837.5 Z"/></g>
<g><path style="opacity:0.004" fill="#000000" d="M 422.5,837.5 C 423.833,838.167 423.833,838.167 422.5,837.5 Z"/></g>
<g><path style="opacity:0.004" fill="#000000" d="M 444.5,837.5 C 445.833,838.167 445.833,838.167 444.5,837.5 Z"/></g>
<g><path style="opacity:0.004" fill="#000000" d="M 701.5,837.5 C 702.833,838.167 702.833,838.167 701.5,837.5 Z"/></g>
<g><path style="opacity:0.004" fill="#000000" d="M 395.5,838.5 C 396.833,839.167 396.833,839.167 395.5,838.5 Z"/></g>
<g><path style="opacity:0.004" fill="#000000" d="M 415.5,838.5 C 414.833,839.167 414.833,839.167 415.5,838.5 Z"/></g>
<g><path style="opacity:0.004" fill="#000000" d="M 418.5,839.5 C 417.833,838.167 417.833,838.167 418.5,839.5 Z"/></g>
<g><path style="opacity:0.004" fill="#000000" d="M 436.5,839.5 C 435.833,838.167 435.833,838.167 436.5,839.5 Z"/></g>
<g><path style="opacity:0.004" fill="#000000" d="M 440.5,838.5 C 441.833,839.167 441.833,839.167 440.5,838.5 Z"/></g>
<g><path style="opacity:0.004" fill="#000000" d="M 469.5,838.5 C 470.833,839.167 470.833,839.167 469.5,838.5 Z"/></g>
<g><path style="opacity:0.004" fill="#000000" d="M 472.5,838.5 C 473.833,839.167 473.833,839.167 472.5,838.5 Z"/></g>
<g><path style="opacity:0.005" fill="#000000" d="M 397.5,841.5 C 397.783,840.711 398.283,840.044 399,839.5C 399.528,840.816 399.028,841.483 397.5,841.5 Z"/></g>
<g><path style="opacity:0.004" fill="#000000" d="M 401.5,839.5 C 402.833,840.167 402.833,840.167 401.5,839.5 Z"/></g>
<g><path style="opacity:0.004" fill="#000000" d="M 406.5,839.5 C 407.833,840.167 407.833,840.167 406.5,839.5 Z"/></g>
<g><path style="opacity:0.004" fill="#000000" d="M 418.5,839.5 C 419.167,839.5 419.5,839.833 419.5,840.5C 419.167,840.167 418.833,839.833 418.5,839.5 Z"/></g>
<g><path style="opacity:0.004" fill="#000000" d="M 422.5,839.5 C 423.833,840.167 423.833,840.167 422.5,839.5 Z"/></g>
<g><path style="opacity:0.004" fill="#000000" d="M 435.5,839.5 C 435.103,840.525 434.437,840.692 433.5,840C 434.094,839.536 434.761,839.369 435.5,839.5 Z"/></g>
<g><path style="opacity:0.004" fill="#000000" d="M 436.5,839.5 C 437.833,840.167 437.833,840.167 436.5,839.5 Z"/></g>
<g><path style="opacity:0.004" fill="#000000" d="M 472.5,839.5 C 471.833,840.167 471.833,840.167 472.5,839.5 Z"/></g>
<g><path style="opacity:0.004" fill="#000000" d="M 496.5,839.5 C 497.833,840.167 497.833,840.167 496.5,839.5 Z"/></g>
<g><path style="opacity:0.004" fill="#000000" d="M 541.5,839.5 C 542.833,840.167 542.833,840.167 541.5,839.5 Z"/></g>
<g><path style="opacity:0.004" fill="#000000" d="M 661.5,839.5 C 662.833,840.167 662.833,840.167 661.5,839.5 Z"/></g>
<g><path style="opacity:0.004" fill="#000000" d="M 409.5,840.5 C 410.289,840.783 410.956,841.283 411.5,842C 410.184,842.528 409.517,842.028 409.5,840.5 Z"/></g>
<g><path style="opacity:0.004" fill="#000000" d="M 416.5,840.5 C 417.833,841.167 417.833,841.167 416.5,840.5 Z"/></g>
<g><path style="opacity:0.004" fill="#000000" d="M 419.5,840.5 C 420.833,841.167 420.833,841.167 419.5,840.5 Z"/></g>
<g><path style="opacity:0.004" fill="#000000" d="M 425.5,841.5 C 425.897,840.475 426.563,840.308 427.5,841C 426.906,841.464 426.239,841.631 425.5,841.5 Z"/></g>
<g><path style="opacity:0.004" fill="#000000" d="M 440.5,841.5 C 440.897,840.475 441.563,840.308 442.5,841C 441.906,841.464 441.239,841.631 440.5,841.5 Z"/></g>
<g><path style="opacity:0.004" fill="#000000" d="M 509.5,840.5 C 510.833,841.167 510.833,841.167 509.5,840.5 Z"/></g>
<g><path style="opacity:0.004" fill="#1a1a1a" d="M 394.5,842.5 C 393.427,841.749 393.26,840.749 394,839.5C 394.483,840.448 394.649,841.448 394.5,842.5 Z"/></g>
<g><path style="opacity:0.004" fill="#000000" d="M 395.5,842.5 C 395.842,841.662 396.508,841.328 397.5,841.5C 397.158,842.338 396.492,842.672 395.5,842.5 Z"/></g>
<g><path style="opacity:0.004" fill="#000000" d="M 407.5,841.5 C 408.833,842.167 408.833,842.167 407.5,841.5 Z"/></g>
<g><path style="opacity:0.004" fill="#000000" d="M 416.5,841.5 C 415.833,842.167 415.833,842.167 416.5,841.5 Z"/></g>
<g><path style="opacity:0.004" fill="#000000" d="M 425.5,841.5 C 424.833,842.167 424.833,842.167 425.5,841.5 Z"/></g>
<g><path style="opacity:0.004" fill="#000000" d="M 428.5,841.5 C 429.833,842.167 429.833,842.167 428.5,841.5 Z"/></g>
<g><path style="opacity:0.004" fill="#000000" d="M 448.5,841.5 C 449.833,842.167 449.833,842.167 448.5,841.5 Z"/></g>
<g><path style="opacity:0.004" fill="#000000" d="M 455.5,841.5 C 456.833,842.167 456.833,842.167 455.5,841.5 Z"/></g>
<g><path style="opacity:0.004" fill="#000000" d="M 394.5,842.5 C 394.833,842.5 395.167,842.5 395.5,842.5C 395.5,843.167 395.5,843.833 395.5,844.5C 392.075,844.633 391.742,843.967 394.5,842.5 Z"/></g>
<g><path style="opacity:0.004" fill="#000000" d="M 438.5,842.5 C 439.833,843.167 439.833,843.167 438.5,842.5 Z"/></g>
<g><path style="opacity:0.004" fill="#000000" d="M 444.5,842.5 C 445.833,843.167 445.833,843.167 444.5,842.5 Z"/></g>
<g><path style="opacity:0.004" fill="#000000" d="M 448.5,842.5 C 447.833,843.167 447.833,843.167 448.5,842.5 Z"/></g>
<g><path style="opacity:0.004" fill="#000000" d="M 453.5,842.5 C 454.833,843.167 454.833,843.167 453.5,842.5 Z"/></g>
<g><path style="opacity:0.004" fill="#000000" d="M 462.5,842.5 C 463.833,843.167 463.833,843.167 462.5,842.5 Z"/></g>
<g><path style="opacity:0.004" fill="#000000" d="M 478.5,842.5 C 479.833,843.167 479.833,843.167 478.5,842.5 Z"/></g>
<g><path style="opacity:0.004" fill="#000000" d="M 493.5,842.5 C 494.833,843.167 494.833,843.167 493.5,842.5 Z"/></g>
<g><path style="opacity:0.004" fill="#000000" d="M 499.5,842.5 C 500.833,843.167 500.833,843.167 499.5,842.5 Z"/></g>
<g><path style="opacity:0.004" fill="#000000" d="M 509.5,842.5 C 510.833,843.167 510.833,843.167 509.5,842.5 Z"/></g>
<g><path style="opacity:0.004" fill="#000000" d="M 545.5,842.5 C 546.833,843.167 546.833,843.167 545.5,842.5 Z"/></g>
<g><path style="opacity:0.004" fill="#000000" d="M 1093.5,842.5 C 1094.83,843.167 1094.83,843.167 1093.5,842.5 Z"/></g>
<g><path style="opacity:0.004" fill="#000000" d="M 398.5,844.5 C 397.833,843.167 397.833,843.167 398.5,844.5 Z"/></g>
<g><path style="opacity:0.004" fill="#000000" d="M 411.5,843.5 C 412.833,844.167 412.833,844.167 411.5,843.5 Z"/></g>
<g><path style="opacity:0.004" fill="#000000" d="M 483.5,843.5 C 484.833,844.167 484.833,844.167 483.5,843.5 Z"/></g>
<g><path style="opacity:0.004" fill="#000000" d="M 604.5,843.5 C 605.833,844.167 605.833,844.167 604.5,843.5 Z"/></g>
<g><path style="opacity:0.004" fill="#000000" d="M 641.5,843.5 C 642.833,844.167 642.833,844.167 641.5,843.5 Z"/></g>
<g><path style="opacity:0.004" fill="#000000" d="M 692.5,843.5 C 693.833,844.167 693.833,844.167 692.5,843.5 Z"/></g>
<g><path style="opacity:0.004" fill="#000000" d="M 395.5,844.5 C 396.167,844.5 396.833,844.5 397.5,844.5C 396.452,846.933 395.786,846.933 395.5,844.5 Z"/></g>
<g><path style="opacity:0.004" fill="#000000" d="M 398.5,844.5 C 399.239,844.369 399.906,844.536 400.5,845C 399.563,845.692 398.897,845.525 398.5,844.5 Z"/></g>
<g><path style="opacity:0.004" fill="#000000" d="M 406.5,844.5 C 407.833,845.167 407.833,845.167 406.5,844.5 Z"/></g>
<g><path style="opacity:0.004" fill="#000000" d="M 413.5,844.5 C 414.833,845.167 414.833,845.167 413.5,844.5 Z"/></g>
<g><path style="opacity:0.004" fill="#000000" d="M 431.5,844.5 C 432.833,845.167 432.833,845.167 431.5,844.5 Z"/></g>
<g><path style="opacity:0.004" fill="#000000" d="M 436.5,844.5 C 437.833,845.167 437.833,845.167 436.5,844.5 Z"/></g>
<g><path style="opacity:0.004" fill="#000000" d="M 438.5,844.5 C 441.001,844.511 441.168,845.178 439,846.5C 438.536,845.906 438.369,845.239 438.5,844.5 Z"/></g>
<g><path style="opacity:0.004" fill="#000000" d="M 448.5,844.5 C 449.833,845.167 449.833,845.167 448.5,844.5 Z"/></g>
<g><path style="opacity:0.004" fill="#000000" d="M 468.5,844.5 C 469.833,845.167 469.833,845.167 468.5,844.5 Z"/></g>
<g><path style="opacity:0.004" fill="#000000" d="M 481.5,844.5 C 482.833,845.167 482.833,845.167 481.5,844.5 Z"/></g>
<g><path style="opacity:0.004" fill="#000000" d="M 503.5,844.5 C 504.833,845.167 504.833,845.167 503.5,844.5 Z"/></g>
<g><path style="opacity:0.004" fill="#000000" d="M 539.5,844.5 C 540.833,845.167 540.833,845.167 539.5,844.5 Z"/></g>
<g><path style="opacity:0.004" fill="#000000" d="M 560.5,844.5 C 561.833,845.167 561.833,845.167 560.5,844.5 Z"/></g>
<g><path style="opacity:0.004" fill="#000000" d="M 722.5,844.5 C 723.833,845.167 723.833,845.167 722.5,844.5 Z"/></g>
<g><path style="opacity:0.004" fill="#000000" d="M 392.5,847.5 C 391.227,846.923 391.227,846.257 392.5,845.5C 393.463,845.97 393.463,846.637 392.5,847.5 Z"/></g>
<g><path style="opacity:0.004" fill="#000000" d="M 401.5,845.5 C 402.525,845.897 402.692,846.563 402,847.5C 401.536,846.906 401.369,846.239 401.5,845.5 Z"/></g>
<g><path style="opacity:0.004" fill="#000000" d="M 404.5,847.5 C 403.475,847.103 403.308,846.437 404,845.5C 404.464,846.094 404.631,846.761 404.5,847.5 Z"/></g>
<g><path style="opacity:0.004" fill="#000000" d="M 416.5,846.5 C 415.833,845.167 415.833,845.167 416.5,846.5 Z"/></g>
<g><path style="opacity:0.004" fill="#000000" d="M 417.5,845.5 C 418.833,846.167 418.833,846.167 417.5,845.5 Z"/></g>
<g><path style="opacity:0.004" fill="#000000" d="M 420.5,846.5 C 421.167,845.167 421.833,845.167 422.5,846.5C 421.833,846.5 421.167,846.5 420.5,846.5 Z"/></g>
<g><path style="opacity:0.004" fill="#000000" d="M 425.5,845.5 C 426.573,846.251 426.74,847.251 426,848.5C 425.517,847.552 425.351,846.552 425.5,845.5 Z"/></g>
<g><path style="opacity:0.004" fill="#000000" d="M 436.5,845.5 C 435.833,846.167 435.833,846.167 436.5,845.5 Z"/></g>
<g><path style="opacity:0.004" fill="#000000" d="M 464.5,845.5 C 465.833,846.167 465.833,846.167 464.5,845.5 Z"/></g>
<g><path style="opacity:0.004" fill="#000000" d="M 466.5,845.5 C 467.525,845.897 467.692,846.563 467,847.5C 466.536,846.906 466.369,846.239 466.5,845.5 Z"/></g>
<g><path style="opacity:0.004" fill="#000000" d="M 490.5,845.5 C 491.833,846.167 491.833,846.167 490.5,845.5 Z"/></g>
<g><path style="opacity:0.004" fill="#000000" d="M 405.5,846.5 C 406.833,847.167 406.833,847.167 405.5,846.5 Z"/></g>
<g><path style="opacity:0.004" fill="#000000" d="M 408.5,847.5 C 408.897,846.475 409.563,846.308 410.5,847C 409.906,847.464 409.239,847.631 408.5,847.5 Z"/></g>
<g><path style="opacity:0.004" fill="#000000" d="M 413.5,846.5 C 414.833,847.167 414.833,847.167 413.5,846.5 Z"/></g>
<g><path style="opacity:0.004" fill="#000000" d="M 416.5,846.5 C 416.833,846.5 417.167,846.5 417.5,846.5C 417.315,847.17 416.981,847.17 416.5,846.5 Z"/></g>
<g><path style="opacity:0.004" fill="#000000" d="M 420.5,846.5 C 419.833,847.167 419.833,847.167 420.5,846.5 Z"/></g>
<g><path style="opacity:0.004" fill="#000000" d="M 422.5,846.5 C 423.833,847.167 423.833,847.167 422.5,846.5 Z"/></g>
<g><path style="opacity:0.004" fill="#000000" d="M 427.5,846.5 C 430.001,846.511 430.168,847.178 428,848.5C 427.536,847.906 427.369,847.239 427.5,846.5 Z"/></g>
<g><path style="opacity:0.004" fill="#000000" d="M 430.5,846.5 C 431.833,847.167 431.833,847.167 430.5,846.5 Z"/></g>
<g><path style="opacity:0.004" fill="#000000" d="M 452.5,846.5 C 453.833,847.167 453.833,847.167 452.5,846.5 Z"/></g>
<g><path style="opacity:0.004" fill="#000000" d="M 502.5,846.5 C 503.833,847.167 503.833,847.167 502.5,846.5 Z"/></g>
<g><path style="opacity:0.004" fill="#000000" d="M 536.5,846.5 C 537.833,847.167 537.833,847.167 536.5,846.5 Z"/></g>
<g><path style="opacity:0.004" fill="#000000" d="M 607.5,846.5 C 608.833,847.167 608.833,847.167 607.5,846.5 Z"/></g>
<g><path style="opacity:0.004" fill="#000000" d="M 392.5,847.5 C 393.833,848.167 393.833,848.167 392.5,847.5 Z"/></g>
<g><path style="opacity:0.004" fill="#000000" d="M 396.5,847.5 C 397.525,847.897 397.692,848.563 397,849.5C 396.536,848.906 396.369,848.239 396.5,847.5 Z"/></g>
<g><path style="opacity:0.004" fill="#000000" d="M 404.5,847.5 C 404.833,847.5 405.167,847.5 405.5,847.5C 405.315,848.17 404.981,848.17 404.5,847.5 Z"/></g>
<g><path style="opacity:0.004" fill="#000000" d="M 438.5,848.5 C 438.897,847.475 439.563,847.308 440.5,848C 439.906,848.464 439.239,848.631 438.5,848.5 Z"/></g>
<g><path style="opacity:0.004" fill="#000000" d="M 442.5,847.5 C 443.833,848.167 443.833,848.167 442.5,847.5 Z"/></g>
<g><path style="opacity:0.004" fill="#000000" d="M 451.5,848.5 C 450.833,847.167 450.833,847.167 451.5,848.5 Z"/></g>
<g><path style="opacity:0.004" fill="#000000" d="M 457.5,847.5 C 458.833,848.167 458.833,848.167 457.5,847.5 Z"/></g>
<g><path style="opacity:0.004" fill="#000000" d="M 510.5,847.5 C 511.833,848.167 511.833,848.167 510.5,847.5 Z"/></g>
<g><path style="opacity:0.004" fill="#000000" d="M 595.5,848.5 C 595.897,847.475 596.563,847.308 597.5,848C 596.906,848.464 596.239,848.631 595.5,848.5 Z"/></g>
<g><path style="opacity:0.004" fill="#000000" d="M 400.5,851.5 C 399.224,850.614 399.224,849.614 400.5,848.5C 401.087,849.233 401.087,850.233 400.5,851.5 Z"/></g>
<g><path style="opacity:0.004" fill="#000000" d="M 406.5,848.5 C 407.833,849.167 407.833,849.167 406.5,848.5 Z"/></g>
<g><path style="opacity:0.004" fill="#000000" d="M 408.5,848.5 C 409.833,849.167 409.833,849.167 408.5,848.5 Z"/></g>
<g><path style="opacity:0.004" fill="#000000" d="M 420.5,848.5 C 421.833,849.167 421.833,849.167 420.5,848.5 Z"/></g>
<g><path style="opacity:0.004" fill="#000000" d="M 434.5,848.5 C 435.833,849.167 435.833,849.167 434.5,848.5 Z"/></g>
<g><path style="opacity:0.004" fill="#000000" d="M 451.5,848.5 C 452.492,848.328 453.158,848.662 453.5,849.5C 452.508,849.672 451.842,849.338 451.5,848.5 Z"/></g>
<g><path style="opacity:0.004" fill="#000000" d="M 467.5,848.5 C 468.833,849.167 468.833,849.167 467.5,848.5 Z"/></g>
<g><path style="opacity:0.004" fill="#000000" d="M 473.5,848.5 C 474.833,849.167 474.833,849.167 473.5,848.5 Z"/></g>
<g><path style="opacity:0.004" fill="#000000" d="M 480.5,848.5 C 481.833,849.167 481.833,849.167 480.5,848.5 Z"/></g>
<g><path style="opacity:0.004" fill="#000000" d="M 490.5,848.5 C 491.833,849.167 491.833,849.167 490.5,848.5 Z"/></g>
<g><path style="opacity:0.004" fill="#000000" d="M 710.5,848.5 C 711.833,849.167 711.833,849.167 710.5,848.5 Z"/></g>
<g><path style="opacity:0.004" fill="#000000" d="M 1084.5,848.5 C 1085.83,849.167 1085.83,849.167 1084.5,848.5 Z"/></g>
<g><path style="opacity:0.004" fill="#000000" d="M 390.5,849.5 C 392.681,849.284 394.347,850.117 395.5,852C 393.63,853.564 391.63,853.564 389.5,852C 390.252,851.329 390.586,850.496 390.5,849.5 Z"/></g>
<g><path style="opacity:0.004" fill="#000000" d="M 403.5,850.5 C 402.833,849.167 402.833,849.167 403.5,850.5 Z"/></g>
<g><path style="opacity:0.004" fill="#000000" d="M 412.5,851.5 C 411.5,851.5 410.5,851.5 409.5,851.5C 410.5,848.833 411.5,848.833 412.5,851.5 Z"/></g>
<g><path style="opacity:0.004" fill="#000000" d="M 413.5,850.5 C 414.251,849.427 415.251,849.26 416.5,850C 415.552,850.483 414.552,850.649 413.5,850.5 Z"/></g>
<g><path style="opacity:0.004" fill="#000000" d="M 424.5,849.5 C 425.833,850.167 425.833,850.167 424.5,849.5 Z"/></g>
<g><path style="opacity:0.004" fill="#000000" d="M 427.5,849.5 C 428.833,850.167 428.833,850.167 427.5,849.5 Z"/></g>
<g><path style="opacity:0.004" fill="#000000" d="M 442.5,849.5 C 443.833,850.167 443.833,850.167 442.5,849.5 Z"/></g>
<g><path style="opacity:0.004" fill="#000000" d="M 453.5,849.5 C 454.833,850.167 454.833,850.167 453.5,849.5 Z"/></g>
<g><path style="opacity:0.004" fill="#000000" d="M 520.5,849.5 C 521.833,850.167 521.833,850.167 520.5,849.5 Z"/></g>
<g><path style="opacity:0.004" fill="#000000" d="M 585.5,849.5 C 586.833,850.167 586.833,850.167 585.5,849.5 Z"/></g>
<g><path style="opacity:0.004" fill="#000000" d="M 891.5,849.5 C 892.833,850.167 892.833,850.167 891.5,849.5 Z"/></g>
<g><path style="opacity:0.004" fill="#000000" d="M 916.5,849.5 C 917.833,850.167 917.833,850.167 916.5,849.5 Z"/></g>
<g><path style="opacity:0.004" fill="#000000" d="M 397.5,851.5 C 396.833,850.167 396.833,850.167 397.5,851.5 Z"/></g>
<g><path style="opacity:0.004" fill="#000000" d="M 402.5,850.5 C 401.833,851.167 401.833,851.167 402.5,850.5 Z"/></g>
<g><path style="opacity:0.004" fill="#000000" d="M 403.5,850.5 C 404.833,851.167 404.833,851.167 403.5,850.5 Z"/></g>
<g><path style="opacity:0.004" fill="#000000" d="M 405.5,850.5 C 406.833,851.167 406.833,851.167 405.5,850.5 Z"/></g>
<g><path style="opacity:0.004" fill="#000000" d="M 408.5,851.5 C 407.833,850.167 407.833,850.167 408.5,851.5 Z"/></g>
<g><path style="opacity:0.004" fill="#000000" d="M 421.5,850.5 C 422.833,851.167 422.833,851.167 421.5,850.5 Z"/></g>
<g><path style="opacity:0.004" fill="#000000" d="M 432.5,850.5 C 433.833,851.167 433.833,851.167 432.5,850.5 Z"/></g>
<g><path style="opacity:0.004" fill="#000000" d="M 436.5,850.5 C 437.833,851.167 437.833,851.167 436.5,850.5 Z"/></g>
<g><path style="opacity:0.004" fill="#000000" d="M 438.5,850.5 C 439.833,851.167 439.833,851.167 438.5,850.5 Z"/></g>
<g><path style="opacity:0.004" fill="#000000" d="M 446.5,850.5 C 447.833,851.167 447.833,851.167 446.5,850.5 Z"/></g>
<g><path style="opacity:0.004" fill="#000000" d="M 450.5,850.5 C 451.833,851.167 451.833,851.167 450.5,850.5 Z"/></g>
<g><path style="opacity:0.004" fill="#000000" d="M 460.5,850.5 C 461.833,851.167 461.833,851.167 460.5,850.5 Z"/></g>
<g><path style="opacity:0.004" fill="#000000" d="M 468.5,851.5 C 467.761,851.631 467.094,851.464 466.5,851C 467.437,850.308 468.103,850.475 468.5,851.5 Z"/></g>
<g><path style="opacity:0.004" fill="#000000" d="M 515.5,850.5 C 516.833,851.167 516.833,851.167 515.5,850.5 Z"/></g>
<g><path style="opacity:0.004" fill="#000000" d="M 540.5,850.5 C 541.833,851.167 541.833,851.167 540.5,850.5 Z"/></g>
<g><path style="opacity:0.004" fill="#000000" d="M 550.5,850.5 C 551.833,851.167 551.833,851.167 550.5,850.5 Z"/></g>
<g><path style="opacity:0.004" fill="#000000" d="M 655.5,850.5 C 656.833,851.167 656.833,851.167 655.5,850.5 Z"/></g>
<g><path style="opacity:0.004" fill="#000000" d="M 397.5,851.5 C 398.833,852.167 398.833,852.167 397.5,851.5 Z"/></g>
<g><path style="opacity:0.004" fill="#000000" d="M 400.5,851.5 C 400.833,851.5 401.167,851.5 401.5,851.5C 401.315,852.17 400.981,852.17 400.5,851.5 Z"/></g>
<g><path style="opacity:0.004" fill="#000000" d="M 408.5,851.5 C 408.833,851.5 409.167,851.5 409.5,851.5C 409.315,852.17 408.981,852.17 408.5,851.5 Z"/></g>
<g><path style="opacity:0.004" fill="#000000" d="M 412.5,851.5 C 413.239,851.369 413.906,851.536 414.5,852C 413.563,852.692 412.897,852.525 412.5,851.5 Z"/></g>
<g><path style="opacity:0.004" fill="#000000" d="M 418.5,852.5 C 417.761,852.631 417.094,852.464 416.5,852C 417.437,851.308 418.103,851.475 418.5,852.5 Z"/></g>
<g><path style="opacity:0.004" fill="#000000" d="M 425.5,851.5 C 426.525,851.897 426.692,852.563 426,853.5C 425.536,852.906 425.369,852.239 425.5,851.5 Z"/></g>
<g><path style="opacity:0.004" fill="#000000" d="M 428.5,852.5 C 428.897,851.475 429.563,851.308 430.5,852C 429.906,852.464 429.239,852.631 428.5,852.5 Z"/></g>
<g><path style="opacity:0.004" fill="#000000" d="M 434.5,851.5 C 435.833,852.167 435.833,852.167 434.5,851.5 Z"/></g>
<g><path style="opacity:0.004" fill="#000000" d="M 444.5,851.5 C 445.833,852.167 445.833,852.167 444.5,851.5 Z"/></g>
<g><path style="opacity:0.004" fill="#000000" d="M 468.5,851.5 C 469.833,852.167 469.833,852.167 468.5,851.5 Z"/></g>
<g><path style="opacity:0.004" fill="#000000" d="M 471.5,851.5 C 472.833,852.167 472.833,852.167 471.5,851.5 Z"/></g>
<g><path style="opacity:0.004" fill="#000000" d="M 497.5,851.5 C 498.833,852.167 498.833,852.167 497.5,851.5 Z"/></g>
<g><path style="opacity:0.004" fill="#000000" d="M 547.5,851.5 C 548.833,852.167 548.833,852.167 547.5,851.5 Z"/></g>
<g><path style="opacity:0.004" fill="#000000" d="M 721.5,851.5 C 722.833,852.167 722.833,852.167 721.5,851.5 Z"/></g>
<g><path style="opacity:0.004" fill="#000000" d="M 790.5,851.5 C 791.833,852.167 791.833,852.167 790.5,851.5 Z"/></g>
<g><path style="opacity:0.008" fill="#000000" d="M 397.5,852.5 C 397.5,852.833 397.5,853.167 397.5,853.5C 396.83,853.019 396.83,852.685 397.5,852.5 Z"/></g>
<g><path style="opacity:0.004" fill="#000000" d="M 400.5,852.5 C 400.5,852.833 400.5,853.167 400.5,853.5C 399.83,853.019 399.83,852.685 400.5,852.5 Z"/></g>
<g><path style="opacity:0.004" fill="#000000" d="M 402.5,852.5 C 403.833,853.167 403.833,853.167 402.5,852.5 Z"/></g>
<g><path style="opacity:0.004" fill="#000000" d="M 404.5,852.5 C 407.001,852.511 407.168,853.178 405,854.5C 404.536,853.906 404.369,853.239 404.5,852.5 Z"/></g>
<g><path style="opacity:0.008" fill="#000000" d="M 418.5,852.5 C 419.833,853.167 419.833,853.167 418.5,852.5 Z"/></g>
<g><path style="opacity:0.004" fill="#000000" d="M 423.5,852.5 C 424.833,853.167 424.833,853.167 423.5,852.5 Z"/></g>
<g><path style="opacity:0.004" fill="#000000" d="M 436.5,852.5 C 437.833,853.167 437.833,853.167 436.5,852.5 Z"/></g>
<g><path style="opacity:0.004" fill="#000000" d="M 439.5,852.5 C 442.001,852.511 442.168,853.178 440,854.5C 439.536,853.906 439.369,853.239 439.5,852.5 Z"/></g>
<g><path style="opacity:0.004" fill="#000000" d="M 452.5,852.5 C 453.833,853.167 453.833,853.167 452.5,852.5 Z"/></g>
<g><path style="opacity:0.004" fill="#000000" d="M 457.5,853.5 C 457.897,852.475 458.563,852.308 459.5,853C 458.906,853.464 458.239,853.631 457.5,853.5 Z"/></g>
<g><path style="opacity:0.004" fill="#000000" d="M 464.5,853.5 C 464.897,852.475 465.563,852.308 466.5,853C 465.906,853.464 465.239,853.631 464.5,853.5 Z"/></g>
<g><path style="opacity:0.004" fill="#000000" d="M 493.5,853.5 C 492.833,852.167 492.833,852.167 493.5,853.5 Z"/></g>
<g><path style="opacity:0.004" fill="#000000" d="M 508.5,852.5 C 509.833,853.167 509.833,853.167 508.5,852.5 Z"/></g>
<g><path style="opacity:0.004" fill="#000000" d="M 512.5,852.5 C 513.833,853.167 513.833,853.167 512.5,852.5 Z"/></g>
<g><path style="opacity:0.004" fill="#000000" d="M 543.5,852.5 C 544.833,853.167 544.833,853.167 543.5,852.5 Z"/></g>
<g><path style="opacity:0.004" fill="#000000" d="M 626.5,852.5 C 627.833,853.167 627.833,853.167 626.5,852.5 Z"/></g>
<g><path style="opacity:0.004" fill="#000000" d="M 397.5,853.5 C 398.833,854.167 398.833,854.167 397.5,853.5 Z"/></g>
<g><path style="opacity:0.004" fill="#000000" d="M 400.5,853.5 C 401.167,853.5 401.833,853.5 402.5,853.5C 401.833,854.833 401.167,854.833 400.5,853.5 Z"/></g>
<g><path style="opacity:0.004" fill="#000000" d="M 407.5,854.5 C 407.897,853.475 408.563,853.308 409.5,854C 408.906,854.464 408.239,854.631 407.5,854.5 Z"/></g>
<g><path style="opacity:0.004" fill="#000000" d="M 411.5,853.5 C 412.833,854.167 412.833,854.167 411.5,853.5 Z"/></g>
<g><path style="opacity:0.004" fill="#000000" d="M 423.5,853.5 C 422.833,854.167 422.833,854.167 423.5,853.5 Z"/></g>
<g><path style="opacity:0.004" fill="#000000" d="M 427.5,853.5 C 428.833,854.167 428.833,854.167 427.5,853.5 Z"/></g>
<g><path style="opacity:0.004" fill="#000000" d="M 430.5,853.5 C 431.833,854.167 431.833,854.167 430.5,853.5 Z"/></g>
<g><path style="opacity:0.004" fill="#000000" d="M 436.5,853.5 C 435.833,854.167 435.833,854.167 436.5,853.5 Z"/></g>
<g><path style="opacity:0.004" fill="#000000" d="M 443.5,853.5 C 444.833,854.167 444.833,854.167 443.5,853.5 Z"/></g>
<g><path style="opacity:0.004" fill="#000000" d="M 455.5,853.5 C 456.833,854.167 456.833,854.167 455.5,853.5 Z"/></g>
<g><path style="opacity:0.004" fill="#000000" d="M 480.5,853.5 C 481.833,854.167 481.833,854.167 480.5,853.5 Z"/></g>
<g><path style="opacity:0.004" fill="#000000" d="M 493.5,853.5 C 494.833,854.167 494.833,854.167 493.5,853.5 Z"/></g>
<g><path style="opacity:0.004" fill="#000000" d="M 496.5,854.5 C 496.897,853.475 497.563,853.308 498.5,854C 497.906,854.464 497.239,854.631 496.5,854.5 Z"/></g>
<g><path style="opacity:0.004" fill="#000000" d="M 499.5,853.5 C 500.833,854.167 500.833,854.167 499.5,853.5 Z"/></g>
<g><path style="opacity:0.004" fill="#000000" d="M 535.5,853.5 C 536.833,854.167 536.833,854.167 535.5,853.5 Z"/></g>
<g><path style="opacity:0.004" fill="#000000" d="M 835.5,853.5 C 836.833,854.167 836.833,854.167 835.5,853.5 Z"/></g>
<g><path style="opacity:0.975" fill="#000000" d="M 314.5,890.5 C 367.171,890.167 419.838,890.5 472.5,891.5C 470.177,902.438 468.177,913.438 466.5,924.5C 429.167,924.5 391.833,924.5 354.5,924.5C 354.099,927.748 353.432,930.915 352.5,934C 389.832,934.5 427.165,934.667 464.5,934.5C 462.5,946.167 460.5,957.833 458.5,969.5C 421.167,969.5 383.833,969.5 346.5,969.5C 344.099,984.078 341.432,998.578 338.5,1013C 323.504,1013.5 308.504,1013.67 293.5,1013.5C 300.176,972.446 307.176,931.446 314.5,890.5 Z"/></g>
<g><path style="opacity:0.976" fill="#000000" d="M 481.5,890.5 C 496.833,890.5 512.167,890.5 527.5,890.5C 520.401,931.165 513.234,971.832 506,1012.5C 490.911,1013.49 475.745,1013.82 460.5,1013.5C 467.176,972.446 474.176,931.446 481.5,890.5 Z"/></g>
<g><path style="opacity:0.981" fill="#000000" d="M 537.5,890.5 C 590.171,890.167 642.838,890.5 695.5,891.5C 693.177,902.438 691.177,913.438 689.5,924.5C 670.821,924.167 652.155,924.5 633.5,925.5C 628.228,954.133 623.061,982.799 618,1011.5C 610.401,1012.82 602.568,1013.48 594.5,1013.5C 586.833,1013.33 579.167,1013.17 571.5,1013C 577.149,983.586 582.482,954.086 587.5,924.5C 568.821,924.833 550.155,924.5 531.5,923.5C 533.757,912.548 535.757,901.548 537.5,890.5 Z"/></g>
<g><path style="opacity:0.98" fill="#000000" d="M 726.5,890.5 C 741.833,890.5 757.167,890.5 772.5,890.5C 767.482,920.086 762.149,949.586 756.5,979C 793.832,979.5 831.165,979.667 868.5,979.5C 866.823,990.562 864.823,1001.56 862.5,1012.5C 810.171,1013.5 757.838,1013.83 705.5,1013.5C 712.176,972.446 719.176,931.446 726.5,890.5 Z"/></g>
<g><path style="opacity:0.98" fill="#000000" d="M 894.5,890.5 C 947.171,890.167 999.838,890.5 1052.5,891.5C 1045.17,931.833 1037.83,972.167 1030.5,1012.5C 978.171,1013.5 925.838,1013.83 873.5,1013.5C 877.704,987.147 882.037,960.814 886.5,934.5C 923.839,934.833 961.173,934.5 998.5,933.5C 999.167,930.833 999.833,928.167 1000.5,925.5C 963.167,924.833 925.833,924.167 888.5,923.5C 890.757,912.548 892.757,901.548 894.5,890.5 Z M 926.5,969.5 C 948.5,969.5 970.5,969.5 992.5,969.5C 992.089,972.553 991.423,975.553 990.5,978.5C 968.508,979.666 946.508,979.833 924.5,979C 925.432,975.915 926.099,972.748 926.5,969.5 Z"/></g>
<g><path style="opacity:0.982" fill="#000000" d="M 1062.5,890.5 C 1115.17,890.167 1167.84,890.5 1220.5,891.5C 1217.73,905.8 1215.06,920.133 1212.5,934.5C 1206.19,940.472 1199.86,946.472 1193.5,952.5C 1198.25,957.908 1202.58,963.574 1206.5,969.5C 1203.94,983.867 1201.27,998.2 1198.5,1012.5C 1146.17,1013.5 1093.84,1013.83 1041.5,1013.5C 1048.18,972.446 1055.18,931.446 1062.5,890.5 Z M 1102.5,924.5 C 1124.51,924.167 1146.51,924.5 1168.5,925.5C 1167.83,928.167 1167.17,930.833 1166.5,933.5C 1144.51,934.666 1122.51,934.833 1100.5,934C 1101.43,930.915 1102.1,927.748 1102.5,924.5 Z M 1094.5,969.5 C 1116.5,969.5 1138.5,969.5 1160.5,969.5C 1160.09,972.553 1159.42,975.553 1158.5,978.5C 1136.51,979.666 1114.51,979.833 1092.5,979C 1093.43,975.915 1094.1,972.748 1094.5,969.5 Z"/></g>
<g><path style="opacity:0.87" fill="#000000" d="M 288.5,1035.5 C 295.167,1035.5 301.833,1035.5 308.5,1035.5C 308.643,1037.26 308.309,1038.93 307.5,1040.5C 303.217,1041.49 298.884,1041.83 294.5,1041.5C 294.739,1043.47 294.406,1045.3 293.5,1047C 297.486,1047.5 301.486,1047.67 305.5,1047.5C 305.643,1049.26 305.309,1050.93 304.5,1052.5C 300.555,1053.49 296.555,1053.82 292.5,1053.5C 292.296,1056.52 291.963,1059.52 291.5,1062.5C 288.753,1062.81 286.086,1062.48 283.5,1061.5C 285.382,1052.88 287.049,1044.21 288.5,1035.5 Z"/></g>
<g><path style="opacity:0.894" fill="#000000" d="M 325.5,1035.5 C 333.528,1035.17 341.528,1035.5 349.5,1036.5C 348.691,1038.07 348.357,1039.74 348.5,1041.5C 345.753,1041.19 343.086,1041.52 340.5,1042.5C 339.274,1048.85 337.941,1055.19 336.5,1061.5C 334.257,1062.47 331.924,1062.81 329.5,1062.5C 330.608,1055.52 331.608,1048.52 332.5,1041.5C 330.167,1041.5 327.833,1041.5 325.5,1041.5C 325.5,1039.5 325.5,1037.5 325.5,1035.5 Z"/></g>
<g><path style="opacity:0.873" fill="#000000" d="M 385.5,1035.5 C 392.5,1035.5 399.5,1035.5 406.5,1035.5C 406.739,1037.47 406.406,1039.3 405.5,1041C 400.845,1041.5 396.179,1041.67 391.5,1041.5C 391.5,1043.17 391.5,1044.83 391.5,1046.5C 395.5,1046.5 399.5,1046.5 403.5,1046.5C 403.167,1048.5 402.833,1050.5 402.5,1052.5C 398.167,1052.5 393.833,1052.5 389.5,1052.5C 389.5,1053.83 389.5,1055.17 389.5,1056.5C 394.167,1056.5 398.833,1056.5 403.5,1056.5C 403.167,1058.5 402.833,1060.5 402.5,1062.5C 395.137,1062.83 387.803,1062.5 380.5,1061.5C 382.382,1052.88 384.049,1044.21 385.5,1035.5 Z"/></g>
<g><path style="opacity:0.853" fill="#000000" d="M 418.5,1035.5 C 422.514,1035.33 426.514,1035.5 430.5,1036C 432.002,1036.58 433.335,1037.42 434.5,1038.5C 433.243,1040.68 431.743,1042.68 430,1044.5C 426.766,1041.52 423.266,1041.02 419.5,1043C 422.5,1045.23 425.833,1046.9 429.5,1048C 433.183,1054.55 431.517,1059.22 424.5,1062C 418.2,1063.42 412.534,1062.26 407.5,1058.5C 408.441,1056.23 409.774,1054.23 411.5,1052.5C 414.438,1055.97 418.104,1057.14 422.5,1056C 422.957,1055.59 423.291,1055.09 423.5,1054.5C 419.452,1052.64 415.619,1050.3 412,1047.5C 410.89,1041.63 413.057,1037.63 418.5,1035.5 Z"/></g>
<g><path style="opacity:0.853" fill="#000000" d="M 445.5,1035.5 C 449.514,1035.33 453.514,1035.5 457.5,1036C 459.002,1036.58 460.335,1037.42 461.5,1038.5C 460.243,1040.68 458.743,1042.68 457,1044.5C 453.766,1041.52 450.266,1041.02 446.5,1043C 449.5,1045.23 452.833,1046.9 456.5,1048C 460.183,1054.55 458.517,1059.22 451.5,1062C 445.2,1063.42 439.534,1062.26 434.5,1058.5C 435.441,1056.23 436.774,1054.23 438.5,1052.5C 441.438,1055.97 445.104,1057.14 449.5,1056C 449.957,1055.59 450.291,1055.09 450.5,1054.5C 446.452,1052.64 442.619,1050.3 439,1047.5C 437.89,1041.63 440.057,1037.63 445.5,1035.5 Z"/></g>
<g><path style="opacity:0.878" fill="#000000" d="M 596.5,1035.5 C 612.543,1033.95 617.71,1040.62 612,1055.5C 605.356,1062.96 597.522,1064.46 588.5,1060C 582.845,1049.13 585.511,1040.97 596.5,1035.5 Z M 598.5,1041.5 C 607.159,1042.14 609.159,1046.14 604.5,1053.5C 599.146,1058.09 595.146,1057.09 592.5,1050.5C 593.286,1046.57 595.286,1043.57 598.5,1041.5 Z"/></g>
<g><path style="opacity:0.894" fill="#000000" d="M 675.5,1035.5 C 683.528,1035.17 691.528,1035.5 699.5,1036.5C 698.691,1038.07 698.357,1039.74 698.5,1041.5C 695.753,1041.19 693.086,1041.52 690.5,1042.5C 689.274,1048.85 687.941,1055.19 686.5,1061.5C 684.257,1062.47 681.924,1062.81 679.5,1062.5C 680.608,1055.52 681.608,1048.52 682.5,1041.5C 680.167,1041.5 677.833,1041.5 675.5,1041.5C 675.5,1039.5 675.5,1037.5 675.5,1035.5 Z"/></g>
<g><path style="opacity:0.878" fill="#000000" d="M 725.5,1035.5 C 741.543,1033.95 746.71,1040.62 741,1055.5C 734.356,1062.96 726.522,1064.46 717.5,1060C 711.845,1049.13 714.511,1040.97 725.5,1035.5 Z M 727.5,1041.5 C 736.159,1042.14 738.159,1046.14 733.5,1053.5C 728.146,1058.09 724.146,1057.09 721.5,1050.5C 722.286,1046.57 724.286,1043.57 727.5,1041.5 Z"/></g>
<g><path style="opacity:0.894" fill="#000000" d="M 823.5,1035.5 C 831.528,1035.17 839.528,1035.5 847.5,1036.5C 846.691,1038.07 846.357,1039.74 846.5,1041.5C 843.753,1041.19 841.086,1041.52 838.5,1042.5C 837.274,1048.85 835.941,1055.19 834.5,1061.5C 832.257,1062.47 829.924,1062.81 827.5,1062.5C 828.608,1055.52 829.608,1048.52 830.5,1041.5C 828.167,1041.5 825.833,1041.5 823.5,1041.5C 823.5,1039.5 823.5,1037.5 823.5,1035.5 Z"/></g>
<g><path style="opacity:0.88" fill="#000000" d="M 851.5,1035.5 C 858.373,1034.97 865.04,1035.8 871.5,1038C 873.978,1041.68 874.144,1045.52 872,1049.5C 870.315,1051.02 868.815,1052.68 867.5,1054.5C 868.695,1056.75 869.695,1059.08 870.5,1061.5C 864.044,1064.32 860.711,1062.32 860.5,1055.5C 858.833,1055.5 857.167,1055.5 855.5,1055.5C 855.007,1057.81 854.674,1060.14 854.5,1062.5C 851.753,1062.81 849.086,1062.48 846.5,1061.5C 848.382,1052.88 850.049,1044.21 851.5,1035.5 Z M 857.5,1041.5 C 861.122,1040.92 864.122,1041.92 866.5,1044.5C 864.587,1048.79 861.254,1050.46 856.5,1049.5C 857.092,1046.87 857.425,1044.21 857.5,1041.5 Z"/></g>
<g><path style="opacity:0.853" fill="#000000" d="M 950.5,1035.5 C 954.514,1035.33 958.514,1035.5 962.5,1036C 964.002,1036.58 965.335,1037.42 966.5,1038.5C 965.243,1040.68 963.743,1042.68 962,1044.5C 958.766,1041.52 955.266,1041.02 951.5,1043C 954.5,1045.23 957.833,1046.9 961.5,1048C 965.183,1054.55 963.517,1059.22 956.5,1062C 950.2,1063.42 944.534,1062.26 939.5,1058.5C 940.441,1056.23 941.774,1054.23 943.5,1052.5C 946.438,1055.97 950.104,1057.14 954.5,1056C 954.957,1055.59 955.291,1055.09 955.5,1054.5C 951.452,1052.64 947.619,1050.3 944,1047.5C 942.89,1041.63 945.057,1037.63 950.5,1035.5 Z"/></g>
<g><path style="opacity:0.87" fill="#000000" d="M 972.5,1035.5 C 979.167,1035.5 985.833,1035.5 992.5,1035.5C 992.643,1037.26 992.309,1038.93 991.5,1040.5C 987.217,1041.49 982.884,1041.83 978.5,1041.5C 978.739,1043.47 978.406,1045.3 977.5,1047C 981.486,1047.5 985.486,1047.67 989.5,1047.5C 989.643,1049.26 989.309,1050.93 988.5,1052.5C 984.555,1053.49 980.555,1053.82 976.5,1053.5C 976.296,1056.52 975.963,1059.52 975.5,1062.5C 972.753,1062.81 970.086,1062.48 967.5,1061.5C 969.382,1052.88 971.049,1044.21 972.5,1035.5 Z"/></g>
<g><path style="opacity:0.878" fill="#000000" d="M 1004.5,1035.5 C 1020.54,1033.95 1025.71,1040.62 1020,1055.5C 1013.36,1062.96 1005.52,1064.46 996.5,1060C 990.845,1049.13 993.511,1040.97 1004.5,1035.5 Z M 1006.5,1041.5 C 1015.16,1042.14 1017.16,1046.14 1012.5,1053.5C 1007.15,1058.09 1003.15,1057.09 1000.5,1050.5C 1001.29,1046.57 1003.29,1043.57 1006.5,1041.5 Z"/></g>
<g><path style="opacity:0.88" fill="#000000" d="M 1030.5,1035.5 C 1037.37,1034.97 1044.04,1035.8 1050.5,1038C 1052.98,1041.68 1053.14,1045.52 1051,1049.5C 1049.31,1051.02 1047.81,1052.68 1046.5,1054.5C 1047.69,1056.75 1048.69,1059.08 1049.5,1061.5C 1043.04,1064.32 1039.71,1062.32 1039.5,1055.5C 1037.83,1055.5 1036.17,1055.5 1034.5,1055.5C 1034.01,1057.81 1033.67,1060.14 1033.5,1062.5C 1030.75,1062.81 1028.09,1062.48 1025.5,1061.5C 1027.38,1052.88 1029.05,1044.21 1030.5,1035.5 Z M 1036.5,1041.5 C 1040.12,1040.92 1043.12,1041.92 1045.5,1044.5C 1043.59,1048.79 1040.25,1050.46 1035.5,1049.5C 1036.09,1046.87 1036.42,1044.21 1036.5,1041.5 Z"/></g>
<g><path style="opacity:0.874" fill="#000000" d="M 1060.5,1035.5 C 1063.45,1035.22 1066.28,1035.56 1069,1036.5C 1069.87,1040.98 1071.2,1045.32 1073,1049.5C 1075.96,1045.08 1078.79,1040.58 1081.5,1036C 1084.5,1035.33 1087.5,1035.33 1090.5,1036C 1088.46,1044.74 1086.79,1053.57 1085.5,1062.5C 1083.08,1062.81 1080.74,1062.47 1078.5,1061.5C 1082.09,1046.52 1080.59,1045.85 1074,1059.5C 1072.19,1060.76 1070.35,1060.76 1068.5,1059.5C 1067.49,1055.78 1066.32,1052.11 1065,1048.5C 1064.23,1053.19 1063.39,1057.86 1062.5,1062.5C 1060.08,1062.81 1057.74,1062.47 1055.5,1061.5C 1057.38,1052.88 1059.05,1044.21 1060.5,1035.5 Z"/></g>
<g><path style="opacity:0.894" fill="#000000" d="M 1122.5,1035.5 C 1130.53,1035.17 1138.53,1035.5 1146.5,1036.5C 1145.69,1038.07 1145.36,1039.74 1145.5,1041.5C 1142.75,1041.19 1140.09,1041.52 1137.5,1042.5C 1136.27,1048.85 1134.94,1055.19 1133.5,1061.5C 1131.26,1062.47 1128.92,1062.81 1126.5,1062.5C 1127.61,1055.52 1128.61,1048.52 1129.5,1041.5C 1127.17,1041.5 1124.83,1041.5 1122.5,1041.5C 1122.5,1039.5 1122.5,1037.5 1122.5,1035.5 Z"/></g>
<g><path style="opacity:0.878" fill="#000000" d="M 1172.5,1035.5 C 1188.54,1033.95 1193.71,1040.62 1188,1055.5C 1181.36,1062.96 1173.52,1064.46 1164.5,1060C 1158.84,1049.13 1161.51,1040.97 1172.5,1035.5 Z M 1174.5,1041.5 C 1183.16,1042.14 1185.16,1046.14 1180.5,1053.5C 1175.15,1058.09 1171.15,1057.09 1168.5,1050.5C 1169.29,1046.57 1171.29,1043.57 1174.5,1041.5 Z"/></g>
<g><path style="opacity:0.884" fill="#000000" d="M 313.5,1036.5 C 315.833,1036.5 318.167,1036.5 320.5,1036.5C 319.167,1045.17 317.834,1053.83 316.5,1062.5C 313.753,1062.81 311.086,1062.48 308.5,1061.5C 310.275,1053.18 311.942,1044.85 313.5,1036.5 Z"/></g>
<g><path style="opacity:0.89" fill="#000000" d="M 353.5,1036.5 C 355.857,1036.34 358.19,1036.5 360.5,1037C 363,1041.5 365.5,1046 368,1050.5C 369.375,1046.28 370.542,1041.95 371.5,1037.5C 373.833,1036.17 376.167,1036.17 378.5,1037.5C 376.776,1045.68 375.109,1053.85 373.5,1062C 371.098,1062.81 368.765,1062.65 366.5,1061.5C 363.8,1057.3 361.3,1052.96 359,1048.5C 357.493,1052.7 356.493,1057.03 356,1061.5C 353.534,1062.78 351.034,1062.78 348.5,1061.5C 350.275,1053.18 351.942,1044.85 353.5,1036.5 Z"/></g>
<g><path style="opacity:0.884" fill="#000000" d="M 510.5,1036.5 C 512.833,1036.5 515.167,1036.5 517.5,1036.5C 516.167,1045.17 514.834,1053.83 513.5,1062.5C 510.753,1062.81 508.086,1062.48 505.5,1061.5C 507.275,1053.18 508.942,1044.85 510.5,1036.5 Z"/></g>
<g><path style="opacity:0.89" fill="#000000" d="M 524.5,1036.5 C 526.857,1036.34 529.19,1036.5 531.5,1037C 534,1041.5 536.5,1046 539,1050.5C 540.375,1046.28 541.542,1041.95 542.5,1037.5C 544.833,1036.17 547.167,1036.17 549.5,1037.5C 547.776,1045.68 546.109,1053.85 544.5,1062C 542.098,1062.81 539.765,1062.65 537.5,1061.5C 534.8,1057.3 532.3,1052.96 530,1048.5C 528.493,1052.7 527.493,1057.03 527,1061.5C 524.534,1062.78 522.034,1062.78 519.5,1061.5C 521.275,1053.18 522.942,1044.85 524.5,1036.5 Z"/></g>
<g><path style="opacity:0.89" fill="#000000" d="M 557.5,1036.5 C 559.857,1036.34 562.19,1036.5 564.5,1037C 567,1041.5 569.5,1046 572,1050.5C 573.375,1046.28 574.542,1041.95 575.5,1037.5C 577.833,1036.17 580.167,1036.17 582.5,1037.5C 580.776,1045.68 579.109,1053.85 577.5,1062C 575.098,1062.81 572.765,1062.65 570.5,1061.5C 567.8,1057.3 565.3,1052.96 563,1048.5C 561.493,1052.7 560.493,1057.03 560,1061.5C 557.534,1062.78 555.034,1062.78 552.5,1061.5C 554.275,1053.18 555.942,1044.85 557.5,1036.5 Z"/></g>
<g><path style="opacity:0.869" fill="#000000" d="M 618.5,1036.5 C 621.247,1036.19 623.914,1036.52 626.5,1037.5C 627.559,1042.85 628.725,1048.18 630,1053.5C 633.088,1048.33 635.921,1042.99 638.5,1037.5C 641.167,1036.17 643.833,1036.17 646.5,1037.5C 641.707,1045.59 637.04,1053.75 632.5,1062C 629.571,1062.78 626.737,1062.61 624,1061.5C 622.227,1053.13 620.394,1044.8 618.5,1036.5 Z"/></g>
<g><path style="opacity:0.896" fill="#000000" d="M 657.5,1036.5 C 660.247,1036.19 662.914,1036.52 665.5,1037.5C 667.974,1045.73 669.974,1054.06 671.5,1062.5C 668.833,1062.5 666.167,1062.5 663.5,1062.5C 663.5,1060.83 663.5,1059.17 663.5,1057.5C 659.818,1057.33 656.152,1057.5 652.5,1058C 650.055,1062.12 646.389,1063.45 641.5,1062C 646.969,1053.56 652.303,1045.06 657.5,1036.5 Z M 659.5,1044.5 C 660.768,1046.91 661.435,1049.57 661.5,1052.5C 659.473,1052.66 657.473,1052.5 655.5,1052C 657.494,1049.84 658.828,1047.34 659.5,1044.5 Z"/></g>
<g><path style="opacity:0.884" fill="#000000" d="M 703.5,1036.5 C 705.833,1036.5 708.167,1036.5 710.5,1036.5C 709.167,1045.17 707.834,1053.83 706.5,1062.5C 703.753,1062.81 701.086,1062.48 698.5,1061.5C 700.275,1053.18 701.942,1044.85 703.5,1036.5 Z"/></g>
<g><path style="opacity:0.89" fill="#000000" d="M 751.5,1036.5 C 753.857,1036.34 756.19,1036.5 758.5,1037C 761,1041.5 763.5,1046 766,1050.5C 767.375,1046.28 768.542,1041.95 769.5,1037.5C 771.833,1036.17 774.167,1036.17 776.5,1037.5C 774.776,1045.68 773.109,1053.85 771.5,1062C 769.098,1062.81 766.765,1062.65 764.5,1061.5C 761.8,1057.3 759.3,1052.96 757,1048.5C 755.493,1052.7 754.493,1057.03 754,1061.5C 751.534,1062.78 749.034,1062.78 746.5,1061.5C 748.275,1053.18 749.942,1044.85 751.5,1036.5 Z"/></g>
<g><path style="opacity:0.896" fill="#000000" d="M 889.5,1036.5 C 892.247,1036.19 894.914,1036.52 897.5,1037.5C 899.974,1045.73 901.974,1054.06 903.5,1062.5C 900.833,1062.5 898.167,1062.5 895.5,1062.5C 895.5,1060.83 895.5,1059.17 895.5,1057.5C 891.818,1057.33 888.152,1057.5 884.5,1058C 882.055,1062.12 878.389,1063.45 873.5,1062C 878.969,1053.56 884.303,1045.06 889.5,1036.5 Z M 891.5,1044.5 C 892.768,1046.91 893.435,1049.57 893.5,1052.5C 891.473,1052.66 889.473,1052.5 887.5,1052C 889.494,1049.84 890.828,1047.34 891.5,1044.5 Z"/></g>
<g><path style="opacity:0.89" fill="#000000" d="M 913.5,1036.5 C 915.857,1036.34 918.19,1036.5 920.5,1037C 923,1041.5 925.5,1046 928,1050.5C 929.375,1046.28 930.542,1041.95 931.5,1037.5C 933.833,1036.17 936.167,1036.17 938.5,1037.5C 936.776,1045.68 935.109,1053.85 933.5,1062C 931.098,1062.81 928.765,1062.65 926.5,1061.5C 923.8,1057.3 921.3,1052.96 919,1048.5C 917.493,1052.7 916.493,1057.03 916,1061.5C 913.534,1062.78 911.034,1062.78 908.5,1061.5C 910.275,1053.18 911.942,1044.85 913.5,1036.5 Z"/></g>
<g><path style="opacity:0.896" fill="#000000" d="M 1104.5,1036.5 C 1107.25,1036.19 1109.91,1036.52 1112.5,1037.5C 1114.97,1045.73 1116.97,1054.06 1118.5,1062.5C 1115.83,1062.5 1113.17,1062.5 1110.5,1062.5C 1110.5,1060.83 1110.5,1059.17 1110.5,1057.5C 1106.82,1057.33 1103.15,1057.5 1099.5,1058C 1097.06,1062.12 1093.39,1063.45 1088.5,1062C 1093.97,1053.56 1099.3,1045.06 1104.5,1036.5 Z M 1106.5,1044.5 C 1107.77,1046.91 1108.43,1049.57 1108.5,1052.5C 1106.47,1052.66 1104.47,1052.5 1102.5,1052C 1104.49,1049.84 1105.83,1047.34 1106.5,1044.5 Z"/></g>
<g><path style="opacity:0.884" fill="#000000" d="M 1150.5,1036.5 C 1152.83,1036.5 1155.17,1036.5 1157.5,1036.5C 1156.17,1045.17 1154.83,1053.83 1153.5,1062.5C 1150.75,1062.81 1148.09,1062.48 1145.5,1061.5C 1147.28,1053.18 1148.94,1044.85 1150.5,1036.5 Z"/></g>
<g><path style="opacity:0.89" fill="#000000" d="M 1198.5,1036.5 C 1200.86,1036.34 1203.19,1036.5 1205.5,1037C 1208,1041.5 1210.5,1046 1213,1050.5C 1214.38,1046.28 1215.54,1041.95 1216.5,1037.5C 1218.83,1036.17 1221.17,1036.17 1223.5,1037.5C 1221.78,1045.68 1220.11,1053.85 1218.5,1062C 1216.1,1062.81 1213.76,1062.65 1211.5,1061.5C 1208.8,1057.3 1206.3,1052.96 1204,1048.5C 1202.49,1052.7 1201.49,1057.03 1201,1061.5C 1198.53,1062.78 1196.03,1062.78 1193.5,1061.5C 1195.28,1053.18 1196.94,1044.85 1198.5,1036.5 Z"/></g>
<g><path style="opacity:0.862" fill="#000000" d="M 481.5,1041.5 C 483.199,1041.34 484.866,1041.51 486.5,1042C 485.577,1044.04 485.244,1046.21 485.5,1048.5C 487.604,1048.2 489.604,1048.53 491.5,1049.5C 491.167,1050.17 490.833,1050.83 490.5,1051.5C 484.956,1051.44 482.623,1054.11 483.5,1059.5C 481.833,1059.5 480.167,1059.5 478.5,1059.5C 478.318,1057.41 478.652,1055.41 479.5,1053.5C 477.604,1052.53 475.604,1052.2 473.5,1052.5C 473.5,1051.17 473.5,1049.83 473.5,1048.5C 475.833,1048.5 478.167,1048.5 480.5,1048.5C 480.298,1046.05 480.631,1043.72 481.5,1041.5 Z"/></g>
<g><path style="opacity:0.965" fill="#000000" d="M 790.5,1044.5 C 796.167,1044.5 801.833,1044.5 807.5,1044.5C 807.5,1045.83 807.5,1047.17 807.5,1048.5C 801.491,1048.67 795.491,1048.5 789.5,1048C 790.337,1046.99 790.67,1045.82 790.5,1044.5 Z"/></g>
<g><path style="opacity:0.938" fill="#000000" d="M 788.5,1052.5 C 794.5,1052.5 800.5,1052.5 806.5,1052.5C 806.67,1053.82 806.337,1054.99 805.5,1056C 799.843,1056.5 794.176,1056.67 788.5,1056.5C 788.5,1055.17 788.5,1053.83 788.5,1052.5 Z"/></g>
</svg>
