<?xml version="1.0" encoding="UTF-8"?>
<!DOCTYPE svg PUBLIC "-//W3C//DTD SVG 1.1//EN" "http://www.w3.org/Graphics/SVG/1.1/DTD/svg11.dtd">
<svg xmlns="http://www.w3.org/2000/svg" version="1.1" width="1500px" height="1500px" style="shape-rendering:geometricPrecision; text-rendering:geometricPrecision; image-rendering:optimizeQuality; fill-rule:evenodd; clip-rule:evenodd" xmlns:xlink="http://www.w3.org/1999/xlink">
<g><path style="opacity:0.991" fill="#000000" d="M 509.5,500.5 C 650.833,500.5 792.167,500.5 933.5,500.5C 921.517,617.512 909.351,734.512 897,851.5C 896.801,853.402 895.967,854.902 894.5,856C 879.5,861.667 864.5,867.333 849.5,873C 954.833,873.5 1060.17,873.667 1165.5,873.5C 1161.95,914.178 1158.29,954.844 1154.5,995.5C 1067.5,995.667 980.499,995.5 893.5,995C 814.855,988.023 773.022,945.189 768,866.5C 767.256,850.811 767.589,835.144 769,819.5C 779.203,719.139 789.203,618.806 799,518.5C 785.962,546.742 772.795,574.909 759.5,603C 627.167,603.667 494.833,603.667 362.5,603C 383.582,550.928 421.582,518.594 476.5,506C 487.575,503.731 498.575,501.897 509.5,500.5 Z"/></g>
<g><path style="opacity:0.988" fill="#000000" d="M 343.5,691.5 C 481.167,691.5 618.833,691.5 756.5,691.5C 752.969,725.144 749.636,758.81 746.5,792.5C 622.497,792.556 498.497,792.389 374.5,792C 404.727,799.746 434.727,808.079 464.5,817C 458.107,876.09 451.941,935.257 446,994.5C 401.906,995.497 357.739,995.83 313.5,995.5C 323.631,894.187 333.631,792.854 343.5,691.5 Z"/></g>
<g><path style="opacity:0.004" fill="#000000" d="M 300.5,975.5 C 301.833,976.167 301.833,976.167 300.5,975.5 Z"/></g>
<g><path style="opacity:0.004" fill="#000000" d="M 480.5,983.5 C 481.833,984.167 481.833,984.167 480.5,983.5 Z"/></g>
<g><path style="opacity:0.004" fill="#000000" d="M 786.5,991.5 C 787.833,992.167 787.833,992.167 786.5,991.5 Z"/></g>
<g><path style="opacity:0.004" fill="#000000" d="M 299.5,994.5 C 300.833,995.167 300.833,995.167 299.5,994.5 Z"/></g>
<g><path style="opacity:0.004" fill="#000000" d="M 793.5,994.5 C 794.833,995.167 794.833,995.167 793.5,994.5 Z"/></g>
<g><path style="opacity:0.004" fill="#000000" d="M 315.5,996.5 C 316.833,997.167 316.833,997.167 315.5,996.5 Z"/></g>
<g><path style="opacity:0.004" fill="#000000" d="M 605.5,996.5 C 606.833,997.167 606.833,997.167 605.5,996.5 Z"/></g>
<g><path style="opacity:0.004" fill="#000000" d="M 298.5,997.5 C 299.833,998.167 299.833,998.167 298.5,997.5 Z"/></g>
<g><path style="opacity:0.004" fill="#000000" d="M 727.5,997.5 C 728.833,998.167 728.833,998.167 727.5,997.5 Z"/></g>
<g><path style="opacity:0.004" fill="#000000" d="M 825.5,997.5 C 826.833,998.167 826.833,998.167 825.5,997.5 Z"/></g>
<g><path style="opacity:0.004" fill="#000000" d="M 331.5,999.5 C 332.833,1000.17 332.833,1000.17 331.5,999.5 Z"/></g>
<g><path style="opacity:0.004" fill="#000000" d="M 295.5,1000.5 C 296.833,1001.17 296.833,1001.17 295.5,1000.5 Z"/></g>
<g><path style="opacity:0.004" fill="#000000" d="M 300.5,1001.5 C 299.833,1000.17 299.833,1000.17 300.5,1001.5 Z"/></g>
<g><path style="opacity:0.004" fill="#000000" d="M 319.5,1000.5 C 320.833,1001.17 320.833,1001.17 319.5,1000.5 Z"/></g>
<g><path style="opacity:0.004" fill="#000000" d="M 335.5,1000.5 C 336.525,1000.9 336.692,1001.56 336,1002.5C 335.536,1001.91 335.369,1001.24 335.5,1000.5 Z"/></g>
<g><path style="opacity:0.004" fill="#000000" d="M 1131.5,1000.5 C 1132.83,1001.17 1132.83,1001.17 1131.5,1000.5 Z"/></g>
<g><path style="opacity:0.004" fill="#000000" d="M 297.5,1001.5 C 298.833,1002.17 298.833,1002.17 297.5,1001.5 Z"/></g>
<g><path style="opacity:0.004" fill="#000000" d="M 300.5,1001.5 C 301.833,1002.17 301.833,1002.17 300.5,1001.5 Z"/></g>
<g><path style="opacity:0.004" fill="#000000" d="M 303.5,1002.5 C 302.833,1001.17 302.833,1001.17 303.5,1002.5 Z"/></g>
<g><path style="opacity:0.004" fill="#000000" d="M 305.5,1001.5 C 306.833,1002.17 306.833,1002.17 305.5,1001.5 Z"/></g>
<g><path style="opacity:0.004" fill="#000000" d="M 323.5,1001.5 C 324.833,1002.17 324.833,1002.17 323.5,1001.5 Z"/></g>
<g><path style="opacity:0.004" fill="#000000" d="M 774.5,1001.5 C 775.833,1002.17 775.833,1002.17 774.5,1001.5 Z"/></g>
<g><path style="opacity:0.004" fill="#000000" d="M 303.5,1002.5 C 304.833,1003.17 304.833,1003.17 303.5,1002.5 Z"/></g>
<g><path style="opacity:0.004" fill="#000000" d="M 305.5,1003.5 C 306.525,1003.9 306.692,1004.56 306,1005.5C 305.536,1004.91 305.369,1004.24 305.5,1003.5 Z"/></g>
<g><path style="opacity:0.004" fill="#000000" d="M 308.5,1004.5 C 309.833,1005.17 309.833,1005.17 308.5,1004.5 Z"/></g>
<g><path style="opacity:0.004" fill="#000000" d="M 313.5,1004.5 C 314.833,1005.17 314.833,1005.17 313.5,1004.5 Z"/></g>
<g><path style="opacity:0.004" fill="#000000" d="M 327.5,1004.5 C 328.833,1005.17 328.833,1005.17 327.5,1004.5 Z"/></g>
<g><path style="opacity:0.004" fill="#000000" d="M 595.5,1004.5 C 596.833,1005.17 596.833,1005.17 595.5,1004.5 Z"/></g>
<g><path style="opacity:0.004" fill="#000000" d="M 828.5,1004.5 C 829.833,1005.17 829.833,1005.17 828.5,1004.5 Z"/></g>
<g><path style="opacity:0.004" fill="#000000" d="M 303.5,1005.5 C 304.833,1006.17 304.833,1006.17 303.5,1005.5 Z"/></g>
<g><path style="opacity:0.004" fill="#000000" d="M 306.5,1006.5 C 307.833,1007.17 307.833,1007.17 306.5,1006.5 Z"/></g>
<g><path style="opacity:0.004" fill="#000000" d="M 335.5,1006.5 C 336.833,1007.17 336.833,1007.17 335.5,1006.5 Z"/></g>
<g><path style="opacity:0.004" fill="#000000" d="M 310.5,1009.5 C 311.833,1010.17 311.833,1010.17 310.5,1009.5 Z"/></g>
<g><path style="opacity:0.004" fill="#000000" d="M 333.5,1009.5 C 334.833,1010.17 334.833,1010.17 333.5,1009.5 Z"/></g>
<g><path style="opacity:0.004" fill="#000000" d="M 503.5,1009.5 C 504.833,1010.17 504.833,1010.17 503.5,1009.5 Z"/></g>
<g><path style="opacity:0.004" fill="#000000" d="M 615.5,1010.5 C 616.833,1011.17 616.833,1011.17 615.5,1010.5 Z"/></g>
<g><path style="opacity:0.004" fill="#000000" d="M 810.5,1010.5 C 811.833,1011.17 811.833,1011.17 810.5,1010.5 Z"/></g>
<g><path style="opacity:0.004" fill="#000000" d="M 912.5,1010.5 C 913.833,1011.17 913.833,1011.17 912.5,1010.5 Z"/></g>
<g><path style="opacity:0.004" fill="#000000" d="M 300.5,1011.5 C 301.833,1012.17 301.833,1012.17 300.5,1011.5 Z"/></g>
<g><path style="opacity:0.004" fill="#000000" d="M 804.5,1011.5 C 805.833,1012.17 805.833,1012.17 804.5,1011.5 Z"/></g>
<g><path style="opacity:0.004" fill="#000000" d="M 574.5,1012.5 C 575.833,1013.17 575.833,1013.17 574.5,1012.5 Z"/></g>
<g><path style="opacity:0.004" fill="#000000" d="M 744.5,1012.5 C 745.833,1013.17 745.833,1013.17 744.5,1012.5 Z"/></g>
<g><path style="opacity:0.87" fill="#000000" d="M 288.5,1035.5 C 295.167,1035.5 301.833,1035.5 308.5,1035.5C 308.643,1037.26 308.309,1038.93 307.5,1040.5C 303.217,1041.49 298.884,1041.83 294.5,1041.5C 294.739,1043.47 294.406,1045.3 293.5,1047C 297.486,1047.5 301.486,1047.67 305.5,1047.5C 305.643,1049.26 305.309,1050.93 304.5,1052.5C 300.555,1053.49 296.555,1053.82 292.5,1053.5C 292.296,1056.52 291.963,1059.52 291.5,1062.5C 288.753,1062.81 286.086,1062.48 283.5,1061.5C 285.382,1052.88 287.049,1044.21 288.5,1035.5 Z"/></g>
<g><path style="opacity:0.894" fill="#000000" d="M 325.5,1035.5 C 333.528,1035.17 341.528,1035.5 349.5,1036.5C 348.691,1038.07 348.357,1039.74 348.5,1041.5C 345.753,1041.19 343.086,1041.52 340.5,1042.5C 339.274,1048.85 337.941,1055.19 336.5,1061.5C 334.257,1062.47 331.924,1062.81 329.5,1062.5C 330.608,1055.52 331.608,1048.52 332.5,1041.5C 330.167,1041.5 327.833,1041.5 325.5,1041.5C 325.5,1039.5 325.5,1037.5 325.5,1035.5 Z"/></g>
<g><path style="opacity:0.873" fill="#000000" d="M 385.5,1035.5 C 392.5,1035.5 399.5,1035.5 406.5,1035.5C 406.739,1037.47 406.406,1039.3 405.5,1041C 400.845,1041.5 396.179,1041.67 391.5,1041.5C 391.5,1043.17 391.5,1044.83 391.5,1046.5C 395.5,1046.5 399.5,1046.5 403.5,1046.5C 403.167,1048.5 402.833,1050.5 402.5,1052.5C 398.167,1052.5 393.833,1052.5 389.5,1052.5C 389.5,1053.83 389.5,1055.17 389.5,1056.5C 394.167,1056.5 398.833,1056.5 403.5,1056.5C 403.167,1058.5 402.833,1060.5 402.5,1062.5C 395.137,1062.83 387.803,1062.5 380.5,1061.5C 382.382,1052.88 384.049,1044.21 385.5,1035.5 Z"/></g>
<g><path style="opacity:0.853" fill="#000000" d="M 418.5,1035.5 C 422.514,1035.33 426.514,1035.5 430.5,1036C 432.002,1036.58 433.335,1037.42 434.5,1038.5C 433.243,1040.68 431.743,1042.68 430,1044.5C 426.766,1041.52 423.266,1041.02 419.5,1043C 422.5,1045.23 425.833,1046.9 429.5,1048C 433.183,1054.55 431.517,1059.22 424.5,1062C 418.2,1063.42 412.534,1062.26 407.5,1058.5C 408.441,1056.23 409.774,1054.23 411.5,1052.5C 414.438,1055.97 418.104,1057.14 422.5,1056C 422.957,1055.59 423.291,1055.09 423.5,1054.5C 419.452,1052.64 415.619,1050.3 412,1047.5C 410.89,1041.63 413.057,1037.63 418.5,1035.5 Z"/></g>
<g><path style="opacity:0.853" fill="#000000" d="M 445.5,1035.5 C 449.514,1035.33 453.514,1035.5 457.5,1036C 459.002,1036.58 460.335,1037.42 461.5,1038.5C 460.243,1040.68 458.743,1042.68 457,1044.5C 453.766,1041.52 450.266,1041.02 446.5,1043C 449.5,1045.23 452.833,1046.9 456.5,1048C 460.183,1054.55 458.517,1059.22 451.5,1062C 445.2,1063.42 439.534,1062.26 434.5,1058.5C 435.441,1056.23 436.774,1054.23 438.5,1052.5C 441.438,1055.97 445.104,1057.14 449.5,1056C 449.957,1055.59 450.291,1055.09 450.5,1054.5C 446.452,1052.64 442.619,1050.3 439,1047.5C 437.89,1041.63 440.057,1037.63 445.5,1035.5 Z"/></g>
<g><path style="opacity:0.878" fill="#000000" d="M 596.5,1035.5 C 612.543,1033.95 617.71,1040.62 612,1055.5C 605.356,1062.96 597.522,1064.46 588.5,1060C 582.845,1049.13 585.511,1040.97 596.5,1035.5 Z M 598.5,1041.5 C 607.159,1042.14 609.159,1046.14 604.5,1053.5C 599.146,1058.09 595.146,1057.09 592.5,1050.5C 593.286,1046.57 595.286,1043.57 598.5,1041.5 Z"/></g>
<g><path style="opacity:0.894" fill="#000000" d="M 675.5,1035.5 C 683.528,1035.17 691.528,1035.5 699.5,1036.5C 698.691,1038.07 698.357,1039.74 698.5,1041.5C 695.753,1041.19 693.086,1041.52 690.5,1042.5C 689.274,1048.85 687.941,1055.19 686.5,1061.5C 684.257,1062.47 681.924,1062.81 679.5,1062.5C 680.608,1055.52 681.608,1048.52 682.5,1041.5C 680.167,1041.5 677.833,1041.5 675.5,1041.5C 675.5,1039.5 675.5,1037.5 675.5,1035.5 Z"/></g>
<g><path style="opacity:0.878" fill="#000000" d="M 725.5,1035.5 C 741.543,1033.95 746.71,1040.62 741,1055.5C 734.356,1062.96 726.522,1064.46 717.5,1060C 711.845,1049.13 714.511,1040.97 725.5,1035.5 Z M 727.5,1041.5 C 736.159,1042.14 738.159,1046.14 733.5,1053.5C 728.146,1058.09 724.146,1057.09 721.5,1050.5C 722.286,1046.57 724.286,1043.57 727.5,1041.5 Z"/></g>
<g><path style="opacity:0.894" fill="#000000" d="M 823.5,1035.5 C 831.528,1035.17 839.528,1035.5 847.5,1036.5C 846.691,1038.07 846.357,1039.74 846.5,1041.5C 843.753,1041.19 841.086,1041.52 838.5,1042.5C 837.274,1048.85 835.941,1055.19 834.5,1061.5C 832.257,1062.47 829.924,1062.81 827.5,1062.5C 828.608,1055.52 829.608,1048.52 830.5,1041.5C 828.167,1041.5 825.833,1041.5 823.5,1041.5C 823.5,1039.5 823.5,1037.5 823.5,1035.5 Z"/></g>
<g><path style="opacity:0.88" fill="#000000" d="M 851.5,1035.5 C 858.373,1034.97 865.04,1035.8 871.5,1038C 873.978,1041.68 874.144,1045.52 872,1049.5C 870.315,1051.02 868.815,1052.68 867.5,1054.5C 868.695,1056.75 869.695,1059.08 870.5,1061.5C 864.044,1064.32 860.711,1062.32 860.5,1055.5C 858.833,1055.5 857.167,1055.5 855.5,1055.5C 855.007,1057.81 854.674,1060.14 854.5,1062.5C 851.753,1062.81 849.086,1062.48 846.5,1061.5C 848.382,1052.88 850.049,1044.21 851.5,1035.5 Z M 857.5,1041.5 C 861.122,1040.92 864.122,1041.92 866.5,1044.5C 864.587,1048.79 861.254,1050.46 856.5,1049.5C 857.092,1046.87 857.425,1044.21 857.5,1041.5 Z"/></g>
<g><path style="opacity:0.853" fill="#000000" d="M 950.5,1035.5 C 954.514,1035.33 958.514,1035.5 962.5,1036C 964.002,1036.58 965.335,1037.42 966.5,1038.5C 965.243,1040.68 963.743,1042.68 962,1044.5C 958.766,1041.52 955.266,1041.02 951.5,1043C 954.5,1045.23 957.833,1046.9 961.5,1048C 965.183,1054.55 963.517,1059.22 956.5,1062C 950.2,1063.42 944.534,1062.26 939.5,1058.5C 940.441,1056.23 941.774,1054.23 943.5,1052.5C 946.438,1055.97 950.104,1057.14 954.5,1056C 954.957,1055.59 955.291,1055.09 955.5,1054.5C 951.452,1052.64 947.619,1050.3 944,1047.5C 942.89,1041.63 945.057,1037.63 950.5,1035.5 Z"/></g>
<g><path style="opacity:0.87" fill="#000000" d="M 972.5,1035.5 C 979.167,1035.5 985.833,1035.5 992.5,1035.5C 992.643,1037.26 992.309,1038.93 991.5,1040.5C 987.217,1041.49 982.884,1041.83 978.5,1041.5C 978.739,1043.47 978.406,1045.3 977.5,1047C 981.486,1047.5 985.486,1047.67 989.5,1047.5C 989.643,1049.26 989.309,1050.93 988.5,1052.5C 984.555,1053.49 980.555,1053.82 976.5,1053.5C 976.296,1056.52 975.963,1059.52 975.5,1062.5C 972.753,1062.81 970.086,1062.48 967.5,1061.5C 969.382,1052.88 971.049,1044.21 972.5,1035.5 Z"/></g>
<g><path style="opacity:0.878" fill="#000000" d="M 1004.5,1035.5 C 1020.54,1033.95 1025.71,1040.62 1020,1055.5C 1013.36,1062.96 1005.52,1064.46 996.5,1060C 990.845,1049.13 993.511,1040.97 1004.5,1035.5 Z M 1006.5,1041.5 C 1015.16,1042.14 1017.16,1046.14 1012.5,1053.5C 1007.15,1058.09 1003.15,1057.09 1000.5,1050.5C 1001.29,1046.57 1003.29,1043.57 1006.5,1041.5 Z"/></g>
<g><path style="opacity:0.88" fill="#000000" d="M 1030.5,1035.5 C 1037.37,1034.97 1044.04,1035.8 1050.5,1038C 1052.98,1041.68 1053.14,1045.52 1051,1049.5C 1049.31,1051.02 1047.81,1052.68 1046.5,1054.5C 1047.69,1056.75 1048.69,1059.08 1049.5,1061.5C 1043.04,1064.32 1039.71,1062.32 1039.5,1055.5C 1037.83,1055.5 1036.17,1055.5 1034.5,1055.5C 1034.01,1057.81 1033.67,1060.14 1033.5,1062.5C 1030.75,1062.81 1028.09,1062.48 1025.5,1061.5C 1027.38,1052.88 1029.05,1044.21 1030.5,1035.5 Z M 1036.5,1041.5 C 1040.12,1040.92 1043.12,1041.92 1045.5,1044.5C 1043.59,1048.79 1040.25,1050.46 1035.5,1049.5C 1036.09,1046.87 1036.42,1044.21 1036.5,1041.5 Z"/></g>
<g><path style="opacity:0.874" fill="#000000" d="M 1060.5,1035.5 C 1063.45,1035.22 1066.28,1035.56 1069,1036.5C 1069.87,1040.98 1071.2,1045.32 1073,1049.5C 1075.96,1045.08 1078.79,1040.58 1081.5,1036C 1084.5,1035.33 1087.5,1035.33 1090.5,1036C 1088.46,1044.74 1086.79,1053.57 1085.5,1062.5C 1083.08,1062.81 1080.74,1062.47 1078.5,1061.5C 1082.09,1046.52 1080.59,1045.85 1074,1059.5C 1072.19,1060.76 1070.35,1060.76 1068.5,1059.5C 1067.49,1055.78 1066.32,1052.11 1065,1048.5C 1064.23,1053.19 1063.39,1057.86 1062.5,1062.5C 1060.08,1062.81 1057.74,1062.47 1055.5,1061.5C 1057.38,1052.88 1059.05,1044.21 1060.5,1035.5 Z"/></g>
<g><path style="opacity:0.894" fill="#000000" d="M 1122.5,1035.5 C 1130.53,1035.17 1138.53,1035.5 1146.5,1036.5C 1145.69,1038.07 1145.36,1039.74 1145.5,1041.5C 1142.75,1041.19 1140.09,1041.52 1137.5,1042.5C 1136.27,1048.85 1134.94,1055.19 1133.5,1061.5C 1131.26,1062.47 1128.92,1062.81 1126.5,1062.5C 1127.61,1055.52 1128.61,1048.52 1129.5,1041.5C 1127.17,1041.5 1124.83,1041.5 1122.5,1041.5C 1122.5,1039.5 1122.5,1037.5 1122.5,1035.5 Z"/></g>
<g><path style="opacity:0.878" fill="#000000" d="M 1172.5,1035.5 C 1188.54,1033.95 1193.71,1040.62 1188,1055.5C 1181.36,1062.96 1173.52,1064.46 1164.5,1060C 1158.84,1049.13 1161.51,1040.97 1172.5,1035.5 Z M 1174.5,1041.5 C 1183.16,1042.14 1185.16,1046.14 1180.5,1053.5C 1175.15,1058.09 1171.15,1057.09 1168.5,1050.5C 1169.29,1046.57 1171.29,1043.57 1174.5,1041.5 Z"/></g>
<g><path style="opacity:0.884" fill="#000000" d="M 313.5,1036.5 C 315.833,1036.5 318.167,1036.5 320.5,1036.5C 319.167,1045.17 317.834,1053.83 316.5,1062.5C 313.753,1062.81 311.086,1062.48 308.5,1061.5C 310.275,1053.18 311.942,1044.85 313.5,1036.5 Z"/></g>
<g><path style="opacity:0.89" fill="#000000" d="M 353.5,1036.5 C 355.857,1036.34 358.19,1036.5 360.5,1037C 363,1041.5 365.5,1046 368,1050.5C 369.375,1046.28 370.542,1041.95 371.5,1037.5C 373.833,1036.17 376.167,1036.17 378.5,1037.5C 376.776,1045.68 375.109,1053.85 373.5,1062C 371.098,1062.81 368.765,1062.65 366.5,1061.5C 363.8,1057.3 361.3,1052.96 359,1048.5C 357.493,1052.7 356.493,1057.03 356,1061.5C 353.534,1062.78 351.034,1062.78 348.5,1061.5C 350.275,1053.18 351.942,1044.85 353.5,1036.5 Z"/></g>
<g><path style="opacity:0.884" fill="#000000" d="M 510.5,1036.5 C 512.833,1036.5 515.167,1036.5 517.5,1036.5C 516.167,1045.17 514.834,1053.83 513.5,1062.5C 510.753,1062.81 508.086,1062.48 505.5,1061.5C 507.275,1053.18 508.942,1044.85 510.5,1036.5 Z"/></g>
<g><path style="opacity:0.89" fill="#000000" d="M 524.5,1036.5 C 526.857,1036.34 529.19,1036.5 531.5,1037C 534,1041.5 536.5,1046 539,1050.5C 540.375,1046.28 541.542,1041.95 542.5,1037.5C 544.833,1036.17 547.167,1036.17 549.5,1037.5C 547.776,1045.68 546.109,1053.85 544.5,1062C 542.098,1062.81 539.765,1062.65 537.5,1061.5C 534.8,1057.3 532.3,1052.96 530,1048.5C 528.493,1052.7 527.493,1057.03 527,1061.5C 524.534,1062.78 522.034,1062.78 519.5,1061.5C 521.275,1053.18 522.942,1044.85 524.5,1036.5 Z"/></g>
<g><path style="opacity:0.89" fill="#000000" d="M 557.5,1036.5 C 559.857,1036.34 562.19,1036.5 564.5,1037C 567,1041.5 569.5,1046 572,1050.5C 573.375,1046.28 574.542,1041.95 575.5,1037.5C 577.833,1036.17 580.167,1036.17 582.5,1037.5C 580.776,1045.68 579.109,1053.85 577.5,1062C 575.098,1062.81 572.765,1062.65 570.5,1061.5C 567.8,1057.3 565.3,1052.96 563,1048.5C 561.493,1052.7 560.493,1057.03 560,1061.5C 557.534,1062.78 555.034,1062.78 552.5,1061.5C 554.275,1053.18 555.942,1044.85 557.5,1036.5 Z"/></g>
<g><path style="opacity:0.869" fill="#000000" d="M 618.5,1036.5 C 621.247,1036.19 623.914,1036.52 626.5,1037.5C 627.559,1042.85 628.725,1048.18 630,1053.5C 633.088,1048.33 635.921,1042.99 638.5,1037.5C 641.167,1036.17 643.833,1036.17 646.5,1037.5C 641.707,1045.59 637.04,1053.75 632.5,1062C 629.571,1062.78 626.737,1062.61 624,1061.5C 622.227,1053.13 620.394,1044.8 618.5,1036.5 Z"/></g>
<g><path style="opacity:0.896" fill="#000000" d="M 657.5,1036.5 C 660.247,1036.19 662.914,1036.52 665.5,1037.5C 667.974,1045.73 669.974,1054.06 671.5,1062.5C 668.833,1062.5 666.167,1062.5 663.5,1062.5C 663.5,1060.83 663.5,1059.17 663.5,1057.5C 659.818,1057.33 656.152,1057.5 652.5,1058C 650.055,1062.12 646.389,1063.45 641.5,1062C 646.969,1053.56 652.303,1045.06 657.5,1036.5 Z M 659.5,1044.5 C 660.768,1046.91 661.435,1049.57 661.5,1052.5C 659.473,1052.66 657.473,1052.5 655.5,1052C 657.494,1049.84 658.828,1047.34 659.5,1044.5 Z"/></g>
<g><path style="opacity:0.884" fill="#000000" d="M 703.5,1036.5 C 705.833,1036.5 708.167,1036.5 710.5,1036.5C 709.167,1045.17 707.834,1053.83 706.5,1062.5C 703.753,1062.81 701.086,1062.48 698.5,1061.5C 700.275,1053.18 701.942,1044.85 703.5,1036.5 Z"/></g>
<g><path style="opacity:0.89" fill="#000000" d="M 751.5,1036.5 C 753.857,1036.34 756.19,1036.5 758.5,1037C 761,1041.5 763.5,1046 766,1050.5C 767.375,1046.28 768.542,1041.95 769.5,1037.5C 771.833,1036.17 774.167,1036.17 776.5,1037.5C 774.776,1045.68 773.109,1053.85 771.5,1062C 769.098,1062.81 766.765,1062.65 764.5,1061.5C 761.8,1057.3 759.3,1052.96 757,1048.5C 755.493,1052.7 754.493,1057.03 754,1061.5C 751.534,1062.78 749.034,1062.78 746.5,1061.5C 748.275,1053.18 749.942,1044.85 751.5,1036.5 Z"/></g>
<g><path style="opacity:0.896" fill="#000000" d="M 889.5,1036.5 C 892.247,1036.19 894.914,1036.52 897.5,1037.5C 899.974,1045.73 901.974,1054.06 903.5,1062.5C 900.833,1062.5 898.167,1062.5 895.5,1062.5C 895.5,1060.83 895.5,1059.17 895.5,1057.5C 891.818,1057.33 888.152,1057.5 884.5,1058C 882.055,1062.12 878.389,1063.45 873.5,1062C 878.969,1053.56 884.303,1045.06 889.5,1036.5 Z M 891.5,1044.5 C 892.768,1046.91 893.435,1049.57 893.5,1052.5C 891.473,1052.66 889.473,1052.5 887.5,1052C 889.494,1049.84 890.828,1047.34 891.5,1044.5 Z"/></g>
<g><path style="opacity:0.89" fill="#000000" d="M 913.5,1036.5 C 915.857,1036.34 918.19,1036.5 920.5,1037C 923,1041.5 925.5,1046 928,1050.5C 929.375,1046.28 930.542,1041.95 931.5,1037.5C 933.833,1036.17 936.167,1036.17 938.5,1037.5C 936.776,1045.68 935.109,1053.85 933.5,1062C 931.098,1062.81 928.765,1062.65 926.5,1061.5C 923.8,1057.3 921.3,1052.96 919,1048.5C 917.493,1052.7 916.493,1057.03 916,1061.5C 913.534,1062.78 911.034,1062.78 908.5,1061.5C 910.275,1053.18 911.942,1044.85 913.5,1036.5 Z"/></g>
<g><path style="opacity:0.896" fill="#000000" d="M 1104.5,1036.5 C 1107.25,1036.19 1109.91,1036.52 1112.5,1037.5C 1114.97,1045.73 1116.97,1054.06 1118.5,1062.5C 1115.83,1062.5 1113.17,1062.5 1110.5,1062.5C 1110.5,1060.83 1110.5,1059.17 1110.5,1057.5C 1106.82,1057.33 1103.15,1057.5 1099.5,1058C 1097.06,1062.12 1093.39,1063.45 1088.5,1062C 1093.97,1053.56 1099.3,1045.06 1104.5,1036.5 Z M 1106.5,1044.5 C 1107.77,1046.91 1108.43,1049.57 1108.5,1052.5C 1106.47,1052.66 1104.47,1052.5 1102.5,1052C 1104.49,1049.84 1105.83,1047.34 1106.5,1044.5 Z"/></g>
<g><path style="opacity:0.884" fill="#000000" d="M 1150.5,1036.5 C 1152.83,1036.5 1155.17,1036.5 1157.5,1036.5C 1156.17,1045.17 1154.83,1053.83 1153.5,1062.5C 1150.75,1062.81 1148.09,1062.48 1145.5,1061.5C 1147.28,1053.18 1148.94,1044.85 1150.5,1036.5 Z"/></g>
<g><path style="opacity:0.89" fill="#000000" d="M 1198.5,1036.5 C 1200.86,1036.34 1203.19,1036.5 1205.5,1037C 1208,1041.5 1210.5,1046 1213,1050.5C 1214.38,1046.28 1215.54,1041.95 1216.5,1037.5C 1218.83,1036.17 1221.17,1036.17 1223.5,1037.5C 1221.78,1045.68 1220.11,1053.85 1218.5,1062C 1216.1,1062.81 1213.76,1062.65 1211.5,1061.5C 1208.8,1057.3 1206.3,1052.96 1204,1048.5C 1202.49,1052.7 1201.49,1057.03 1201,1061.5C 1198.53,1062.78 1196.03,1062.78 1193.5,1061.5C 1195.28,1053.18 1196.94,1044.85 1198.5,1036.5 Z"/></g>
<g><path style="opacity:0.862" fill="#000000" d="M 481.5,1041.5 C 483.199,1041.34 484.866,1041.51 486.5,1042C 485.577,1044.04 485.244,1046.21 485.5,1048.5C 487.604,1048.2 489.604,1048.53 491.5,1049.5C 491.167,1050.17 490.833,1050.83 490.5,1051.5C 484.956,1051.44 482.623,1054.11 483.5,1059.5C 481.833,1059.5 480.167,1059.5 478.5,1059.5C 478.318,1057.41 478.652,1055.41 479.5,1053.5C 477.604,1052.53 475.604,1052.2 473.5,1052.5C 473.5,1051.17 473.5,1049.83 473.5,1048.5C 475.833,1048.5 478.167,1048.5 480.5,1048.5C 480.298,1046.05 480.631,1043.72 481.5,1041.5 Z"/></g>
<g><path style="opacity:0.965" fill="#000000" d="M 790.5,1044.5 C 796.167,1044.5 801.833,1044.5 807.5,1044.5C 807.5,1045.83 807.5,1047.17 807.5,1048.5C 801.491,1048.67 795.491,1048.5 789.5,1048C 790.337,1046.99 790.67,1045.82 790.5,1044.5 Z"/></g>
<g><path style="opacity:0.938" fill="#000000" d="M 788.5,1052.5 C 794.5,1052.5 800.5,1052.5 806.5,1052.5C 806.67,1053.82 806.337,1054.99 805.5,1056C 799.843,1056.5 794.176,1056.67 788.5,1056.5C 788.5,1055.17 788.5,1053.83 788.5,1052.5 Z"/></g>
</svg>
