<?xml version="1.0" encoding="UTF-8"?>
<!DOCTYPE svg PUBLIC "-//W3C//DTD SVG 1.1//EN" "http://www.w3.org/Graphics/SVG/1.1/DTD/svg11.dtd">
<svg xmlns="http://www.w3.org/2000/svg" version="1.1" width="1500px" height="1500px" style="shape-rendering:geometricPrecision; text-rendering:geometricPrecision; image-rendering:optimizeQuality; fill-rule:evenodd; clip-rule:evenodd" xmlns:xlink="http://www.w3.org/1999/xlink">
<g><path style="opacity:0.995" fill="#000001" d="M 1003.5,453.5 C 1002.45,453.351 1001.45,453.517 1000.5,454C 1001.38,454.708 1002.05,455.542 1002.5,456.5C 1002.5,457.167 1002.17,457.5 1001.5,457.5C 1000.11,456.386 998.615,455.386 997,454.5C 999.689,463.069 1002.86,471.569 1006.5,480C 1005.33,480.353 1004.16,480.187 1003,479.5C 1001.44,480.102 1001.6,480.935 1003.5,482C 1001.79,482.195 1000.13,482.195 998.5,482C 1005.09,485.45 1011.09,489.616 1016.5,494.5C 1016.83,495.167 1017.17,495.833 1017.5,496.5C 1012.49,498.928 1007.16,500.762 1001.5,502C 1007.29,509.362 1006.63,515.862 999.5,521.5C 998.285,522.779 998.618,523.779 1000.5,524.5C 1000.72,527.279 1000.39,529.946 999.5,532.5C 995.833,532.833 993.833,534.833 993.5,538.5C 993.077,539.265 992.743,540.098 992.5,541C 997.434,547.535 1000.43,554.868 1001.5,563C 999.086,582.754 988.086,591.087 968.5,588C 952.711,581.538 937.877,573.371 924,563.5C 920.9,570.866 917.4,578.033 913.5,585C 927.406,592.905 938.739,603.572 947.5,617C 964.148,620.882 980.148,626.549 995.5,634C 1005.95,639.614 1014.28,647.448 1020.5,657.5C 1021.32,659.14 1022.15,660.807 1023,662.5C 1033.8,671.164 1042.96,681.164 1050.5,692.5C 1063.65,714.26 1063.82,736.26 1051,758.5C 1045.87,765.963 1040.37,773.129 1034.5,780C 1043.86,798.928 1050.53,818.761 1054.5,839.5C 1055.81,842.811 1058.14,845.145 1061.5,846.5C 1077.05,860.248 1087.55,877.248 1093,897.5C 1097.67,923.714 1101.51,950.047 1104.5,976.5C 1074.17,976.5 1043.83,976.5 1013.5,976.5C 1017.92,960.339 1017.42,944.339 1012,928.5C 1011.09,926.336 1009.92,924.336 1008.5,922.5C 1006.15,924.705 1004.15,927.205 1002.5,930C 1005.89,936.052 1007.23,942.552 1006.5,949.5C 1006.57,958.732 1005.24,967.732 1002.5,976.5C 972.5,976.5 942.5,976.5 912.5,976.5C 900.011,975.505 887.344,975.171 874.5,975.5C 874.768,973.901 874.434,972.568 873.5,971.5C 872.035,954.604 866.868,938.937 858,924.5C 848.022,910.025 836.189,897.358 822.5,886.5C 779.38,797.591 736.214,708.591 693,619.5C 692.333,611.167 692.333,602.833 693,594.5C 701.515,585.837 710.682,578.004 720.5,571C 742.585,557.876 764.418,544.376 786,530.5C 794.399,506.637 802.399,482.637 810,458.5C 810.667,449.5 810.667,440.5 810,431.5C 808.11,424.062 805.944,416.729 803.5,409.5C 807.167,382.496 819.001,359.83 839,341.5C 838.238,330.428 843.405,325.095 854.5,325.5C 856.538,322.145 859.538,320.312 863.5,320C 866.429,319.223 869.263,319.39 872,320.5C 880.406,309.076 890.573,307.41 902.5,315.5C 907.896,312.827 913.563,311.994 919.5,313C 921.213,314.378 922.547,316.045 923.5,318C 928.238,318.3 932.904,317.8 937.5,316.5C 941.122,318.787 944.455,321.453 947.5,324.5C 956.162,319.519 963.662,320.852 970,328.5C 972.062,330.901 973.729,333.567 975,336.5C 989.755,331.295 999.921,335.962 1005.5,350.5C 1012.45,351.784 1016.78,355.784 1018.5,362.5C 1017.96,364.942 1017.13,367.275 1016,369.5C 1010.65,375.353 1005.48,381.353 1000.5,387.5C 1002.28,391.39 1003.78,395.39 1005,399.5C 1006.68,409.235 1008.68,418.901 1011,428.5C 1020.3,440.474 1017.8,448.807 1003.5,453.5 Z"/></g>
<g><path style="opacity:0.999" fill="#2da2ea" d="M 983.5,420.5 C 980.921,417.865 977.921,415.699 974.5,414C 974.728,413.601 975.062,413.435 975.5,413.5C 978.265,413.798 980.765,414.798 983,416.5C 974.839,399.11 963.339,383.944 948.5,371C 964.796,372.431 980.129,377.098 994.5,385C 996.712,387.921 998.545,391.088 1000,394.5C 1003.41,405.317 1006.08,416.317 1008,427.5C 1009.23,430.732 1011.23,433.399 1014,435.5C 1016.18,440.516 1014.84,444.516 1010,447.5C 1010.58,443.832 1010.41,440.166 1009.5,436.5C 1008.03,437.381 1007.2,438.714 1007,440.5C 999.6,433.233 991.767,426.566 983.5,420.5 Z"/></g>
<g><path style="opacity:1" fill="#2995d7" d="M 869.5,406.5 C 873.599,406.367 877.266,407.533 880.5,410C 883.547,413.925 886.714,417.759 890,421.5C 890.818,424.227 890.652,426.894 889.5,429.5C 886.186,420.691 880.352,414.358 872,410.5C 865.518,412.414 861.518,416.748 860,423.5C 858.019,436.279 860.852,447.779 868.5,458C 872.204,460.852 876.204,463.185 880.5,465C 872.761,465.213 866.595,462.046 862,455.5C 856.339,443.675 855.006,431.342 858,418.5C 860.045,412.624 863.878,408.624 869.5,406.5 Z"/></g>
<g><path style="opacity:1" fill="#11212e" d="M 975.5,413.5 C 975.062,413.435 974.728,413.601 974.5,414C 977.921,415.699 980.921,417.865 983.5,420.5C 982.85,420.804 982.183,421.137 981.5,421.5C 978.632,419.468 975.632,417.635 972.5,416C 972.5,415 972.5,414 972.5,413C 973.749,412.26 974.749,412.427 975.5,413.5 Z"/></g>
<g><path style="opacity:1" fill="#268ccb" d="M 868.5,427.5 C 869.552,427.351 870.552,427.517 871.5,428C 865.732,435.415 866.565,442.249 874,448.5C 875.301,450.402 875.968,452.402 876,454.5C 871.861,450.369 868.528,445.702 866,440.5C 864.842,435.693 865.676,431.36 868.5,427.5 Z"/></g>
<g><path style="opacity:0.135" fill="#2895d8" d="M 1003.5,453.5 C 1003.5,454.5 1003.5,455.5 1003.5,456.5C 1003.17,456.5 1002.83,456.5 1002.5,456.5C 1002.05,455.542 1001.38,454.708 1000.5,454C 1001.45,453.517 1002.45,453.351 1003.5,453.5 Z"/></g>
<g><path style="opacity:1" fill="#299ae0" d="M 976.5,489.5 C 975.833,485.167 975.167,480.833 974.5,476.5C 973.904,466.38 970.904,457.047 965.5,448.5C 965.833,448.167 966.167,447.833 966.5,447.5C 972.061,453.278 978.727,456.945 986.5,458.5C 985.171,469.486 981.838,479.82 976.5,489.5 Z"/></g>
<g><path style="opacity:0.082" fill="#268ccd" d="M 1003.5,456.5 C 1004.91,456.973 1005.57,457.973 1005.5,459.5C 1004.09,459.027 1003.43,458.027 1003.5,456.5 Z"/></g>
<g><path style="opacity:0.998" fill="#020202" d="M 528.5,479.5 C 591.545,479.015 654.545,479.515 717.5,481C 728.784,486.404 732.951,495.237 730,507.5C 726.952,514.947 721.452,519.447 713.5,521C 703.506,521.5 693.506,521.666 683.5,521.5C 683.333,554.835 683.5,588.168 684,621.5C 741.038,739.743 798.205,857.91 855.5,976C 699.5,976.5 543.5,976.667 387.5,976.5C 444.104,857.289 501.271,738.289 559,619.5C 559.5,586.835 559.667,554.168 559.5,521.5C 549.161,521.666 538.828,521.5 528.5,521C 513.489,516.482 508.322,506.649 513,491.5C 516.594,485.399 521.761,481.399 528.5,479.5 Z M 640.5,521.5 C 640.333,557.502 640.5,593.502 641,629.5C 641.513,630.527 642.013,631.527 642.5,632.5C 690.928,733.021 739.594,833.354 788.5,933.5C 677.001,934.499 565.335,934.833 453.5,934.5C 502.77,832.96 551.77,731.293 600.5,629.5C 601.498,593.671 601.832,557.671 601.5,521.5C 614.5,521.5 627.5,521.5 640.5,521.5 Z M 612.5,585.5 C 620.687,586.54 623.187,590.873 620,598.5C 616,602.5 612,602.5 608,598.5C 605.095,592.509 606.595,588.176 612.5,585.5 Z M 623.5,656.5 C 629.629,655.555 633.296,658.055 634.5,664C 632.37,671.479 627.87,673.312 621,669.5C 617.938,664.496 618.771,660.163 623.5,656.5 Z"/></g>
<g><path style="opacity:0.072" fill="#2795da" d="M 1015.5,479.5 C 1017.07,481.509 1018.07,483.843 1018.5,486.5C 1016.55,484.68 1015.55,482.346 1015.5,479.5 Z"/></g>
<g><path style="opacity:1" fill="#268fd0" d="M 1001.5,457.5 C 1008.18,465.68 1012.18,474.847 1013.5,485C 1016.6,486.268 1018.27,488.601 1018.5,492C 1018.36,493.301 1017.69,494.134 1016.5,494.5C 1011.09,489.616 1005.09,485.45 998.5,482C 1000.13,482.195 1001.79,482.195 1003.5,482C 1001.6,480.935 1001.44,480.102 1003,479.5C 1004.16,480.187 1005.33,480.353 1006.5,480C 1002.86,471.569 999.689,463.069 997,454.5C 998.615,455.386 1000.11,456.386 1001.5,457.5 Z"/></g>
<g><path style="opacity:1" fill="#16547b" d="M 974.5,476.5 C 975.167,480.833 975.833,485.167 976.5,489.5C 976.217,490.289 975.717,490.956 975,491.5C 974.501,486.511 974.334,481.511 974.5,476.5 Z"/></g>
<g><path style="opacity:0.749" fill="#122f43" d="M 1002.5,456.5 C 1002.83,456.5 1003.17,456.5 1003.5,456.5C 1003.43,458.027 1004.09,459.027 1005.5,459.5C 1009.36,465.88 1012.69,472.547 1015.5,479.5C 1015.55,482.346 1016.55,484.68 1018.5,486.5C 1021.43,490.243 1021.09,493.576 1017.5,496.5C 1017.17,495.833 1016.83,495.167 1016.5,494.5C 1017.69,494.134 1018.36,493.301 1018.5,492C 1018.27,488.601 1016.6,486.268 1013.5,485C 1012.18,474.847 1008.18,465.68 1001.5,457.5C 1002.17,457.5 1002.5,457.167 1002.5,456.5 Z"/></g>
<g><path style="opacity:0.455" fill="#4d4d4d" d="M 641.5,521.5 C 641.167,521.5 640.833,521.5 640.5,521.5C 627.5,521.5 614.5,521.5 601.5,521.5C 601.832,557.671 601.498,593.671 600.5,629.5C 600.5,593.167 600.5,556.833 600.5,520.5C 614.344,520.171 628.01,520.504 641.5,521.5 Z"/></g>
<g><path style="opacity:0.153" fill="#2d2d2d" d="M 640.5,521.5 C 640.833,521.5 641.167,521.5 641.5,521.5C 641.333,557.168 641.5,592.835 642,628.5C 643.298,629.946 643.465,631.279 642.5,632.5C 642.013,631.527 641.513,630.527 641,629.5C 640.5,593.502 640.333,557.502 640.5,521.5 Z"/></g>
<g><path style="opacity:0.02" fill="#2286c5" d="M 999.5,521.5 C 1000.11,522.391 1000.44,523.391 1000.5,524.5C 998.618,523.779 998.285,522.779 999.5,521.5 Z"/></g>
<g><path style="opacity:0.988" fill="#238bcd" d="M 992.5,522.5 C 997.534,522.89 999.367,525.556 998,530.5C 995.9,527.949 994.067,525.283 992.5,522.5 Z"/></g>
<g><path style="opacity:0.155" fill="#2491d6" d="M 999.5,532.5 C 998.478,535.522 996.478,537.522 993.5,538.5C 993.833,534.833 995.833,532.833 999.5,532.5 Z"/></g>
<g><path style="opacity:1" fill="#2087ca" d="M 874.5,532.5 C 877.39,538.399 879.224,544.732 880,551.5C 881.865,568.445 882.865,585.445 883,602.5C 883.848,605.698 885.348,608.531 887.5,611C 885.583,610.973 883.916,610.139 882.5,608.5C 880.747,605.995 879.247,603.329 878,600.5C 878.135,577.743 876.968,555.076 874.5,532.5 Z"/></g>
<g><path style="opacity:1" fill="#2087ca" d="M 827.5,554.5 C 828.659,565.659 828.826,576.992 828,588.5C 825.036,592.466 821.703,596.133 818,599.5C 822.866,585.012 826.033,570.012 827.5,554.5 Z"/></g>
<g><path style="opacity:1" fill="#45d6dc" d="M 609.5,582.5 C 620.824,581.326 625.991,586.326 625,597.5C 617.667,608.167 610.333,608.167 603,597.5C 601.599,590.848 603.766,585.848 609.5,582.5 Z M 612.5,585.5 C 606.595,588.176 605.095,592.509 608,598.5C 612,602.5 616,602.5 620,598.5C 623.187,590.873 620.687,586.54 612.5,585.5 Z"/></g>
<g><path style="opacity:1" fill="#1e84c7" d="M 829.5,626.5 C 824.167,625.833 818.833,625.167 813.5,624.5C 827.918,618.396 842.585,617.896 857.5,623C 875.897,628.531 892.564,637.197 907.5,649C 883.265,635.936 857.265,628.436 829.5,626.5 Z"/></g>
<g><path style="opacity:0.999" fill="#1c7dbc" d="M 921.5,623.5 C 946.221,622.673 968.221,629.839 987.5,645C 965.663,632.622 941.996,626.289 916.5,626C 918.175,625.015 919.842,624.181 921.5,623.5 Z"/></g>
<g><path style="opacity:1" fill="#10466a" d="M 813.5,624.5 C 818.833,625.167 824.167,625.833 829.5,626.5C 823.491,626.666 817.491,626.499 811.5,626C 812.044,625.283 812.711,624.783 813.5,624.5 Z"/></g>
<g><path style="opacity:0.974" fill="#3dbcd0" d="M 623.5,652.5 C 630.773,651.611 635.606,654.611 638,661.5C 638.494,672.334 633.327,676.834 622.5,675C 616.092,671.677 613.925,666.511 616,659.5C 617.767,656.228 620.267,653.895 623.5,652.5 Z M 623.5,656.5 C 618.771,660.163 617.938,664.496 621,669.5C 627.87,673.312 632.37,671.479 634.5,664C 633.296,658.055 629.629,655.555 623.5,656.5 Z"/></g>
<g><path style="opacity:1" fill="#0d3b5a" d="M 975.5,653.5 C 973.901,653.232 972.568,653.566 971.5,654.5C 968.813,654.664 966.146,654.497 963.5,654C 963.833,653.667 964.167,653.333 964.5,653C 968.358,652.19 972.024,652.357 975.5,653.5 Z"/></g>
<g><path style="opacity:0.376" fill="#1b83c8" d="M 1020.5,657.5 C 1034.79,665.456 1044.79,677.123 1050.5,692.5C 1042.96,681.164 1033.8,671.164 1023,662.5C 1022.15,660.807 1021.32,659.14 1020.5,657.5 Z"/></g>
<g><path style="opacity:1" fill="#197dc1" d="M 971.5,654.5 C 972.568,653.566 973.901,653.232 975.5,653.5C 1002.76,658.042 1024.59,671.375 1041,693.5C 1050.51,709.073 1050.84,724.739 1042,740.5C 1038.55,744.145 1034.38,746.645 1029.5,748C 1022.42,748.884 1015.42,748.551 1008.5,747C 1016.95,746.517 1024.62,743.85 1031.5,739C 1034.2,735.962 1037.2,733.295 1040.5,731C 1038.79,730.805 1037.13,730.805 1035.5,731C 1040.56,728.376 1042.56,724.21 1041.5,718.5C 1040.09,707.679 1035.92,698.012 1029,689.5C 1013.93,671.053 994.768,659.386 971.5,654.5 Z"/></g>
<g><path style="opacity:1" fill="#1a83c8" d="M 890.5,657.5 C 909.371,655.731 924.871,662.065 937,676.5C 948.835,691.161 957.835,707.494 964,725.5C 965.798,730.689 966.631,736.022 966.5,741.5C 946.28,745.024 927.28,741.524 909.5,731C 915.523,731.528 921.523,732.528 927.5,734C 933.833,734.667 940.167,734.667 946.5,734C 941.046,730.88 936.546,726.713 933,721.5C 926.886,711.606 921.552,701.272 917,690.5C 906.803,673.493 892.97,669.659 875.5,679C 871.701,681.797 868.201,684.964 865,688.5C 866.783,682.673 870.283,677.84 875.5,674C 879.873,670.814 884.54,668.147 889.5,666C 885.389,664.109 881.056,663.109 876.5,663C 881.125,660.851 885.792,659.018 890.5,657.5 Z"/></g>
<g><path style="opacity:1" fill="#1a82c7" d="M 762.5,629.5 C 784.434,627.956 800.934,636.622 812,655.5C 816.32,664.125 819.653,673.125 822,682.5C 829.155,670.705 834.155,658.039 837,644.5C 837.471,676.751 828.137,705.751 809,731.5C 797.259,744.1 783.426,753.267 767.5,759C 780.549,751.878 792.049,742.711 802,731.5C 816.612,706.497 814.279,704.497 795,725.5C 795.843,720.462 796.843,715.462 798,710.5C 792.633,715.532 787.633,720.865 783,726.5C 784.64,718.591 786.307,710.591 788,702.5C 805.505,687.203 808.172,669.536 796,649.5C 783.859,635.668 768.692,630.501 750.5,634C 754.571,632.37 758.571,630.87 762.5,629.5 Z"/></g>
<g><path style="opacity:1" fill="#29a7c6" d="M 665.5,720.5 C 635.833,721.167 606.167,721.833 576.5,722.5C 578.812,715.707 581.812,709.207 585.5,703C 609.167,702.333 632.833,702.333 656.5,703C 659.641,708.782 662.641,714.615 665.5,720.5 Z"/></g>
<g><path style="opacity:1" fill="#25a0c3" d="M 665.5,720.5 C 668.221,725.663 670.554,730.996 672.5,736.5C 638.567,735.175 604.567,735.175 570.5,736.5C 570.145,737.522 569.478,738.189 568.5,738.5C 570.659,732.849 573.326,727.516 576.5,722.5C 606.167,721.833 635.833,721.167 665.5,720.5 Z"/></g>
<g><path style="opacity:1" fill="#2298bf" d="M 672.5,736.5 C 675.738,741.974 678.738,747.64 681.5,753.5C 659.474,752.844 637.808,753.511 616.5,755.5C 608.062,745.586 600.562,746.253 594,757.5C 593.444,759.885 593.61,762.218 594.5,764.5C 581.421,764.186 568.421,764.52 555.5,765.5C 559.597,756.309 563.93,747.309 568.5,738.5C 569.478,738.189 570.145,737.522 570.5,736.5C 604.567,735.175 638.567,735.175 672.5,736.5 Z"/></g>
<g><path style="opacity:1" fill="#edf6f9" d="M 616.5,755.5 C 618.501,766.665 613.834,772.165 602.5,772C 598.677,770.676 596.011,768.176 594.5,764.5C 593.61,762.218 593.444,759.885 594,757.5C 600.562,746.253 608.062,745.586 616.5,755.5 Z"/></g>
<g><path style="opacity:1" fill="#2a96bf" d="M 602.5,751.5 C 613.304,751.789 616.471,756.789 612,766.5C 604.068,771.12 598.901,768.954 596.5,760C 597.174,756.17 599.174,753.336 602.5,751.5 Z"/></g>
<g><path style="opacity:1" fill="#1476b9" d="M 968.5,763.5 C 969.822,763.33 970.989,763.663 972,764.5C 974.75,768.332 977.25,772.332 979.5,776.5C 979,776.833 978.5,777.167 978,777.5C 971.624,774.493 965.124,773.993 958.5,776C 963.05,778.883 966.55,782.716 969,787.5C 971.333,792.167 973.667,796.833 976,801.5C 977.525,804.72 978.192,808.053 978,811.5C 972.5,803.333 965.667,796.5 957.5,791C 959.207,790.805 960.874,790.805 962.5,791C 958.022,783.17 951.356,779.836 942.5,781C 938.832,782.683 935.165,784.016 931.5,785C 943.273,776.783 955.607,769.616 968.5,763.5 Z"/></g>
<g><path style="opacity:1" fill="#1d90bc" d="M 681.5,753.5 C 684.831,760.829 688.164,768.162 691.5,775.5C 645.234,774.838 598.901,774.172 552.5,773.5C 553.55,772.571 553.55,771.905 552.5,771.5C 552.992,769.181 553.992,767.181 555.5,765.5C 568.421,764.52 581.421,764.186 594.5,764.5C 596.011,768.176 598.677,770.676 602.5,772C 613.834,772.165 618.501,766.665 616.5,755.5C 637.808,753.511 659.474,752.844 681.5,753.5 Z"/></g>
<g><path style="opacity:1" fill="#1989b8" d="M 552.5,771.5 C 553.55,771.905 553.55,772.571 552.5,773.5C 598.901,774.172 645.234,774.838 691.5,775.5C 693.405,778.304 695.071,781.304 696.5,784.5C 646.384,786.488 596.05,787.155 545.5,786.5C 547.597,781.311 549.93,776.311 552.5,771.5 Z"/></g>
<g><path style="opacity:1" fill="#1985b7" d="M 696.5,784.5 C 698.831,789.829 701.164,795.162 703.5,800.5C 694.651,800.174 685.984,800.507 677.5,801.5C 664.955,793.942 653.288,794.942 642.5,804.5C 607.998,803.833 573.331,803.167 538.5,802.5C 539.55,801.571 539.55,800.905 538.5,800.5C 540.326,795.516 542.659,790.849 545.5,786.5C 596.05,787.155 646.384,786.488 696.5,784.5 Z"/></g>
<g><path style="opacity:1" fill="#1377bc" d="M 800.5,761.5 C 802.017,761.511 803.184,762.177 804,763.5C 815.314,778.421 822.981,795.087 827,813.5C 830.273,829.112 828.606,844.112 822,858.5C 812.617,835.023 803.617,811.356 795,787.5C 791.114,780.614 785.614,775.447 778.5,772C 783.227,769.422 788.227,767.422 793.5,766C 796.239,764.974 798.572,763.474 800.5,761.5 Z"/></g>
<g><path style="opacity:1" fill="#f7fafc" d="M 677.5,801.5 C 684.718,808.824 687.051,817.491 684.5,827.5C 681.049,835.953 675.049,841.62 666.5,844.5C 662.833,844.5 659.167,844.5 655.5,844.5C 645.559,840.993 639.559,833.993 637.5,823.5C 636.534,816.409 638.201,810.076 642.5,804.5C 653.288,794.942 664.955,793.942 677.5,801.5 Z"/></g>
<g><path style="opacity:1" fill="#157eb3" d="M 538.5,800.5 C 539.55,800.905 539.55,801.571 538.5,802.5C 573.331,803.167 607.998,803.833 642.5,804.5C 638.201,810.076 636.534,816.409 637.5,823.5C 636.539,821.735 636.205,819.735 636.5,817.5C 601.167,817.5 565.833,817.5 530.5,817.5C 532.93,811.643 535.597,805.977 538.5,800.5 Z"/></g>
<g><path style="opacity:1" fill="#1a80b4" d="M 678.5,824.5 C 678.5,822.167 678.5,819.833 678.5,817.5C 666.753,817.189 655.086,817.522 643.5,818.5C 647.657,803.589 656.99,799.089 671.5,805C 678.055,810.225 680.389,816.725 678.5,824.5 Z"/></g>
<g><path style="opacity:1" fill="#1477b0" d="M 530.5,817.5 C 565.833,817.5 601.167,817.5 636.5,817.5C 636.205,819.735 636.539,821.735 637.5,823.5C 639.559,833.993 645.559,840.993 655.5,844.5C 635.167,844.5 614.833,844.5 594.5,844.5C 582.964,828.784 568.297,825.284 550.5,834C 546.935,837.396 543.602,840.896 540.5,844.5C 532.833,844.5 525.167,844.5 517.5,844.5C 521.052,835.065 525.385,826.065 530.5,817.5 Z"/></g>
<g><path style="opacity:1" fill="#167db2" d="M 703.5,800.5 C 708.615,809.065 712.948,818.065 716.5,827.5C 705.833,826.167 695.167,826.167 684.5,827.5C 687.051,817.491 684.718,808.824 677.5,801.5C 685.984,800.507 694.651,800.174 703.5,800.5 Z"/></g>
<g><path style="opacity:1" fill="#1171b4" d="M 898.5,802.5 C 904.487,804.988 908.653,809.322 911,815.5C 914.803,826.718 912.47,836.385 904,844.5C 901.77,848.962 900.103,853.628 899,858.5C 898.667,853.833 898.333,849.167 898,844.5C 890.418,848.707 882.918,853.04 875.5,857.5C 875.167,857.333 874.833,857.167 874.5,857C 878.491,854.011 881.324,850.178 883,845.5C 884.943,838.306 885.943,830.973 886,823.5C 888.705,829.53 890.038,835.864 890,842.5C 895.321,836.55 898.321,829.55 899,821.5C 900.044,823.715 900.71,826.048 901,828.5C 903.156,824.738 903.823,820.738 903,816.5C 901.772,811.719 900.272,807.053 898.5,802.5 Z"/></g>
<g><path style="opacity:1" fill="#f8fafc" d="M 594.5,844.5 C 597.09,850.536 598.09,856.87 597.5,863.5C 594.787,874.873 588.121,882.873 577.5,887.5C 570.5,888.833 563.5,888.833 556.5,887.5C 547.227,882.889 541.227,875.556 538.5,865.5C 536.856,858.278 537.522,851.278 540.5,844.5C 543.602,840.896 546.935,837.396 550.5,834C 568.297,825.284 582.964,828.784 594.5,844.5 Z"/></g>
<g><path style="opacity:1" fill="#1879b1" d="M 678.5,824.5 C 675.376,834.759 668.376,839.259 657.5,838C 647.821,835.154 643.154,828.654 643.5,818.5C 655.086,817.522 666.753,817.189 678.5,817.5C 678.5,819.833 678.5,822.167 678.5,824.5 Z"/></g>
<g><path style="opacity:1" fill="#1274ae" d="M 716.5,827.5 C 719.405,832.307 722.072,837.307 724.5,842.5C 705.401,844.468 686.068,845.135 666.5,844.5C 675.049,841.62 681.049,835.953 684.5,827.5C 695.167,826.167 705.833,826.167 716.5,827.5 Z"/></g>
<g><path style="opacity:1" fill="#1071b4" d="M 984.5,766.5 C 995.905,765.358 1005.91,768.525 1014.5,776C 1029.02,790.888 1035.19,808.722 1033,829.5C 1030.93,838.7 1028.27,847.7 1025,856.5C 1029.34,883.147 1019.84,902.814 996.5,915.5C 996.167,915.333 995.833,915.167 995.5,915C 1012.62,899.475 1018.62,880.308 1013.5,857.5C 1026.59,836.561 1023.59,818.394 1004.5,803C 999.728,800.41 994.728,798.41 989.5,797C 999.18,794.72 1007.85,796.886 1015.5,803.5C 1014.89,800.499 1013.22,797.666 1010.5,795C 1010.83,794.833 1011.17,794.667 1011.5,794.5C 1018.57,800.287 1023.4,807.62 1026,816.5C 1025.55,799.767 1018.38,786.6 1004.5,777C 998.782,773.225 992.616,770.392 986,768.5C 984.97,768.164 984.47,767.497 984.5,766.5 Z"/></g>
<g><path style="opacity:1" fill="#0f70b4" d="M 952.5,819.5 C 965.017,819.358 974.183,825.025 980,836.5C 982.835,845.84 981.501,854.507 976,862.5C 975.897,873.656 974.564,884.656 972,895.5C 969.82,903.208 965.653,909.541 959.5,914.5C 959.167,914.333 958.833,914.167 958.5,914C 967.465,901.117 968.632,887.617 962,873.5C 960.833,872.333 959.667,871.167 958.5,870C 948.325,869.965 938.325,868.631 928.5,866C 938.826,866.251 948.826,864.585 958.5,861C 966.021,855.782 968.855,848.616 967,839.5C 964.324,831.1 959.49,824.433 952.5,819.5 Z"/></g>
<g><path style="opacity:0.059" fill="#0f6cac" d="M 1054.5,839.5 C 1057.21,841.548 1059.55,843.882 1061.5,846.5C 1058.14,845.145 1055.81,842.811 1054.5,839.5 Z"/></g>
<g><path style="opacity:1" fill="#116eac" d="M 517.5,844.5 C 525.167,844.5 532.833,844.5 540.5,844.5C 537.522,851.278 536.856,858.278 538.5,865.5C 529.071,863.892 519.404,862.892 509.5,862.5C 510.04,861.252 510.707,860.085 511.5,859C 511.272,858.601 510.938,858.435 510.5,858.5C 512.326,853.516 514.659,848.849 517.5,844.5 Z"/></g>
<g><path style="opacity:1" fill="#126eab" d="M 562.5,836.5 C 581.874,836.038 590.708,845.371 589,864.5C 584.746,877.216 575.913,882.716 562.5,881C 546.237,874.118 541.737,862.618 549,846.5C 552.555,841.763 557.055,838.43 562.5,836.5 Z"/></g>
<g><path style="opacity:1" fill="#0c6dab" d="M 724.5,842.5 C 727.831,849.829 731.164,857.162 734.5,864.5C 688.905,863.505 643.239,863.172 597.5,863.5C 598.09,856.87 597.09,850.536 594.5,844.5C 614.833,844.5 635.167,844.5 655.5,844.5C 659.167,844.5 662.833,844.5 666.5,844.5C 686.068,845.135 705.401,844.468 724.5,842.5 Z"/></g>
<g><path style="opacity:1" fill="#0d67a8" d="M 510.5,858.5 C 510.938,858.435 511.272,858.601 511.5,859C 510.707,860.085 510.04,861.252 509.5,862.5C 519.404,862.892 529.071,863.892 538.5,865.5C 541.227,875.556 547.227,882.889 556.5,887.5C 536.5,887.5 516.5,887.5 496.5,887.5C 500.93,877.642 505.597,867.975 510.5,858.5 Z"/></g>
<g><path style="opacity:1" fill="#0966a8" d="M 597.5,863.5 C 643.239,863.172 688.905,863.505 734.5,864.5C 738.949,871.733 742.615,879.399 745.5,887.5C 689.5,887.5 633.5,887.5 577.5,887.5C 588.121,882.873 594.787,874.873 597.5,863.5 Z"/></g>
<g><path style="opacity:1" fill="#0660a5" d="M 496.5,887.5 C 516.5,887.5 536.5,887.5 556.5,887.5C 563.5,888.833 570.5,888.833 577.5,887.5C 633.5,887.5 689.5,887.5 745.5,887.5C 749.949,894.733 753.615,902.399 756.5,910.5C 666.167,909.167 575.833,909.167 485.5,910.5C 488.93,902.642 492.597,894.976 496.5,887.5 Z"/></g>
<g><path style="opacity:1" fill="#035ca3" d="M 756.5,910.5 C 757.725,911.937 758.725,913.604 759.5,915.5C 667.167,916.833 574.833,916.833 482.5,915.5C 483.275,913.604 484.275,911.937 485.5,910.5C 575.833,909.167 666.167,909.167 756.5,910.5 Z"/></g>
<g><path style="opacity:1" fill="#0b68ab" d="M 1091.5,957.5 C 1090.83,961.833 1090.17,966.167 1089.5,970.5C 1087.24,952.549 1085.07,934.549 1083,916.5C 1082.68,914.699 1082.02,914.366 1081,915.5C 1080.23,918.19 1079.4,920.856 1078.5,923.5C 1076.46,910.994 1073.62,898.661 1070,886.5C 1069.67,886.167 1069.33,885.833 1069,885.5C 1068.67,887.833 1068.33,890.167 1068,892.5C 1065.33,887.833 1062.67,883.167 1060,878.5C 1059.43,871.889 1058.26,865.389 1056.5,859C 1056.83,858.5 1057.17,858 1057.5,857.5C 1067.66,867.489 1076.5,878.489 1084,890.5C 1090.38,902.532 1093.55,915.365 1093.5,929C 1092.51,938.475 1091.84,947.975 1091.5,957.5 Z"/></g>
<g><path style="opacity:1" fill="#126caf" d="M 822.5,886.5 C 836.189,897.358 848.022,910.025 858,924.5C 866.868,938.937 872.035,954.604 873.5,971.5C 873.5,973.167 873.5,974.833 873.5,976.5C 870.223,976.784 867.057,976.451 864,975.5C 861.713,968.262 858.88,961.262 855.5,954.5C 854.982,948.758 853.982,943.091 852.5,937.5C 851.516,940.428 851.183,943.428 851.5,946.5C 841.324,926.814 831.658,906.814 822.5,886.5 Z"/></g>
<g><path style="opacity:1" fill="#0a64a5" d="M 972.5,932.5 C 974.371,932.859 975.871,933.859 977,935.5C 982.135,943.472 983.801,952.138 982,961.5C 979.074,953.111 973.907,946.611 966.5,942C 959.798,940.46 953.131,938.793 946.5,937C 953.208,936.711 959.875,936.045 966.5,935C 968.723,934.434 970.723,933.6 972.5,932.5 Z"/></g>
<g><path style="opacity:0.153" fill="#2e2e2e" d="M 788.5,933.5 C 789.043,933.56 789.376,933.893 789.5,934.5C 733.333,934.833 677.167,935.167 621,935.5C 564.43,935.502 508.597,935.169 453.5,934.5C 565.335,934.833 677.001,934.499 788.5,933.5 Z"/></g>
<g><path style="opacity:1" fill="#151a20" d="M 855.5,954.5 C 853.659,952.151 852.326,949.485 851.5,946.5C 851.183,943.428 851.516,940.428 852.5,937.5C 853.982,943.091 854.982,948.758 855.5,954.5 Z"/></g>
<g><path style="opacity:1" fill="#0965a8" d="M 1013.5,976.5 C 1009.83,976.5 1006.17,976.5 1002.5,976.5C 1005.24,967.732 1006.57,958.732 1006.5,949.5C 1007.23,942.552 1005.89,936.052 1002.5,930C 1004.15,927.205 1006.15,924.705 1008.5,922.5C 1009.92,924.336 1011.09,926.336 1012,928.5C 1017.42,944.339 1017.92,960.339 1013.5,976.5 Z"/></g>
<g><path style="opacity:1" fill="#042b47" d="M 1091.5,957.5 C 1091.67,962.511 1091.5,967.511 1091,972.5C 1090.28,971.956 1089.78,971.289 1089.5,970.5C 1090.17,966.167 1090.83,961.833 1091.5,957.5 Z"/></g>
<g><path style="opacity:1" fill="#032239" d="M 873.5,971.5 C 874.434,972.568 874.768,973.901 874.5,975.5C 887.344,975.171 900.011,975.505 912.5,976.5C 899.5,976.5 886.5,976.5 873.5,976.5C 873.5,974.833 873.5,973.167 873.5,971.5 Z"/></g>
<g><path style="opacity:0.975" fill="#000000" d="M 314.5,1012.5 C 367.171,1012.17 419.838,1012.5 472.5,1013.5C 470.177,1024.44 468.177,1035.44 466.5,1046.5C 429.167,1046.5 391.833,1046.5 354.5,1046.5C 354.099,1049.75 353.432,1052.91 352.5,1056C 389.832,1056.5 427.165,1056.67 464.5,1056.5C 462.5,1068.17 460.5,1079.83 458.5,1091.5C 421.167,1091.5 383.833,1091.5 346.5,1091.5C 344.099,1106.08 341.432,1120.58 338.5,1135C 323.504,1135.5 308.504,1135.67 293.5,1135.5C 300.176,1094.45 307.176,1053.45 314.5,1012.5 Z"/></g>
<g><path style="opacity:0.976" fill="#000000" d="M 481.5,1012.5 C 496.833,1012.5 512.167,1012.5 527.5,1012.5C 520.401,1053.17 513.234,1093.83 506,1134.5C 490.911,1135.49 475.745,1135.82 460.5,1135.5C 467.176,1094.45 474.176,1053.45 481.5,1012.5 Z"/></g>
<g><path style="opacity:0.981" fill="#000000" d="M 537.5,1012.5 C 590.171,1012.17 642.838,1012.5 695.5,1013.5C 693.177,1024.44 691.177,1035.44 689.5,1046.5C 670.821,1046.17 652.155,1046.5 633.5,1047.5C 628.228,1076.13 623.061,1104.8 618,1133.5C 610.401,1134.82 602.568,1135.48 594.5,1135.5C 586.833,1135.33 579.167,1135.17 571.5,1135C 577.149,1105.59 582.482,1076.09 587.5,1046.5C 568.821,1046.83 550.155,1046.5 531.5,1045.5C 533.757,1034.55 535.757,1023.55 537.5,1012.5 Z"/></g>
<g><path style="opacity:0.98" fill="#000000" d="M 726.5,1012.5 C 741.833,1012.5 757.167,1012.5 772.5,1012.5C 767.482,1042.09 762.149,1071.59 756.5,1101C 793.832,1101.5 831.165,1101.67 868.5,1101.5C 866.823,1112.56 864.823,1123.56 862.5,1134.5C 810.171,1135.5 757.838,1135.83 705.5,1135.5C 712.176,1094.45 719.176,1053.45 726.5,1012.5 Z"/></g>
<g><path style="opacity:0.98" fill="#000000" d="M 894.5,1012.5 C 947.171,1012.17 999.838,1012.5 1052.5,1013.5C 1045.17,1053.83 1037.83,1094.17 1030.5,1134.5C 978.171,1135.5 925.838,1135.83 873.5,1135.5C 877.704,1109.15 882.037,1082.81 886.5,1056.5C 923.839,1056.83 961.173,1056.5 998.5,1055.5C 999.167,1052.83 999.833,1050.17 1000.5,1047.5C 963.167,1046.83 925.833,1046.17 888.5,1045.5C 890.757,1034.55 892.757,1023.55 894.5,1012.5 Z M 926.5,1091.5 C 948.5,1091.5 970.5,1091.5 992.5,1091.5C 992.089,1094.55 991.423,1097.55 990.5,1100.5C 968.508,1101.67 946.508,1101.83 924.5,1101C 925.432,1097.91 926.099,1094.75 926.5,1091.5 Z"/></g>
<g><path style="opacity:0.982" fill="#000000" d="M 1062.5,1012.5 C 1115.17,1012.17 1167.84,1012.5 1220.5,1013.5C 1217.73,1027.8 1215.06,1042.13 1212.5,1056.5C 1206.19,1062.47 1199.86,1068.47 1193.5,1074.5C 1198.25,1079.91 1202.58,1085.57 1206.5,1091.5C 1203.94,1105.87 1201.27,1120.2 1198.5,1134.5C 1146.17,1135.5 1093.84,1135.83 1041.5,1135.5C 1048.18,1094.45 1055.18,1053.45 1062.5,1012.5 Z M 1102.5,1046.5 C 1124.51,1046.17 1146.51,1046.5 1168.5,1047.5C 1167.83,1050.17 1167.17,1052.83 1166.5,1055.5C 1144.51,1056.67 1122.51,1056.83 1100.5,1056C 1101.43,1052.91 1102.1,1049.75 1102.5,1046.5 Z M 1094.5,1091.5 C 1116.5,1091.5 1138.5,1091.5 1160.5,1091.5C 1160.09,1094.55 1159.42,1097.55 1158.5,1100.5C 1136.51,1101.67 1114.51,1101.83 1092.5,1101C 1093.43,1097.91 1094.1,1094.75 1094.5,1091.5 Z"/></g>
<g><path style="opacity:0.87" fill="#000000" d="M 288.5,1157.5 C 295.167,1157.5 301.833,1157.5 308.5,1157.5C 308.643,1159.26 308.309,1160.93 307.5,1162.5C 303.217,1163.49 298.884,1163.83 294.5,1163.5C 294.739,1165.47 294.406,1167.3 293.5,1169C 297.486,1169.5 301.486,1169.67 305.5,1169.5C 305.643,1171.26 305.309,1172.93 304.5,1174.5C 300.555,1175.49 296.555,1175.82 292.5,1175.5C 292.296,1178.52 291.963,1181.52 291.5,1184.5C 288.753,1184.81 286.086,1184.48 283.5,1183.5C 285.382,1174.88 287.049,1166.21 288.5,1157.5 Z"/></g>
<g><path style="opacity:0.894" fill="#000000" d="M 325.5,1157.5 C 333.528,1157.17 341.528,1157.5 349.5,1158.5C 348.691,1160.07 348.357,1161.74 348.5,1163.5C 345.753,1163.19 343.086,1163.52 340.5,1164.5C 339.274,1170.85 337.941,1177.19 336.5,1183.5C 334.257,1184.47 331.924,1184.81 329.5,1184.5C 330.608,1177.52 331.608,1170.52 332.5,1163.5C 330.167,1163.5 327.833,1163.5 325.5,1163.5C 325.5,1161.5 325.5,1159.5 325.5,1157.5 Z"/></g>
<g><path style="opacity:0.873" fill="#000000" d="M 385.5,1157.5 C 392.5,1157.5 399.5,1157.5 406.5,1157.5C 406.739,1159.47 406.406,1161.3 405.5,1163C 400.845,1163.5 396.179,1163.67 391.5,1163.5C 391.5,1165.17 391.5,1166.83 391.5,1168.5C 395.5,1168.5 399.5,1168.5 403.5,1168.5C 403.167,1170.5 402.833,1172.5 402.5,1174.5C 398.167,1174.5 393.833,1174.5 389.5,1174.5C 389.5,1175.83 389.5,1177.17 389.5,1178.5C 394.167,1178.5 398.833,1178.5 403.5,1178.5C 403.167,1180.5 402.833,1182.5 402.5,1184.5C 395.137,1184.83 387.803,1184.5 380.5,1183.5C 382.382,1174.88 384.049,1166.21 385.5,1157.5 Z"/></g>
<g><path style="opacity:0.853" fill="#000000" d="M 418.5,1157.5 C 422.514,1157.33 426.514,1157.5 430.5,1158C 432.002,1158.58 433.335,1159.42 434.5,1160.5C 433.243,1162.68 431.743,1164.68 430,1166.5C 426.766,1163.52 423.266,1163.02 419.5,1165C 422.5,1167.23 425.833,1168.9 429.5,1170C 433.183,1176.55 431.517,1181.22 424.5,1184C 418.2,1185.42 412.534,1184.26 407.5,1180.5C 408.441,1178.23 409.774,1176.23 411.5,1174.5C 414.438,1177.97 418.104,1179.14 422.5,1178C 422.957,1177.59 423.291,1177.09 423.5,1176.5C 419.452,1174.64 415.619,1172.3 412,1169.5C 410.89,1163.63 413.057,1159.63 418.5,1157.5 Z"/></g>
<g><path style="opacity:0.853" fill="#000000" d="M 445.5,1157.5 C 449.514,1157.33 453.514,1157.5 457.5,1158C 459.002,1158.58 460.335,1159.42 461.5,1160.5C 460.243,1162.68 458.743,1164.68 457,1166.5C 453.766,1163.52 450.266,1163.02 446.5,1165C 449.5,1167.23 452.833,1168.9 456.5,1170C 460.183,1176.55 458.517,1181.22 451.5,1184C 445.2,1185.42 439.534,1184.26 434.5,1180.5C 435.441,1178.23 436.774,1176.23 438.5,1174.5C 441.438,1177.97 445.104,1179.14 449.5,1178C 449.957,1177.59 450.291,1177.09 450.5,1176.5C 446.452,1174.64 442.619,1172.3 439,1169.5C 437.89,1163.63 440.057,1159.63 445.5,1157.5 Z"/></g>
<g><path style="opacity:0.878" fill="#000000" d="M 596.5,1157.5 C 612.543,1155.95 617.71,1162.62 612,1177.5C 605.356,1184.96 597.522,1186.46 588.5,1182C 582.845,1171.13 585.511,1162.97 596.5,1157.5 Z M 598.5,1163.5 C 607.159,1164.14 609.159,1168.14 604.5,1175.5C 599.146,1180.09 595.146,1179.09 592.5,1172.5C 593.286,1168.57 595.286,1165.57 598.5,1163.5 Z"/></g>
<g><path style="opacity:0.894" fill="#000000" d="M 675.5,1157.5 C 683.528,1157.17 691.528,1157.5 699.5,1158.5C 698.691,1160.07 698.357,1161.74 698.5,1163.5C 695.753,1163.19 693.086,1163.52 690.5,1164.5C 689.274,1170.85 687.941,1177.19 686.5,1183.5C 684.257,1184.47 681.924,1184.81 679.5,1184.5C 680.608,1177.52 681.608,1170.52 682.5,1163.5C 680.167,1163.5 677.833,1163.5 675.5,1163.5C 675.5,1161.5 675.5,1159.5 675.5,1157.5 Z"/></g>
<g><path style="opacity:0.878" fill="#000000" d="M 725.5,1157.5 C 741.543,1155.95 746.71,1162.62 741,1177.5C 734.356,1184.96 726.522,1186.46 717.5,1182C 711.845,1171.13 714.511,1162.97 725.5,1157.5 Z M 727.5,1163.5 C 736.159,1164.14 738.159,1168.14 733.5,1175.5C 728.146,1180.09 724.146,1179.09 721.5,1172.5C 722.286,1168.57 724.286,1165.57 727.5,1163.5 Z"/></g>
<g><path style="opacity:0.894" fill="#000000" d="M 823.5,1157.5 C 831.528,1157.17 839.528,1157.5 847.5,1158.5C 846.691,1160.07 846.357,1161.74 846.5,1163.5C 843.753,1163.19 841.086,1163.52 838.5,1164.5C 837.274,1170.85 835.941,1177.19 834.5,1183.5C 832.257,1184.47 829.924,1184.81 827.5,1184.5C 828.608,1177.52 829.608,1170.52 830.5,1163.5C 828.167,1163.5 825.833,1163.5 823.5,1163.5C 823.5,1161.5 823.5,1159.5 823.5,1157.5 Z"/></g>
<g><path style="opacity:0.88" fill="#000000" d="M 851.5,1157.5 C 858.373,1156.97 865.04,1157.8 871.5,1160C 873.978,1163.68 874.144,1167.52 872,1171.5C 870.315,1173.02 868.815,1174.68 867.5,1176.5C 868.695,1178.75 869.695,1181.08 870.5,1183.5C 864.044,1186.32 860.711,1184.32 860.5,1177.5C 858.833,1177.5 857.167,1177.5 855.5,1177.5C 855.007,1179.81 854.674,1182.14 854.5,1184.5C 851.753,1184.81 849.086,1184.48 846.5,1183.5C 848.382,1174.88 850.049,1166.21 851.5,1157.5 Z M 857.5,1163.5 C 861.122,1162.92 864.122,1163.92 866.5,1166.5C 864.587,1170.79 861.254,1172.46 856.5,1171.5C 857.092,1168.87 857.425,1166.21 857.5,1163.5 Z"/></g>
<g><path style="opacity:0.853" fill="#000000" d="M 950.5,1157.5 C 954.514,1157.33 958.514,1157.5 962.5,1158C 964.002,1158.58 965.335,1159.42 966.5,1160.5C 965.243,1162.68 963.743,1164.68 962,1166.5C 958.766,1163.52 955.266,1163.02 951.5,1165C 954.5,1167.23 957.833,1168.9 961.5,1170C 965.183,1176.55 963.517,1181.22 956.5,1184C 950.2,1185.42 944.534,1184.26 939.5,1180.5C 940.441,1178.23 941.774,1176.23 943.5,1174.5C 946.438,1177.97 950.104,1179.14 954.5,1178C 954.957,1177.59 955.291,1177.09 955.5,1176.5C 951.452,1174.64 947.619,1172.3 944,1169.5C 942.89,1163.63 945.057,1159.63 950.5,1157.5 Z"/></g>
<g><path style="opacity:0.87" fill="#000000" d="M 972.5,1157.5 C 979.167,1157.5 985.833,1157.5 992.5,1157.5C 992.643,1159.26 992.309,1160.93 991.5,1162.5C 987.217,1163.49 982.884,1163.83 978.5,1163.5C 978.739,1165.47 978.406,1167.3 977.5,1169C 981.486,1169.5 985.486,1169.67 989.5,1169.5C 989.643,1171.26 989.309,1172.93 988.5,1174.5C 984.555,1175.49 980.555,1175.82 976.5,1175.5C 976.296,1178.52 975.963,1181.52 975.5,1184.5C 972.753,1184.81 970.086,1184.48 967.5,1183.5C 969.382,1174.88 971.049,1166.21 972.5,1157.5 Z"/></g>
<g><path style="opacity:0.878" fill="#000000" d="M 1004.5,1157.5 C 1020.54,1155.95 1025.71,1162.62 1020,1177.5C 1013.36,1184.96 1005.52,1186.46 996.5,1182C 990.845,1171.13 993.511,1162.97 1004.5,1157.5 Z M 1006.5,1163.5 C 1015.16,1164.14 1017.16,1168.14 1012.5,1175.5C 1007.15,1180.09 1003.15,1179.09 1000.5,1172.5C 1001.29,1168.57 1003.29,1165.57 1006.5,1163.5 Z"/></g>
<g><path style="opacity:0.88" fill="#000000" d="M 1030.5,1157.5 C 1037.37,1156.97 1044.04,1157.8 1050.5,1160C 1052.98,1163.68 1053.14,1167.52 1051,1171.5C 1049.31,1173.02 1047.81,1174.68 1046.5,1176.5C 1047.69,1178.75 1048.69,1181.08 1049.5,1183.5C 1043.04,1186.32 1039.71,1184.32 1039.5,1177.5C 1037.83,1177.5 1036.17,1177.5 1034.5,1177.5C 1034.01,1179.81 1033.67,1182.14 1033.5,1184.5C 1030.75,1184.81 1028.09,1184.48 1025.5,1183.5C 1027.38,1174.88 1029.05,1166.21 1030.5,1157.5 Z M 1036.5,1163.5 C 1040.12,1162.92 1043.12,1163.92 1045.5,1166.5C 1043.59,1170.79 1040.25,1172.46 1035.5,1171.5C 1036.09,1168.87 1036.42,1166.21 1036.5,1163.5 Z"/></g>
<g><path style="opacity:0.874" fill="#000000" d="M 1060.5,1157.5 C 1063.45,1157.22 1066.28,1157.56 1069,1158.5C 1069.87,1162.98 1071.2,1167.32 1073,1171.5C 1075.96,1167.08 1078.79,1162.58 1081.5,1158C 1084.5,1157.33 1087.5,1157.33 1090.5,1158C 1088.46,1166.74 1086.79,1175.57 1085.5,1184.5C 1083.08,1184.81 1080.74,1184.47 1078.5,1183.5C 1082.09,1168.52 1080.59,1167.85 1074,1181.5C 1072.19,1182.76 1070.35,1182.76 1068.5,1181.5C 1067.49,1177.78 1066.32,1174.11 1065,1170.5C 1064.23,1175.19 1063.39,1179.86 1062.5,1184.5C 1060.08,1184.81 1057.74,1184.47 1055.5,1183.5C 1057.38,1174.88 1059.05,1166.21 1060.5,1157.5 Z"/></g>
<g><path style="opacity:0.894" fill="#000000" d="M 1122.5,1157.5 C 1130.53,1157.17 1138.53,1157.5 1146.5,1158.5C 1145.69,1160.07 1145.36,1161.74 1145.5,1163.5C 1142.75,1163.19 1140.09,1163.52 1137.5,1164.5C 1136.27,1170.85 1134.94,1177.19 1133.5,1183.5C 1131.26,1184.47 1128.92,1184.81 1126.5,1184.5C 1127.61,1177.52 1128.61,1170.52 1129.5,1163.5C 1127.17,1163.5 1124.83,1163.5 1122.5,1163.5C 1122.5,1161.5 1122.5,1159.5 1122.5,1157.5 Z"/></g>
<g><path style="opacity:0.878" fill="#000000" d="M 1172.5,1157.5 C 1188.54,1155.95 1193.71,1162.62 1188,1177.5C 1181.36,1184.96 1173.52,1186.46 1164.5,1182C 1158.84,1171.13 1161.51,1162.97 1172.5,1157.5 Z M 1174.5,1163.5 C 1183.16,1164.14 1185.16,1168.14 1180.5,1175.5C 1175.15,1180.09 1171.15,1179.09 1168.5,1172.5C 1169.29,1168.57 1171.29,1165.57 1174.5,1163.5 Z"/></g>
<g><path style="opacity:0.884" fill="#000000" d="M 313.5,1158.5 C 315.833,1158.5 318.167,1158.5 320.5,1158.5C 319.167,1167.17 317.834,1175.83 316.5,1184.5C 313.753,1184.81 311.086,1184.48 308.5,1183.5C 310.275,1175.18 311.942,1166.85 313.5,1158.5 Z"/></g>
<g><path style="opacity:0.89" fill="#000000" d="M 353.5,1158.5 C 355.857,1158.34 358.19,1158.5 360.5,1159C 363,1163.5 365.5,1168 368,1172.5C 369.375,1168.28 370.542,1163.95 371.5,1159.5C 373.833,1158.17 376.167,1158.17 378.5,1159.5C 376.776,1167.68 375.109,1175.85 373.5,1184C 371.098,1184.81 368.765,1184.65 366.5,1183.5C 363.8,1179.3 361.3,1174.96 359,1170.5C 357.493,1174.7 356.493,1179.03 356,1183.5C 353.534,1184.78 351.034,1184.78 348.5,1183.5C 350.275,1175.18 351.942,1166.85 353.5,1158.5 Z"/></g>
<g><path style="opacity:0.884" fill="#000000" d="M 510.5,1158.5 C 512.833,1158.5 515.167,1158.5 517.5,1158.5C 516.167,1167.17 514.834,1175.83 513.5,1184.5C 510.753,1184.81 508.086,1184.48 505.5,1183.5C 507.275,1175.18 508.942,1166.85 510.5,1158.5 Z"/></g>
<g><path style="opacity:0.89" fill="#000000" d="M 524.5,1158.5 C 526.857,1158.34 529.19,1158.5 531.5,1159C 534,1163.5 536.5,1168 539,1172.5C 540.375,1168.28 541.542,1163.95 542.5,1159.5C 544.833,1158.17 547.167,1158.17 549.5,1159.5C 547.776,1167.68 546.109,1175.85 544.5,1184C 542.098,1184.81 539.765,1184.65 537.5,1183.5C 534.8,1179.3 532.3,1174.96 530,1170.5C 528.493,1174.7 527.493,1179.03 527,1183.5C 524.534,1184.78 522.034,1184.78 519.5,1183.5C 521.275,1175.18 522.942,1166.85 524.5,1158.5 Z"/></g>
<g><path style="opacity:0.89" fill="#000000" d="M 557.5,1158.5 C 559.857,1158.34 562.19,1158.5 564.5,1159C 567,1163.5 569.5,1168 572,1172.5C 573.375,1168.28 574.542,1163.95 575.5,1159.5C 577.833,1158.17 580.167,1158.17 582.5,1159.5C 580.776,1167.68 579.109,1175.85 577.5,1184C 575.098,1184.81 572.765,1184.65 570.5,1183.5C 567.8,1179.3 565.3,1174.96 563,1170.5C 561.493,1174.7 560.493,1179.03 560,1183.5C 557.534,1184.78 555.034,1184.78 552.5,1183.5C 554.275,1175.18 555.942,1166.85 557.5,1158.5 Z"/></g>
<g><path style="opacity:0.869" fill="#000000" d="M 618.5,1158.5 C 621.247,1158.19 623.914,1158.52 626.5,1159.5C 627.559,1164.85 628.725,1170.18 630,1175.5C 633.088,1170.33 635.921,1164.99 638.5,1159.5C 641.167,1158.17 643.833,1158.17 646.5,1159.5C 641.707,1167.59 637.04,1175.75 632.5,1184C 629.571,1184.78 626.737,1184.61 624,1183.5C 622.227,1175.13 620.394,1166.8 618.5,1158.5 Z"/></g>
<g><path style="opacity:0.896" fill="#000000" d="M 657.5,1158.5 C 660.247,1158.19 662.914,1158.52 665.5,1159.5C 667.974,1167.73 669.974,1176.06 671.5,1184.5C 668.833,1184.5 666.167,1184.5 663.5,1184.5C 663.5,1182.83 663.5,1181.17 663.5,1179.5C 659.818,1179.33 656.152,1179.5 652.5,1180C 650.055,1184.12 646.389,1185.45 641.5,1184C 646.969,1175.56 652.303,1167.06 657.5,1158.5 Z M 659.5,1166.5 C 660.768,1168.91 661.435,1171.57 661.5,1174.5C 659.473,1174.66 657.473,1174.5 655.5,1174C 657.494,1171.84 658.828,1169.34 659.5,1166.5 Z"/></g>
<g><path style="opacity:0.884" fill="#000000" d="M 703.5,1158.5 C 705.833,1158.5 708.167,1158.5 710.5,1158.5C 709.167,1167.17 707.834,1175.83 706.5,1184.5C 703.753,1184.81 701.086,1184.48 698.5,1183.5C 700.275,1175.18 701.942,1166.85 703.5,1158.5 Z"/></g>
<g><path style="opacity:0.89" fill="#000000" d="M 751.5,1158.5 C 753.857,1158.34 756.19,1158.5 758.5,1159C 761,1163.5 763.5,1168 766,1172.5C 767.375,1168.28 768.542,1163.95 769.5,1159.5C 771.833,1158.17 774.167,1158.17 776.5,1159.5C 774.776,1167.68 773.109,1175.85 771.5,1184C 769.098,1184.81 766.765,1184.65 764.5,1183.5C 761.8,1179.3 759.3,1174.96 757,1170.5C 755.493,1174.7 754.493,1179.03 754,1183.5C 751.534,1184.78 749.034,1184.78 746.5,1183.5C 748.275,1175.18 749.942,1166.85 751.5,1158.5 Z"/></g>
<g><path style="opacity:0.896" fill="#000000" d="M 889.5,1158.5 C 892.247,1158.19 894.914,1158.52 897.5,1159.5C 899.974,1167.73 901.974,1176.06 903.5,1184.5C 900.833,1184.5 898.167,1184.5 895.5,1184.5C 895.5,1182.83 895.5,1181.17 895.5,1179.5C 891.818,1179.33 888.152,1179.5 884.5,1180C 882.055,1184.12 878.389,1185.45 873.5,1184C 878.969,1175.56 884.303,1167.06 889.5,1158.5 Z M 891.5,1166.5 C 892.768,1168.91 893.435,1171.57 893.5,1174.5C 891.473,1174.66 889.473,1174.5 887.5,1174C 889.494,1171.84 890.828,1169.34 891.5,1166.5 Z"/></g>
<g><path style="opacity:0.89" fill="#000000" d="M 913.5,1158.5 C 915.857,1158.34 918.19,1158.5 920.5,1159C 923,1163.5 925.5,1168 928,1172.5C 929.375,1168.28 930.542,1163.95 931.5,1159.5C 933.833,1158.17 936.167,1158.17 938.5,1159.5C 936.776,1167.68 935.109,1175.85 933.5,1184C 931.098,1184.81 928.765,1184.65 926.5,1183.5C 923.8,1179.3 921.3,1174.96 919,1170.5C 917.493,1174.7 916.493,1179.03 916,1183.5C 913.534,1184.78 911.034,1184.78 908.5,1183.5C 910.275,1175.18 911.942,1166.85 913.5,1158.5 Z"/></g>
<g><path style="opacity:0.896" fill="#000000" d="M 1104.5,1158.5 C 1107.25,1158.19 1109.91,1158.52 1112.5,1159.5C 1114.97,1167.73 1116.97,1176.06 1118.5,1184.5C 1115.83,1184.5 1113.17,1184.5 1110.5,1184.5C 1110.5,1182.83 1110.5,1181.17 1110.5,1179.5C 1106.82,1179.33 1103.15,1179.5 1099.5,1180C 1097.06,1184.12 1093.39,1185.45 1088.5,1184C 1093.97,1175.56 1099.3,1167.06 1104.5,1158.5 Z M 1106.5,1166.5 C 1107.77,1168.91 1108.43,1171.57 1108.5,1174.5C 1106.47,1174.66 1104.47,1174.5 1102.5,1174C 1104.49,1171.84 1105.83,1169.34 1106.5,1166.5 Z"/></g>
<g><path style="opacity:0.884" fill="#000000" d="M 1150.5,1158.5 C 1152.83,1158.5 1155.17,1158.5 1157.5,1158.5C 1156.17,1167.17 1154.83,1175.83 1153.5,1184.5C 1150.75,1184.81 1148.09,1184.48 1145.5,1183.5C 1147.28,1175.18 1148.94,1166.85 1150.5,1158.5 Z"/></g>
<g><path style="opacity:0.89" fill="#000000" d="M 1198.5,1158.5 C 1200.86,1158.34 1203.19,1158.5 1205.5,1159C 1208,1163.5 1210.5,1168 1213,1172.5C 1214.38,1168.28 1215.54,1163.95 1216.5,1159.5C 1218.83,1158.17 1221.17,1158.17 1223.5,1159.5C 1221.78,1167.68 1220.11,1175.85 1218.5,1184C 1216.1,1184.81 1213.76,1184.65 1211.5,1183.5C 1208.8,1179.3 1206.3,1174.96 1204,1170.5C 1202.49,1174.7 1201.49,1179.03 1201,1183.5C 1198.53,1184.78 1196.03,1184.78 1193.5,1183.5C 1195.28,1175.18 1196.94,1166.85 1198.5,1158.5 Z"/></g>
<g><path style="opacity:0.862" fill="#000000" d="M 481.5,1163.5 C 483.199,1163.34 484.866,1163.51 486.5,1164C 485.577,1166.04 485.244,1168.21 485.5,1170.5C 487.604,1170.2 489.604,1170.53 491.5,1171.5C 491.167,1172.17 490.833,1172.83 490.5,1173.5C 484.956,1173.44 482.623,1176.11 483.5,1181.5C 481.833,1181.5 480.167,1181.5 478.5,1181.5C 478.318,1179.41 478.652,1177.41 479.5,1175.5C 477.604,1174.53 475.604,1174.2 473.5,1174.5C 473.5,1173.17 473.5,1171.83 473.5,1170.5C 475.833,1170.5 478.167,1170.5 480.5,1170.5C 480.298,1168.05 480.631,1165.72 481.5,1163.5 Z"/></g>
<g><path style="opacity:0.965" fill="#000000" d="M 790.5,1166.5 C 796.167,1166.5 801.833,1166.5 807.5,1166.5C 807.5,1167.83 807.5,1169.17 807.5,1170.5C 801.491,1170.67 795.491,1170.5 789.5,1170C 790.337,1168.99 790.67,1167.82 790.5,1166.5 Z"/></g>
<g><path style="opacity:0.938" fill="#000000" d="M 788.5,1174.5 C 794.5,1174.5 800.5,1174.5 806.5,1174.5C 806.67,1175.82 806.337,1176.99 805.5,1178C 799.843,1178.5 794.176,1178.67 788.5,1178.5C 788.5,1177.17 788.5,1175.83 788.5,1174.5 Z"/></g>
</svg>
