<?xml version="1.0" encoding="UTF-8"?><svg id="LOGO" xmlns="http://www.w3.org/2000/svg" viewBox="0 0 1500 1500"><defs><style>.cls-1{fill:#c0af91;}.cls-2{fill:#505831;}</style></defs><path class="cls-1" d="M529.4,831.76c-1.96,4.76-6.65,7.98-12.25,7.98-7.56,0-13.3-5.74-13.3-13.37s5.74-13.37,13.3-13.37c5.6,0,10.29,3.22,12.25,7.98h12.81c-2.38-11.41-12.39-19.6-25.06-19.6-14.63,0-25.62,10.78-25.62,24.99s10.99,24.99,25.62,24.99c12.67,0,22.68-8.19,25.06-19.6h-12.81Z"/><polygon class="cls-1" points="591.52 850.53 603.56 850.53 603.56 802.22 591.52 802.22 591.52 820.56 574.16 820.56 574.16 802.22 562.12 802.22 562.12 850.53 574.16 850.53 574.16 831.9 591.52 831.9 591.52 850.53"/><path class="cls-1" d="M638.96,802.22l-17.78,48.3h12.95l2.59-7.63h18.48l2.59,7.63h13.16l-17.78-48.3h-14.21ZM640.43,831.83l5.53-16.31,5.53,16.31h-11.06Z"/><polygon class="cls-1" points="688.56 802.22 688.56 850.53 719.15 850.53 719.15 839.18 700.6 839.18 700.6 802.22 688.56 802.22"/><polygon class="cls-1" points="737.52 802.22 737.52 850.53 768.11 850.53 768.11 839.18 749.56 839.18 749.56 802.22 737.52 802.22"/><polygon class="cls-1" points="798.51 831.9 816.58 831.9 816.58 820.56 798.51 820.56 798.51 813.56 818.82 813.56 818.82 802.22 786.47 802.22 786.47 850.53 819.17 850.53 819.17 839.18 798.51 839.18 798.51 831.9"/><polygon class="cls-1" points="852.72 823.29 870.85 850.53 882.89 850.53 882.89 802.22 870.85 802.22 870.85 829.52 852.72 802.22 840.67 802.22 840.67 850.53 852.72 850.53 852.72 823.29"/><path class="cls-1" d="M943.34,845.49v5.04h10.15v-28.21h-23.17v10.92h9.8c-1.89,3.92-6.02,6.51-11.2,6.51-7.56,0-13.3-5.74-13.3-13.37s5.74-13.37,13.3-13.37c4.48,0,8.19,1.89,10.43,4.97h13.44c-2.45-9.59-12.18-16.59-23.87-16.59-14.63,0-25.62,10.78-25.62,24.99s10.99,24.99,25.62,24.99c6.23,0,10.99-1.96,14.42-5.88Z"/><polygon class="cls-1" points="1007.98 813.56 1007.98 802.22 975.64 802.22 975.64 850.53 1008.33 850.53 1008.33 839.18 987.68 839.18 987.68 831.9 1005.74 831.9 1005.74 820.56 987.68 820.56 987.68 813.56 1007.98 813.56"/><polygon class="cls-2" points="363.8 764.14 395.02 764.14 410.88 651.05 379.67 651.05 363.8 764.14"/><polygon class="cls-2" points="458.07 764.14 489.43 764.14 501.41 678.79 544.53 678.79 548.42 651.05 430.81 651.05 426.92 678.79 470.04 678.79 458.07 764.14"/><polygon class="cls-2" points="595.9 699.3 556.24 699.3 552.84 723.58 592.49 723.58 595.9 699.3"/><path class="cls-2" d="M880.11,676.68c-4.39-8.84-11.27-15.73-20.62-20.66-9.36-4.92-20.78-7.39-34.25-7.39-7.18,0-13.99.72-20.42,2.14-5.55,1.22-10.82,2.97-15.82,5.25-8.85,4.04-16.35,9.42-22.53,16.1-1.35,1.46-2.67,2.97-3.89,4.56-6.82,8.85-11.06,19.15-12.71,30.91-.4,2.82-.61,5.55-.67,8.2-.16,8.41,1.4,15.99,4.7,22.71,4.34,8.85,11.21,15.73,20.62,20.66,9.41,4.93,20.8,7.39,34.17,7.39s25.58-2.46,36.32-7.39c10.74-4.92,19.55-11.81,26.42-20.66,5.22-6.73,8.94-14.3,11.14-22.71.69-2.65,1.24-5.38,1.64-8.2,1.65-11.76.28-22.06-4.11-30.91ZM845.93,724.18c-3.51,4.62-8.11,8.19-13.79,10.71-5.68,2.51-12.19,3.77-19.53,3.77s-13.34-1.26-18.32-3.77c-4.98-2.51-8.6-6.08-10.86-10.71-1.24-2.52-1.99-5.33-2.28-8.39-.24-2.55-.18-5.28.23-8.2.78-5.56,2.56-10.44,5.32-14.65.44-.66.89-1.31,1.38-1.94,3.56-4.62,8.18-8.19,13.87-10.71.93-.41,1.89-.78,2.87-1.12,4.96-1.76,10.46-2.65,16.51-2.65,7.34,0,13.49,1.26,18.47,3.77,4.97,2.51,8.57,6.08,10.79,10.71,2.22,4.62,2.87,10.15,1.97,16.59-.41,2.92-1.1,5.65-2.05,8.2-1.14,3.06-2.65,5.87-4.57,8.39Z"/><path class="cls-2" d="M977.73,733.66l-22.92-82.61h-58l7.31,16.97h.05l-6.7,47.77-6.78,48.35h29.71l6.78-48.35,5.18-36.93,10.88,36.93,14.25,48.35h31.67l49.13-85.83-12.04,85.83h29.71l15.87-113.09h-48.25l-45.84,82.61Z"/><polygon class="cls-2" points="1162.89 733.66 1139.97 651.05 1103.56 651.05 1091.72 651.05 1082.96 651.05 1089.56 666.38 1075.85 764.14 1105.56 764.14 1117.52 678.86 1142.65 764.14 1174.31 764.14 1223.45 678.31 1211.41 764.14 1241.11 764.14 1256.98 651.05 1208.73 651.05 1162.89 733.66"/><polygon class="cls-2" points="313.63 764.14 340.28 764.14 344.02 737.49 317.37 737.49 313.63 764.14"/><polygon class="cls-2" points="414.94 764.14 441.59 764.14 445.33 737.49 418.68 737.49 414.94 764.14"/><polygon class="cls-2" points="532.56 764.14 536.3 737.49 509.65 737.49 505.91 764.14 532.56 764.14"/><polygon class="cls-2" points="258.89 651.05 249.19 651.05 256.51 668.02 243.02 764.14 274.23 764.14 279.9 723.73 345.95 723.73 349.65 697.34 283.61 697.34 286.4 677.44 355.31 677.44 359.01 651.05 269.79 651.05 258.89 651.05"/><path class="cls-2" d="M662.61,679.47c5.49-2.56,11.75-3.85,18.78-3.85,6.13,0,11.41.9,15.83,2.71,4.42,1.81,7.85,4.4,10.29,7.77,2.44,3.37,3.83,7.46,4.16,12.29h31.36c.29-9.95-1.9-18.67-6.58-26.16-4.68-7.49-11.38-13.29-20.1-17.42-8.72-4.12-19.11-6.18-31.18-6.18-13.17,0-25.03,2.46-35.57,7.39-2.3,1.08-4.5,2.26-6.62,3.53-7.59,4.52-14.03,10.22-19.28,17.13-6.72,8.85-10.9,19.15-12.55,30.91-1.65,11.76-.36,22.07,3.88,30.91,4.24,8.85,10.93,15.73,20.1,20.66,9.16,4.93,20.32,7.39,33.49,7.39,12.06,0,23.03-2.06,32.91-6.18,9.88-4.12,18.21-9.93,24.99-17.42,6.78-7.49,11.42-16.21,13.92-26.16h-31.36c-1.7,4.93-4.24,9.1-7.64,12.52-3.4,3.42-7.55,5.98-12.46,7.69-4.91,1.71-10.44,2.56-16.57,2.56-7.04,0-12.94-1.28-17.71-3.84-4.77-2.56-8.17-6.23-10.22-11.01-2.04-4.77-2.6-10.48-1.67-17.11.05-.34.11-.66.17-1,1-6.21,3.09-11.59,6.31-16.12,3.38-4.77,7.82-8.44,13.31-11.01Z"/></svg>