<svg version="1.1" id="Layer_1" xmlns="http://www.w3.org/2000/svg" xmlns:xlink="http://www.w3.org/1999/xlink" x="0px" y="0px"
	 width="100%" viewBox="0 0 6251 6251" enable-background="new 0 0 6251 6251" xml:space="preserve">
<path fill="#000000" opacity="1.000000" stroke="none" 
	d="
M2884.000000,6256.000000 
	C1922.666870,6256.000000 963.333679,6256.000000 4.000386,6256.000000 
	C4.000257,4172.000488 4.000257,2088.000977 4.000129,4.001225 
	C2087.999023,4.000817 4171.998047,4.000817 6255.998047,4.000408 
	C6255.998535,2087.998779 6255.998535,4171.997559 6255.999023,6255.998047 
	C5132.666504,6256.000000 4009.333252,6256.000000 2884.000000,6256.000000 
M3415.333984,3297.128662 
	C3404.601807,3316.329346 3393.927002,3335.562500 3383.082520,3354.699707 
	C3381.230225,3357.968506 3379.662109,3362.310303 3373.384521,3360.524170 
	C3371.541992,3354.689453 3369.376953,3348.435303 3367.591309,3342.074707 
	C3359.664062,3313.841309 3351.825928,3285.582764 3343.990723,3257.323730 
	C3314.607910,3151.352051 3285.315430,3045.355225 3255.802979,2939.419678 
	C3249.363525,2916.305176 3250.964355,2916.645752 3226.132812,2916.644775 
	C3138.137939,2916.641602 3050.143311,2916.640381 2962.148438,2916.646973 
	C2956.149414,2916.647461 2950.136475,2916.490479 2944.156738,2916.850586 
	C2941.099609,2917.034668 2938.101807,2918.203369 2934.576416,2919.046875 
	C2934.642090,2927.801514 2938.410645,2934.200684 2941.216309,2940.792725 
	C2949.569336,2960.416992 2957.971191,2980.024414 2966.689941,2999.487793 
	C2970.373779,3007.711426 2971.064941,3015.725586 2969.650391,3024.691895 
	C2965.497559,3051.013672 2962.257812,3077.478516 2958.561035,3103.873291 
	C2949.781494,3166.556152 2940.952148,3229.231934 2932.128174,3291.908936 
	C2924.604492,3345.349365 2917.062744,3398.787354 2909.524414,3452.225830 
	C2906.639160,3472.678223 2903.558594,3493.105469 2900.946777,3513.592529 
	C2900.052734,3520.606689 2898.040527,3528.041992 2903.176270,3535.089355 
	C2906.478271,3535.628174 2909.702148,3536.608398 2912.927246,3536.612061 
	C2958.921631,3536.664307 3004.915771,3536.613770 3050.909912,3536.460938 
	C3053.471680,3536.452393 3056.029541,3535.336182 3059.355225,3534.555908 
	C3060.694824,3530.214844 3062.536133,3525.941406 3063.283936,3521.484375 
	C3065.047363,3510.975586 3066.277344,3500.377441 3067.744873,3489.818604 
	C3074.991699,3437.683594 3082.207764,3385.543945 3089.508545,3333.416504 
	C3095.607910,3289.868408 3101.804688,3246.333740 3107.966553,3202.794678 
	C3113.288086,3165.191895 3118.595215,3127.587402 3124.010986,3089.998291 
	C3124.345947,3087.672607 3124.212646,3084.373047 3129.382080,3084.751953 
	C3130.389893,3087.243164 3131.793213,3090.107666 3132.724365,3093.118408 
	C3136.466797,3105.216309 3140.126465,3117.340332 3143.703857,3129.488281 
	C3181.734375,3258.635010 3219.723389,3387.793945 3257.818848,3516.921875 
	C3259.672119,3523.203613 3260.547852,3530.088135 3265.981445,3534.754639 
	C3283.450439,3537.689697 3420.948242,3537.607422 3438.816162,3534.410645 
	C3452.204834,3514.086426 3463.856934,3491.614502 3476.562012,3469.785400 
	C3488.967773,3448.470703 3501.048096,3426.967041 3513.312744,3405.569824 
	C3525.908691,3383.594727 3538.578613,3361.661865 3551.171387,3339.685059 
	C3563.432617,3318.286133 3575.639648,3296.856445 3587.866455,3275.438477 
	C3600.423828,3253.440918 3612.950195,3231.426025 3625.537842,3209.446045 
	C3637.793945,3188.045166 3649.936279,3166.575928 3662.451172,3145.326416 
	C3675.152588,3123.760986 3685.968262,3101.016602 3702.407227,3081.192627 
	C3701.642578,3106.478760 3697.385498,3131.104492 3694.222656,3155.828613 
	C3691.010742,3180.939697 3687.301514,3205.988281 3683.722900,3231.051514 
	C3680.144287,3256.116699 3676.359863,3281.152344 3672.845459,3306.226318 
	C3669.238281,3331.959717 3665.897217,3357.730225 3662.351074,3383.472412 
	C3658.896240,3408.552734 3655.140381,3433.592529 3651.863770,3458.695557 
	C3648.613525,3483.594238 3643.055908,3508.257812 3642.640625,3534.600098 
	C3648.114014,3535.436523 3652.552979,3536.690430 3656.995361,3536.704346 
	C3700.991943,3536.842041 3744.989746,3536.841797 3788.986084,3536.663330 
	C3793.468506,3536.645020 3797.945312,3535.207275 3803.226318,3534.288818 
	C3804.824707,3525.901367 3806.616699,3518.155029 3807.739746,3510.312988 
	C3812.368408,3477.995605 3816.765137,3445.645020 3821.300293,3413.314209 
	C3830.185303,3349.974365 3839.097412,3286.638428 3848.013916,3223.302979 
	C3855.444336,3170.521973 3862.940674,3117.750488 3870.327148,3064.963379 
	C3876.605469,3020.093018 3882.816406,2975.212891 3888.896240,2930.315674 
	C3889.395264,2926.629395 3888.657227,2922.775635 3888.487305,2918.834961 
	C3880.465088,2915.597412 3873.061768,2916.709229 3865.873779,2916.699707 
	C3793.878174,2916.604980 3721.882324,2916.641602 3649.886719,2916.645752 
	C3645.887207,2916.645996 3641.872803,2916.920898 3637.891113,2916.667236 
	C3629.483643,2916.132568 3624.273438,2920.110840 3620.416504,2927.329346 
	C3611.935791,2943.200439 3603.040283,2958.849609 3594.307373,2974.585449 
	C3535.116943,3081.239746 3475.924805,3187.893066 3415.333984,3297.128662 
M4660.314941,3501.961182 
	C4660.400391,3512.445068 4654.840332,3522.640137 4658.616699,3534.423584 
	C4662.947266,3535.195557 4667.377930,3536.656738 4671.813477,3536.671631 
	C4716.469727,3536.822998 4761.126953,3536.791748 4805.783203,3536.620117 
	C4809.578125,3536.605469 4813.367188,3535.210449 4818.237793,3534.242188 
	C4820.110352,3523.311279 4822.161133,3512.941406 4823.630859,3502.489746 
	C4830.959961,3450.374268 4838.078613,3398.229004 4845.382324,3346.109863 
	C4852.871582,3292.672852 4860.504883,3239.256592 4868.046875,3185.827148 
	C4875.402832,3133.716309 4882.704102,3081.598145 4890.063965,3029.488037 
	C4894.349609,2999.144043 4898.814453,2968.824463 4902.933105,2938.458008 
	C4903.798340,2932.076660 4905.809570,2925.302246 4900.152344,2917.807617 
	C4894.662598,2917.463135 4888.149902,2916.706543 4881.636230,2916.698975 
	C4808.317871,2916.614258 4735.000000,2916.642090 4661.681641,2916.652832 
	C4657.683594,2916.653320 4653.685547,2916.814941 4649.687500,2916.830566 
	C4643.793945,2916.853516 4639.558105,2919.565674 4636.708496,2924.630615 
	C4635.401367,2926.953613 4634.036621,2929.244141 4632.743164,2931.574463 
	C4578.420898,3029.477051 4524.098633,3127.379150 4469.790039,3225.289551 
	C4447.484375,3265.502441 4425.270508,3305.766357 4402.858887,3345.919922 
	C4399.727539,3351.529297 4397.500977,3358.078125 4391.026855,3361.687256 
	C4385.172852,3357.544922 4384.837402,3351.364258 4383.299805,3345.822998 
	C4362.101562,3269.409180 4340.943359,3192.984375 4319.739746,3116.572021 
	C4302.991211,3056.212891 4286.227539,2995.858154 4269.368652,2935.529785 
	C4267.623535,2929.284668 4267.399414,2922.142578 4259.763184,2917.403809 
	C4254.968750,2917.186523 4249.015137,2916.684814 4243.062012,2916.681396 
	C4153.080566,2916.630615 4063.099121,2916.643555 3973.117676,2916.651611 
	C3969.785889,2916.651855 3966.392334,2916.376953 3963.140869,2916.915283 
	C3960.183105,2917.404541 3957.379883,2918.828125 3953.869873,2920.064941 
	C3955.832764,2925.714844 3957.108887,2930.152100 3958.889404,2934.376709 
	C3965.618408,2950.343018 3972.147705,2966.409668 3979.458740,2982.109619 
	C3985.247070,2994.539795 3988.747559,3006.793213 3984.947510,3020.628418 
	C3983.023926,3027.630371 3982.876465,3035.114502 3981.852295,3042.370117 
	C3973.471436,3101.739014 3965.045898,3161.101562 3956.687744,3220.473877 
	C3948.980469,3275.225098 3941.292480,3329.979248 3933.684326,3384.744385 
	C3927.267822,3430.933594 3920.931641,3477.134033 3914.724121,3523.351562 
	C3914.233643,3527.004883 3915.035400,3530.831543 3915.217773,3534.221191 
	C3932.908691,3537.696289 3989.729736,3538.652588 4058.104736,3536.742676 
	C4063.292236,3536.597656 4068.456055,3535.601074 4075.665527,3534.764404 
	C4087.526367,3459.385010 4096.876953,3384.164307 4107.807617,3309.184814 
	C4118.844238,3233.483398 4128.479004,3157.574219 4141.425781,3081.775391 
	C4144.454590,3085.570068 4146.543457,3089.423828 4147.758789,3093.535889 
	C4169.490234,3167.024414 4191.112793,3240.545410 4212.763672,3314.057861 
	C4232.908203,3382.456787 4253.029785,3450.863037 4273.263672,3519.235840 
	C4274.934570,3524.882080 4275.799316,3531.093262 4282.709961,3536.217773 
	C4288.331543,3536.388184 4295.593750,3536.787842 4302.856934,3536.798584 
	C4344.181641,3536.859863 4385.506348,3536.908203 4426.831055,3536.801758 
	C4456.709961,3536.724854 4451.528809,3538.969971 4465.594238,3514.527100 
	C4520.107422,3419.792969 4574.289551,3324.868164 4628.584473,3230.009033 
	C4655.731445,3182.579590 4682.826172,3135.120117 4710.068359,3087.745361 
	C4711.789551,3084.751953 4712.480957,3079.836670 4717.990723,3080.997070 
	C4718.289062,3082.332764 4718.963867,3083.654053 4718.798340,3084.859863 
	C4713.360840,3124.457275 4707.890137,3164.050293 4702.326172,3203.630371 
	C4695.000488,3255.744873 4687.586914,3307.847168 4680.221680,3359.956055 
	C4673.695312,3406.128174 4667.183594,3452.302734 4660.314941,3501.961182 
M2453.816650,3551.044922 
	C2467.771240,3550.166260 2481.730713,3549.362549 2495.679199,3548.396240 
	C2559.792725,3543.954346 2620.091553,3526.461670 2676.516113,3495.612305 
	C2809.021240,3423.166992 2880.041260,3284.653564 2863.854980,3138.991699 
	C2856.284424,3070.864746 2824.479248,3015.311768 2770.703369,2972.613037 
	C2730.097412,2940.371338 2683.289307,2921.988770 2632.851318,2912.324951 
	C2580.080566,2902.214844 2526.971924,2901.485596 2473.666748,2907.837402 
	C2406.428955,2915.849121 2343.650146,2936.703613 2286.855225,2973.816162 
	C2226.223389,3013.436035 2180.116943,3065.836426 2151.709229,3132.946533 
	C2128.164795,3188.568604 2118.788330,3246.602783 2123.755371,3306.817871 
	C2128.523682,3364.627686 2150.193359,3415.003418 2190.364258,3457.270264 
	C2219.400635,3487.821533 2254.108887,3509.517334 2293.192627,3524.586426 
	C2343.656006,3544.042969 2396.356934,3550.359863 2453.816650,3551.044922 
M1453.116089,3035.123535 
	C1428.325684,3063.358643 1407.472290,3094.162598 1392.950806,3128.937988 
	C1368.667603,3187.090576 1357.882812,3247.454834 1363.697754,3310.516602 
	C1367.891968,3356.002441 1382.752441,3397.489990 1409.462158,3434.614014 
	C1439.140747,3475.864746 1478.887085,3504.035645 1525.359497,3523.372070 
	C1570.951416,3542.342529 1618.993408,3549.322510 1667.838867,3550.799072 
	C1718.733521,3552.337646 1768.986572,3546.538818 1817.944336,3532.051025 
	C1896.034058,3508.942139 1962.500732,3467.878418 2013.495361,3403.517578 
	C2038.583496,3371.853271 2057.197510,3336.680908 2068.989502,3297.982666 
	C2070.701660,3292.363525 2073.501221,3286.753662 2069.776123,3279.175781 
	C2065.485107,3278.540283 2060.429443,3277.159668 2055.368164,3277.140625 
	C2010.056641,3276.968994 1964.741699,3277.284912 1919.433350,3276.864258 
	C1907.911011,3276.757324 1899.986816,3279.997559 1896.793823,3291.680420 
	C1896.273560,3293.584473 1895.205322,3295.342041 1894.359619,3297.153076 
	C1873.163818,3342.544678 1838.159180,3372.145996 1791.116333,3388.515869 
	C1756.453247,3400.577637 1720.781128,3402.358887 1684.609131,3401.225586 
	C1665.793457,3400.635986 1647.388672,3397.809326 1629.682007,3391.649902 
	C1577.023560,3373.330811 1545.584473,3337.509521 1539.059448,3281.092041 
	C1535.553711,3250.780518 1539.017578,3221.217285 1547.565918,3192.218994 
	C1566.027100,3129.593262 1606.414429,3087.349365 1667.832642,3065.577393 
	C1702.246094,3053.378174 1738.020752,3049.984863 1774.249023,3053.032715 
	C1796.185913,3054.878174 1817.805420,3059.096924 1838.318359,3067.656250 
	C1877.849487,3084.151611 1904.030273,3112.128174 1913.298096,3154.713135 
	C1914.694214,3161.128418 1916.451172,3167.464844 1918.201416,3174.479980 
	C1923.309814,3175.212402 1927.811157,3176.406006 1932.315918,3176.419189 
	C1978.960449,3176.552734 2025.605713,3176.549072 2072.250244,3176.406006 
	C2076.719482,3176.392334 2081.185059,3175.182617 2084.895752,3174.638916 
	C2089.754883,3167.482666 2088.591309,3160.654053 2088.365234,3154.150635 
	C2085.590576,3074.249268 2051.465576,3010.883789 1987.073608,2963.838867 
	C1959.354858,2943.587646 1928.539673,2929.347168 1895.520630,2920.182617 
	C1818.822876,2898.894531 1741.514282,2898.746582 1664.061035,2915.307617 
	C1582.249756,2932.800293 1512.125610,2971.483887 1453.116089,3035.123535 
M2983.600342,2230.186035 
	C2983.280029,2220.382812 2989.023682,2210.803223 2985.060303,2200.826416 
	C2976.094238,2195.653320 2966.552002,2197.555176 2957.400879,2197.549316 
	C2776.833984,2197.433838 2596.267334,2197.461670 2415.700439,2197.469727 
	C2410.371094,2197.469971 2404.996094,2197.168701 2399.727783,2197.763428 
	C2396.062256,2198.177490 2392.542969,2199.886475 2387.714111,2201.408936 
	C2390.796143,2209.329346 2393.260010,2216.156738 2396.086914,2222.830078 
	C2403.102539,2239.392578 2409.533691,2256.263428 2417.625244,2272.290771 
	C2424.680176,2286.264404 2424.798340,2300.140381 2422.606934,2315.007812 
	C2414.838379,2367.712402 2407.521973,2420.483643 2400.107910,2473.239990 
	C2392.879150,2524.678223 2385.782959,2576.134766 2378.551270,2627.572754 
	C2370.207764,2686.922607 2361.759521,2746.257812 2353.446045,2805.612061 
	C2353.003662,2808.770020 2353.388916,2812.043945 2353.388916,2814.993652 
	C2356.226562,2816.399658 2357.958740,2818.000977 2359.702393,2818.013428 
	C2409.655029,2818.374512 2459.608887,2818.623047 2509.562744,2818.712646 
	C2513.410889,2818.719727 2517.260986,2817.429199 2520.800537,2816.797119 
	C2525.617188,2809.058838 2525.789062,2800.858887 2526.910645,2793.110352 
	C2535.210693,2735.771240 2543.673828,2678.447510 2551.031494,2620.983643 
	C2554.375732,2594.863770 2556.797363,2596.435059 2579.516113,2596.428955 
	C2680.793457,2596.401855 2782.070557,2596.417725 2883.347900,2596.413818 
	C2889.344482,2596.413574 2895.358154,2596.648926 2901.332031,2596.269775 
	C2905.825195,2595.984375 2910.266846,2594.889648 2915.810791,2593.977539 
	C2923.889160,2552.287842 2928.031738,2510.573975 2934.216797,2469.187744 
	C2934.885742,2464.713135 2934.307129,2460.052246 2934.307129,2455.604004 
	C2926.678711,2450.225098 2918.428955,2452.088379 2910.647217,2452.078125 
	C2810.036133,2451.945557 2709.425293,2451.991943 2608.814209,2451.983887 
	C2602.151611,2451.983398 2595.469482,2452.203613 2588.833984,2451.760498 
	C2585.052734,2451.508057 2581.347168,2450.118408 2576.920654,2449.079590 
	C2576.286865,2426.919434 2581.700928,2406.178711 2584.296875,2385.192627 
	C2585.907227,2372.171631 2586.330078,2358.750000 2590.989990,2346.405029 
	C2599.260986,2342.241211 2607.377441,2343.626465 2615.211182,2343.619629 
	C2721.818848,2343.524658 2828.426514,2343.555908 2935.034180,2343.552490 
	C2941.030762,2343.552246 2947.048828,2343.823730 2953.016846,2343.400879 
	C2957.465332,2343.085449 2961.848633,2341.853027 2967.009521,2340.889160 
	C2968.664795,2331.662842 2970.412354,2323.234375 2971.658447,2314.732666 
	C2975.619141,2287.717529 2979.392822,2260.675049 2983.600342,2230.186035 
M3715.021973,2733.214844 
	C3717.675781,2714.078369 3720.323242,2694.940918 3722.985107,2675.805664 
	C3736.846680,2576.166016 3750.678467,2476.522217 3764.639648,2376.896729 
	C3765.729980,2369.117432 3767.732666,2361.465576 3769.223633,2354.182373 
	C3778.150879,2350.055664 3786.240723,2351.128174 3794.105225,2351.116699 
	C3855.428955,2351.027832 3916.752930,2351.101562 3978.076660,2351.022461 
	C3985.974609,2351.012207 3993.872070,2350.413330 4000.302246,2350.147705 
	C4006.347656,2344.114746 4006.611816,2338.004150 4007.456299,2332.096191 
	C4009.906738,2314.948975 4012.372314,2297.803467 4014.799316,2280.652832 
	C4017.599609,2260.862549 4020.598389,2241.095703 4023.019531,2221.258545 
	C4023.873291,2214.263184 4026.221436,2206.824707 4020.636230,2198.662842 
	C4012.799316,2198.281982 4004.270020,2197.508789 3995.740479,2197.505859 
	C3800.437500,2197.437744 3605.134766,2197.450439 3409.831787,2197.468994 
	C3403.836426,2197.469482 3397.816162,2197.412354 3391.855713,2197.934326 
	C3388.693604,2198.211182 3385.635254,2199.676758 3382.165039,2200.714844 
	C3381.090820,2204.932617 3379.764160,2208.697021 3379.201660,2212.572021 
	C3373.074951,2254.765869 3367.011475,2296.968750 3361.147461,2339.199463 
	C3360.731445,2342.195801 3362.021729,2345.428955 3362.518555,2348.552979 
	C3371.041504,2352.100830 3379.118652,2351.003662 3386.992676,2351.015869 
	C3446.316895,2351.107910 3505.640869,2351.062500 3564.965088,2351.072510 
	C3570.963623,2351.073486 3576.994873,2350.795166 3582.948730,2351.335205 
	C3586.612061,2351.667480 3590.156982,2353.307129 3594.216309,2354.494873 
	C3593.953613,2358.810791 3593.969238,2362.103516 3593.522705,2365.332275 
	C3589.321289,2395.690430 3585.038086,2426.036865 3580.784424,2456.387695 
	C3571.722656,2521.044678 3562.668945,2585.703125 3553.602783,2650.359375 
	C3546.756836,2699.182617 3539.830078,2747.994873 3533.123047,2796.836914 
	C3532.244385,2803.235840 3530.252930,2809.979004 3535.228027,2816.992920 
	C3539.128174,2817.554443 3543.647217,2818.757324 3548.169678,2818.770508 
	C3594.828369,2818.908936 3641.488281,2818.921875 3688.146729,2818.746338 
	C3692.592773,2818.729736 3697.033203,2817.203857 3702.135254,2816.256348 
	C3708.055908,2789.538330 3709.929443,2762.910645 3715.021973,2733.214844 
M3190.205811,2784.352051 
	C3198.357910,2726.356445 3206.535156,2668.364014 3214.653809,2610.363770 
	C3220.466064,2568.841309 3226.155273,2527.301514 3231.978760,2485.780518 
	C3239.374023,2433.055420 3246.847168,2380.341064 3254.291748,2327.622803 
	C3259.689453,2289.402100 3265.180664,2251.194092 3270.376465,2212.945801 
	C3270.954102,2208.692383 3269.869385,2204.213135 3269.520264,2199.342773 
	C3265.072998,2198.627197 3261.853760,2197.663818 3258.632568,2197.657471 
	C3210.027100,2197.563477 3161.421387,2197.532715 3112.816406,2197.721680 
	C3109.107422,2197.736084 3105.405518,2199.516357 3101.086426,2200.635010 
	C3099.541016,2209.096680 3097.828857,2216.858398 3096.734863,2224.706055 
	C3084.148926,2315.008057 3071.776367,2405.339844 3059.106689,2495.629883 
	C3045.234863,2594.488037 3031.064209,2693.303955 3017.190430,2792.161621 
	C3016.103760,2799.904053 3013.993896,2807.915527 3018.239502,2816.589355 
	C3022.279541,2817.289551 3026.760010,2818.724854 3031.245605,2818.741455 
	C3077.188232,2818.911865 3123.131592,2818.860596 3169.074951,2818.834473 
	C3171.729492,2818.833008 3174.391602,2818.588623 3177.036865,2818.323486 
	C3182.384521,2817.787598 3185.538330,2814.611328 3186.417480,2809.509521 
	C3187.659912,2802.300781 3188.512207,2795.024414 3190.205811,2784.352051 
M4004.338135,3838.267334 
	C3975.875244,3874.103760 3967.551758,3914.912354 3977.801514,3958.741455 
	C3995.257324,4033.383545 4063.963379,4068.281250 4128.250977,4062.164551 
	C4148.537109,4060.234375 4167.257324,4053.980713 4183.248047,4040.740967 
	C4185.458496,4038.910645 4188.413574,4037.980225 4192.113281,4036.071045 
	C4192.459473,4041.083496 4192.534180,4044.386719 4192.956543,4047.645508 
	C4193.359375,4050.750732 4194.122559,4053.809082 4194.940918,4057.974854 
	C4204.362305,4058.134277 4212.929688,4058.532959 4221.485352,4058.352539 
	C4229.913086,4058.175049 4238.553711,4059.760010 4246.917480,4056.782959 
	C4250.697754,4043.696777 4248.639648,4030.992188 4248.967773,4018.460449 
	C4249.298340,4005.813477 4249.040527,3993.151123 4249.040527,3980.495361 
	C4249.040527,3967.839600 4249.179199,3955.182129 4249.000977,3942.528809 
	C4248.825195,3930.072998 4249.822266,3917.533447 4248.316406,3905.442871 
	C4228.531250,3902.636230 4140.388184,3902.734131 4123.841797,3905.370850 
	C4120.843750,3923.882568 4121.134277,3948.002686 4124.644531,3962.679688 
	C4139.912598,3965.310791 4155.848145,3961.977783 4173.017090,3964.983398 
	C4171.205078,3968.853027 4170.554199,3971.346191 4169.091797,3973.198730 
	C4149.914551,3997.493408 4116.113281,4005.709961 4085.949707,3993.044678 
	C4057.904053,3981.269043 4043.484619,3959.126221 4042.033691,3929.443359 
	C4040.586426,3899.834473 4052.402832,3875.755859 4079.134766,3861.535645 
	C4106.117188,3847.182373 4133.057129,3849.270508 4158.336914,3866.729492 
	C4163.740234,3870.461426 4168.332031,3875.369141 4173.044922,3879.512451 
	C4195.608887,3879.512451 4217.575684,3879.538330 4239.542480,3879.436768 
	C4240.638672,3879.431641 4241.729004,3878.323242 4243.698242,3877.251953 
	C4243.080566,3874.389404 4242.819336,3871.094727 4241.664062,3868.150879 
	C4228.742676,3835.221680 4204.683105,3813.298096 4172.590332,3799.947510 
	C4113.065430,3775.184570 4044.136719,3791.238525 4004.338135,3838.267334 
M3755.789551,3881.705078 
	C3745.837402,3866.721191 3736.029297,3851.639160 3725.893066,3836.781006 
	C3715.825439,3822.022949 3706.883057,3806.432617 3695.656494,3792.796875 
	C3684.458008,3792.796875 3674.478271,3792.647461 3664.505127,3792.837891 
	C3654.008545,3793.038574 3643.415039,3791.875244 3631.875977,3794.107666 
	C3631.551270,3801.231201 3631.036133,3807.805908 3630.992432,3814.383789 
	C3630.872559,3832.377930 3630.951172,3850.373535 3630.951172,3868.368408 
	C3630.951172,3924.352539 3630.888916,3980.336670 3631.028564,4036.320312 
	C3631.046143,4043.412109 3629.170898,4051.007812 3634.718262,4057.645508 
	C3654.398926,4057.645508 3674.246094,4057.645508 3695.482422,4057.645508 
	C3695.956299,4049.742920 3696.733154,4042.543945 3696.761230,4035.341797 
	C3696.895996,4000.685547 3696.782227,3966.028076 3696.893066,3931.371826 
	C3696.906494,3927.151855 3695.617676,3922.252686 3701.556885,3918.235596 
	C3705.607910,3923.683350 3709.655518,3928.667480 3713.210693,3933.980957 
	C3737.663086,3970.524902 3761.990479,4007.153076 3786.421631,4043.711670 
	C3789.703369,4048.621826 3793.342285,4053.293213 3796.260742,4057.310791 
	C3828.255127,4059.805420 3847.778564,4059.189697 3860.688477,4055.437500 
	C3863.031006,4040.571533 3864.470703,3846.481445 3862.458252,3803.930176 
	C3862.308105,3800.751221 3861.325439,3797.611816 3860.566895,3793.591553 
	C3849.387695,3792.219482 3838.780273,3792.600098 3828.259277,3792.914062 
	C3817.863525,3793.224121 3807.113281,3790.652588 3797.399170,3795.135010 
	C3796.986084,3796.533936 3796.639648,3797.166504 3796.634033,3797.802002 
	C3796.239990,3842.423828 3795.875977,3887.045898 3795.473145,3931.667725 
	C3795.468262,3932.219727 3795.125977,3932.908447 3794.713135,3933.281006 
	C3794.245850,3933.703125 3793.520264,3933.839844 3791.368164,3934.756104 
	C3779.622559,3918.468018 3768.943604,3900.978760 3755.789551,3881.705078 
M2331.771484,3902.000000 
	C2331.569336,3867.370605 2331.369141,3832.741211 2331.144775,3798.112061 
	C2331.140625,3797.464600 2330.965332,3796.745850 2330.642334,3796.193848 
	C2330.321289,3795.645996 2329.712402,3795.266846 2329.229492,3794.813721 
	C2309.949951,3791.536865 2280.101074,3791.932861 2265.667725,3795.915527 
	C2265.403809,3801.469238 2264.910156,3807.345215 2264.883301,3813.223633 
	C2264.783203,3835.210938 2264.936279,3857.199951 2264.745850,3879.186035 
	C2264.707764,3883.590576 2263.579834,3887.985596 2262.995361,3892.095947 
	C2234.997803,3894.630127 2187.024170,3893.919922 2171.487549,3890.646484 
	C2171.204834,3885.138184 2170.674561,3879.295898 2170.646240,3873.450928 
	C2170.539795,3851.463623 2170.702148,3829.474609 2170.505127,3807.488525 
	C2170.465088,3803.030762 2169.299316,3798.583008 2168.496338,3793.055420 
	C2147.093018,3792.641602 2126.616943,3792.458008 2105.399414,3793.207764 
	C2104.834473,3798.728027 2103.974121,3803.244141 2103.969238,3807.760986 
	C2103.886230,3886.384033 2103.881592,3965.007080 2103.976318,4043.630127 
	C2103.981689,4048.125488 2104.985840,4052.619873 2105.688721,4058.479004 
	C2117.029785,4058.479004 2127.642822,4058.843506 2138.219238,4058.375488 
	C2148.579834,4057.917236 2159.378662,4060.885254 2170.603760,4054.988525 
	C2170.603760,4044.459473 2170.603760,4033.868408 2170.603760,4023.277588 
	C2170.603760,4011.950439 2170.355713,4000.616455 2170.675781,3989.298340 
	C2170.973145,3978.770752 2168.924805,3968.030762 2173.286133,3956.290771 
	C2202.890625,3956.216064 2232.727783,3956.081299 2261.922852,3956.390869 
	C2266.089111,3963.824463 2264.733643,3970.612061 2264.781982,3977.156738 
	C2264.944824,3999.143311 2264.781738,4021.132324 2264.908447,4043.119385 
	C2264.933838,4047.558594 2265.682129,4051.993408 2266.060547,4056.037354 
	C2285.444580,4059.626221 2316.368896,4059.302246 2331.748291,4055.245850 
	C2331.792480,4005.770020 2331.763428,3955.884766 2331.771484,3902.000000 
M1980.319092,3994.504150 
	C1986.337524,3982.954834 1992.748047,3971.532227 1993.494019,3958.138428 
	C1977.552612,3954.687988 1943.642700,3954.402588 1924.658936,3957.348877 
	C1921.455688,3962.017090 1918.387329,3967.170166 1914.668457,3971.800537 
	C1883.312134,4010.844238 1820.947510,4006.819092 1795.444824,3964.191895 
	C1775.344849,3930.594971 1784.755005,3886.147461 1816.484253,3864.815430 
	C1849.383057,3842.697266 1894.114502,3850.919922 1917.609619,3883.436279 
	C1920.637695,3887.627686 1923.495117,3891.942139 1926.345581,3896.074951 
	C1947.300171,3896.074951 1967.255249,3896.114746 1987.209473,3896.010986 
	C1989.104858,3896.000977 1990.995605,3895.093750 1993.010620,3894.571533 
	C1994.297485,3885.309082 1990.345581,3877.406250 1986.810425,3869.754883 
	C1965.574707,3823.791748 1929.172852,3797.739258 1879.534546,3790.146240 
	C1803.945923,3778.583252 1728.532104,3825.485596 1718.135254,3908.032471 
	C1711.551147,3960.308350 1734.576172,4024.342285 1799.895996,4051.470215 
	C1864.822632,4078.435303 1942.930298,4057.152832 1980.319092,3994.504150 
M2469.534424,4058.435303 
	C2478.795166,4058.435303 2488.055908,4058.435303 2498.221436,4058.435303 
	C2503.590576,4044.008057 2508.629150,4030.468750 2513.634277,4017.019043 
	C2547.547852,4017.019043 2580.059082,4017.019043 2612.533447,4017.019043 
	C2621.164307,4029.671631 2621.169922,4045.500488 2630.393555,4058.104248 
	C2651.493408,4058.104248 2672.742432,4058.166748 2693.989014,4057.978760 
	C2695.589600,4057.964844 2697.174316,4056.164062 2698.646973,4055.266602 
	C2690.059570,4024.705322 2608.922363,3806.711914 2600.800537,3792.796875 
	C2588.750244,3792.796875 2576.129150,3792.608887 2563.516602,3792.850098 
	C2550.987305,3793.089600 2538.371826,3791.739258 2524.985107,3793.952637 
	C2514.048584,3823.397705 2503.152100,3852.635986 2492.329346,3881.901611 
	C2481.721436,3910.584717 2470.933350,3939.205078 2460.692871,3968.019531 
	C2450.319336,3997.208984 2438.321289,4025.854248 2428.933594,4056.762207 
	C2442.191650,4059.763428 2454.108887,4057.869141 2469.534424,4058.435303 
M4441.270996,3892.696045 
	C4439.913574,3891.420166 4437.542480,3890.273438 4437.359863,3888.847412 
	C4436.021484,3878.363037 4435.542969,3867.837891 4438.000977,3856.081787 
	C4444.865234,3855.946289 4451.451172,3855.716553 4458.037109,3855.704102 
	C4483.368164,3855.656250 4508.700195,3855.776855 4534.029297,3855.579590 
	C4538.402344,3855.545654 4542.765625,3854.270508 4547.935059,3853.439697 
	C4547.394531,3833.146729 4549.065430,3814.016113 4546.854004,3795.240234 
	C4530.111328,3792.121094 4390.224121,3791.870117 4371.820801,3794.836670 
	C4371.347656,3799.137207 4370.417480,3803.678467 4370.412598,3808.220947 
	C4370.325195,3886.880859 4370.313477,3965.540527 4370.449219,4044.200195 
	C4370.457031,4048.604248 4371.876953,4053.005615 4372.817383,4058.435303 
	C4393.102051,4058.435303 4412.386230,4058.435303 4431.670410,4058.435303 
	C4451.001953,4058.435303 4470.337402,4058.657471 4489.664551,4058.372314 
	C4508.805176,4058.090332 4528.029297,4059.716797 4546.813477,4057.271729 
	C4550.554688,4041.588135 4550.660156,4013.907227 4547.057617,3996.555908 
	C4540.793945,3996.292969 4534.232910,3995.804688 4527.669434,3995.779297 
	C4502.338379,3995.680176 4477.006836,3995.798340 4451.676758,3995.657471 
	C4447.250000,3995.633057 4442.828613,3994.751221 4437.334961,3994.147705 
	C4436.414551,3981.282959 4435.010254,3969.697998 4438.603516,3957.338867 
	C4470.806641,3954.308594 4502.677734,3958.028320 4535.438477,3955.104004 
	C4535.413086,3934.507568 4537.018555,3914.851562 4534.192383,3894.065186 
	C4503.809082,3892.602051 4474.567383,3893.890869 4441.270996,3892.696045 
M3333.081543,4036.897949 
	C3333.584229,4043.359863 3331.691895,4050.136719 3335.915771,4057.786621 
	C3354.654541,4059.177734 3373.858643,4058.299805 3393.011719,4058.445312 
	C3412.997314,4058.597168 3432.988281,4058.690918 3452.971436,4058.417725 
	C3472.105713,4058.156006 3491.315430,4059.708740 3510.152100,4057.338623 
	C3513.968018,4040.092285 3513.809814,4012.464111 3509.680176,3996.501465 
	C3503.549561,3996.249268 3497.001953,3995.771729 3490.452637,3995.747559 
	C3465.136475,3995.653564 3439.818848,3995.773438 3414.502930,3995.635498 
	C3410.072754,3995.611328 3405.647217,3994.731201 3400.894043,3994.210693 
	C3400.894043,3981.402588 3400.894043,3969.608398 3400.894043,3956.541016 
	C3417.735596,3956.430176 3433.664551,3956.335449 3449.593750,3956.217285 
	C3465.485107,3956.099609 3481.376465,3955.958008 3496.992432,3955.829346 
	C3500.181641,3936.389893 3499.887695,3909.954590 3496.342529,3894.526123 
	C3465.156982,3891.090576 3433.283691,3895.611816 3400.784668,3892.001709 
	C3399.534668,3879.927002 3399.463867,3868.968506 3400.872559,3856.759521 
	C3407.594482,3856.377930 3413.404785,3855.787109 3419.217285,3855.763184 
	C3445.199951,3855.656250 3471.183838,3855.805176 3497.165527,3855.615967 
	C3501.538086,3855.584229 3505.901611,3854.345459 3509.924805,3853.718262 
	C3512.997803,3824.802246 3512.229980,3805.362793 3507.698486,3793.688232 
	C3505.808350,3793.417480 3503.843262,3792.892334 3501.877686,3792.889893 
	C3449.245850,3792.827148 3396.614258,3792.788818 3343.982422,3792.872070 
	C3340.885010,3792.876953 3337.789062,3793.932129 3335.437744,3794.362061 
	C3334.435303,3796.904785 3333.544922,3798.112305 3333.541748,3799.322021 
	C3333.342773,3877.261719 3333.215088,3955.201660 3333.081543,4036.897949 
M4130.001953,2595.964600 
	C4173.286621,2595.791748 4216.571777,2595.644775 4259.855957,2595.356445 
	C4261.690430,2595.344238 4263.516602,2594.017334 4266.037109,2593.033691 
	C4267.066895,2589.533447 4268.637695,2585.851318 4269.200195,2582.021240 
	C4274.133301,2548.434814 4279.013672,2514.839355 4283.550781,2481.197998 
	C4284.217773,2476.252686 4283.002930,2471.053711 4282.644531,2465.760498 
	C4278.828613,2464.812744 4276.315918,2463.646484 4273.800781,2463.642822 
	C4208.536133,2463.549805 4143.271484,2463.555420 4078.007080,2463.670410 
	C4075.492432,2463.674805 4072.980225,2464.937012 4069.177246,2465.959961 
	C4067.707764,2472.928711 4066.004150,2479.936279 4064.804688,2487.029297 
	C4063.807129,2492.928955 4063.556641,2498.951416 4062.705811,2504.880859 
	C4059.491699,2527.282959 4056.008057,2549.648193 4052.978271,2572.074707 
	C4052.027100,2579.112793 4050.154541,2586.473145 4053.773438,2592.713623 
	C4055.833496,2593.782471 4056.981445,2594.887451 4058.150146,2594.909180 
	C4080.766357,2595.336670 4103.384766,2595.637695 4130.001953,2595.964600 
M2804.254150,4058.258789 
	C2856.852051,4058.258789 2909.449951,4058.258789 2961.734863,4058.258789 
	C2965.739014,4042.276611 2965.958984,4015.134033 2962.054443,3995.938232 
	C2930.210693,3995.310059 2897.747070,3996.120117 2864.097412,3995.438232 
	C2863.906982,3986.772217 2863.615479,3979.522949 2863.609863,3972.273926 
	C2863.570068,3919.609131 2863.622314,3866.944336 2863.544189,3814.279541 
	C2863.534424,3807.804443 2862.925537,3801.330322 2862.614014,3795.238525 
	C2843.424561,3791.665527 2812.553711,3791.924805 2797.345215,3795.798096 
	C2797.111816,3801.952881 2796.652832,3808.492188 2796.648438,3815.031738 
	C2796.597412,3889.029053 2796.612549,3963.026611 2796.624268,4037.023926 
	C2796.625000,4041.688965 2796.341553,4046.410889 2796.983154,4050.995361 
	C2797.302246,4053.276855 2799.420654,4055.306152 2804.254150,4058.258789 
M3133.574951,3994.138428 
	C3132.973877,3986.898682 3131.872559,3979.660645 3131.852051,3972.419189 
	C3131.703125,3919.767090 3131.802002,3867.114014 3131.731445,3814.461426 
	C3131.722656,3807.970459 3131.173828,3801.479736 3130.769043,3792.681152 
	C3108.654785,3793.404053 3087.775879,3791.359131 3065.281250,3794.312744 
	C3064.424805,3817.128418 3064.955811,3838.989990 3064.863770,3860.827148 
	C3064.773926,3882.154541 3064.844238,3903.482422 3064.844238,3924.810059 
	C3064.844238,3946.804199 3064.600586,3968.801758 3064.913086,3990.791504 
	C3065.222900,4012.566406 3063.519287,4034.426270 3066.182373,4056.977295 
	C3070.251709,4057.545898 3073.433350,4058.271240 3076.637939,4058.395752 
	C3115.406982,4059.902588 3215.350830,4058.862061 3231.628418,4056.692871 
	C3234.108398,4037.303467 3233.541748,4017.683838 3231.941162,3996.606934 
	C3199.841553,3994.552979 3168.611572,3996.522461 3133.574951,3994.138428 
M3955.993896,2699.125000 
	C3956.106934,2690.821533 3961.129639,2682.431885 3955.926270,2673.541992 
	C3939.869141,2670.512207 3923.910645,2672.329834 3908.068604,2672.020264 
	C3892.757324,2671.720947 3877.424072,2671.587891 3862.121338,2672.057617 
	C3846.353516,2672.541748 3830.337646,2669.716309 3814.120117,2674.533936 
	C3812.810059,2679.971436 3811.165527,2685.003174 3810.422607,2690.164307 
	C3804.734131,2729.697754 3799.178955,2769.250732 3793.759766,2808.822021 
	C3793.434082,2811.199707 3794.631592,2813.785645 3795.246338,2816.915527 
	C3798.917969,2817.611084 3802.095215,2818.728516 3805.275879,2818.737305 
	C3845.898438,2818.851807 3886.521973,2818.885010 3927.143555,2818.672119 
	C3930.836426,2818.652832 3934.520020,2816.793457 3938.813477,2815.623535 
	C3946.051514,2777.729492 3949.836426,2739.992188 3955.993896,2699.125000 
M2756.426025,2690.439941 
	C2756.212646,2692.425049 2756.060791,2694.418945 2755.777100,2696.394043 
	C2751.049561,2729.315674 2746.217773,2762.223145 2741.635498,2795.165039 
	C2740.658203,2802.189941 2738.456543,2809.495850 2743.088867,2817.085205 
	C2746.846924,2817.664307 2750.706055,2818.764160 2754.568115,2818.775635 
	C2793.831299,2818.891357 2833.095215,2818.892578 2872.358154,2818.717285 
	C2876.142822,2818.700439 2879.921387,2817.279297 2884.804199,2816.286133 
	C2893.095947,2773.352295 2897.325928,2730.400146 2903.721680,2687.794678 
	C2904.378174,2683.421875 2903.809814,2678.865234 2903.809814,2674.422607 
	C2900.813232,2673.445312 2898.988281,2672.336182 2897.159180,2672.329346 
	C2855.236572,2672.173340 2813.313721,2672.101318 2771.390869,2672.150391 
	C2768.155762,2672.154297 2764.921631,2673.169922 2760.979492,2673.834473 
	C2759.555908,2678.328369 2758.180664,2682.669678 2756.426025,2690.439941 
M3307.187012,2724.472656 
	C3296.484131,2786.853027 3295.281494,2798.437256 3297.926514,2816.363281 
	C3301.992676,2817.151855 3306.394531,2818.552979 3310.857422,2818.785400 
	C3353.538818,2821.009033 3423.833984,2819.529297 3438.280518,2816.290283 
	C3443.352295,2804.253662 3450.814209,2758.886719 3458.758545,2690.649170 
	C3459.351562,2685.557129 3458.836914,2680.336426 3458.836914,2674.326904 
	C3453.139160,2673.419434 3448.698975,2672.244141 3444.219971,2672.070801 
	C3392.551514,2670.066162 3331.790283,2671.255127 3315.864502,2674.600586 
	C3310.235107,2689.235352 3309.782959,2705.256104 3307.187012,2724.472656 
z"/>
<path fill="#4F5731" opacity="1.000000" stroke="none" 
	d="
M3416.033691,3295.837402 
	C3475.924805,3187.893066 3535.116943,3081.239746 3594.307373,2974.585449 
	C3603.040283,2958.849609 3611.935791,2943.200439 3620.416504,2927.329346 
	C3624.273438,2920.110840 3629.483643,2916.132568 3637.891113,2916.667236 
	C3641.872803,2916.920898 3645.887207,2916.645996 3649.886719,2916.645752 
	C3721.882324,2916.641602 3793.878174,2916.604980 3865.873779,2916.699707 
	C3873.061768,2916.709229 3880.465088,2915.597412 3888.487305,2918.834961 
	C3888.657227,2922.775635 3889.395264,2926.629395 3888.896240,2930.315674 
	C3882.816406,2975.212891 3876.605469,3020.093018 3870.327148,3064.963379 
	C3862.940674,3117.750488 3855.444336,3170.521973 3848.013916,3223.302979 
	C3839.097412,3286.638428 3830.185303,3349.974365 3821.300293,3413.314209 
	C3816.765137,3445.645020 3812.368408,3477.995605 3807.739746,3510.312988 
	C3806.616699,3518.155029 3804.824707,3525.901367 3803.226318,3534.288818 
	C3797.945312,3535.207275 3793.468506,3536.645020 3788.986084,3536.663330 
	C3744.989746,3536.841797 3700.991943,3536.842041 3656.995361,3536.704346 
	C3652.552979,3536.690430 3648.114014,3535.436523 3642.640625,3534.600098 
	C3643.055908,3508.257812 3648.613525,3483.594238 3651.863770,3458.695557 
	C3655.140381,3433.592529 3658.896240,3408.552734 3662.351074,3383.472412 
	C3665.897217,3357.730225 3669.238281,3331.959717 3672.845459,3306.226318 
	C3676.359863,3281.152344 3680.144287,3256.116699 3683.722900,3231.051514 
	C3687.301514,3205.988281 3691.010742,3180.939697 3694.222656,3155.828613 
	C3697.385498,3131.104492 3701.642578,3106.478760 3702.407227,3081.192627 
	C3685.968262,3101.016602 3675.152588,3123.760986 3662.451172,3145.326416 
	C3649.936279,3166.575928 3637.793945,3188.045166 3625.537842,3209.446045 
	C3612.950195,3231.426025 3600.423828,3253.440918 3587.866455,3275.438477 
	C3575.639648,3296.856445 3563.432617,3318.286133 3551.171387,3339.685059 
	C3538.578613,3361.661865 3525.908691,3383.594727 3513.312744,3405.569824 
	C3501.048096,3426.967041 3488.967773,3448.470703 3476.562012,3469.785400 
	C3463.856934,3491.614502 3452.204834,3514.086426 3438.816162,3534.410645 
	C3420.948242,3537.607422 3283.450439,3537.689697 3265.981445,3534.754639 
	C3260.547852,3530.088135 3259.672119,3523.203613 3257.818848,3516.921875 
	C3219.723389,3387.793945 3181.734375,3258.635010 3143.703857,3129.488281 
	C3140.126465,3117.340332 3136.466797,3105.216309 3132.724365,3093.118408 
	C3131.793213,3090.107666 3130.389893,3087.243164 3129.382080,3084.751953 
	C3124.212646,3084.373047 3124.345947,3087.672607 3124.010986,3089.998291 
	C3118.595215,3127.587402 3113.288086,3165.191895 3107.966553,3202.794678 
	C3101.804688,3246.333740 3095.607910,3289.868408 3089.508545,3333.416504 
	C3082.207764,3385.543945 3074.991699,3437.683594 3067.744873,3489.818604 
	C3066.277344,3500.377441 3065.047363,3510.975586 3063.283936,3521.484375 
	C3062.536133,3525.941406 3060.694824,3530.214844 3059.355225,3534.555908 
	C3056.029541,3535.336182 3053.471680,3536.452393 3050.909912,3536.460938 
	C3004.915771,3536.613770 2958.921631,3536.664307 2912.927246,3536.612061 
	C2909.702148,3536.608398 2906.478271,3535.628174 2903.176270,3535.089355 
	C2898.040527,3528.041992 2900.052734,3520.606689 2900.946777,3513.592529 
	C2903.558594,3493.105469 2906.639160,3472.678223 2909.524414,3452.225830 
	C2917.062744,3398.787354 2924.604492,3345.349365 2932.128174,3291.908936 
	C2940.952148,3229.231934 2949.781494,3166.556152 2958.561035,3103.873291 
	C2962.257812,3077.478516 2965.497559,3051.013672 2969.650391,3024.691895 
	C2971.064941,3015.725586 2970.373779,3007.711426 2966.689941,2999.487793 
	C2957.971191,2980.024414 2949.569336,2960.416992 2941.216309,2940.792725 
	C2938.410645,2934.200684 2934.642090,2927.801514 2934.576416,2919.046875 
	C2938.101807,2918.203369 2941.099609,2917.034668 2944.156738,2916.850586 
	C2950.136475,2916.490479 2956.149414,2916.647461 2962.148438,2916.646973 
	C3050.143311,2916.640381 3138.137939,2916.641602 3226.132812,2916.644775 
	C3250.964355,2916.645752 3249.363525,2916.305176 3255.802979,2939.419678 
	C3285.315430,3045.355225 3314.607910,3151.352051 3343.990723,3257.323730 
	C3351.825928,3285.582764 3359.664062,3313.841309 3367.591309,3342.074707 
	C3369.376953,3348.435303 3371.541992,3354.689453 3373.384521,3360.524170 
	C3379.662109,3362.310303 3381.230225,3357.968506 3383.082520,3354.699707 
	C3393.927002,3335.562500 3404.601807,3316.329346 3416.033691,3295.837402 
z"/>
<path fill="#4F5731" opacity="1.000000" stroke="none" 
	d="
M4660.490234,3500.218750 
	C4667.183594,3452.302734 4673.695312,3406.128174 4680.221680,3359.956055 
	C4687.586914,3307.847168 4695.000488,3255.744873 4702.326172,3203.630371 
	C4707.890137,3164.050293 4713.360840,3124.457275 4718.798340,3084.859863 
	C4718.963867,3083.654053 4718.289062,3082.332764 4717.990723,3080.997070 
	C4712.480957,3079.836670 4711.789551,3084.751953 4710.068359,3087.745361 
	C4682.826172,3135.120117 4655.731445,3182.579590 4628.584473,3230.009033 
	C4574.289551,3324.868164 4520.107422,3419.792969 4465.594238,3514.527100 
	C4451.528809,3538.969971 4456.709961,3536.724854 4426.831055,3536.801758 
	C4385.506348,3536.908203 4344.181641,3536.859863 4302.856934,3536.798584 
	C4295.593750,3536.787842 4288.331543,3536.388184 4282.709961,3536.217773 
	C4275.799316,3531.093262 4274.934570,3524.882080 4273.263672,3519.235840 
	C4253.029785,3450.863037 4232.908203,3382.456787 4212.763672,3314.057861 
	C4191.112793,3240.545410 4169.490234,3167.024414 4147.758789,3093.535889 
	C4146.543457,3089.423828 4144.454590,3085.570068 4141.425781,3081.775391 
	C4128.479004,3157.574219 4118.844238,3233.483398 4107.807617,3309.184814 
	C4096.876953,3384.164307 4087.526367,3459.385010 4075.665527,3534.764404 
	C4068.456055,3535.601074 4063.292236,3536.597656 4058.104736,3536.742676 
	C3989.729736,3538.652588 3932.908691,3537.696289 3915.217773,3534.221191 
	C3915.035400,3530.831543 3914.233643,3527.004883 3914.724121,3523.351562 
	C3920.931641,3477.134033 3927.267822,3430.933594 3933.684326,3384.744385 
	C3941.292480,3329.979248 3948.980469,3275.225098 3956.687744,3220.473877 
	C3965.045898,3161.101562 3973.471436,3101.739014 3981.852295,3042.370117 
	C3982.876465,3035.114502 3983.023926,3027.630371 3984.947510,3020.628418 
	C3988.747559,3006.793213 3985.247070,2994.539795 3979.458740,2982.109619 
	C3972.147705,2966.409668 3965.618408,2950.343018 3958.889404,2934.376709 
	C3957.108887,2930.152100 3955.832764,2925.714844 3953.869873,2920.064941 
	C3957.379883,2918.828125 3960.183105,2917.404541 3963.140869,2916.915283 
	C3966.392334,2916.376953 3969.785889,2916.651855 3973.117676,2916.651611 
	C4063.099121,2916.643555 4153.080566,2916.630615 4243.062012,2916.681396 
	C4249.015137,2916.684814 4254.968750,2917.186523 4259.763184,2917.403809 
	C4267.399414,2922.142578 4267.623535,2929.284668 4269.368652,2935.529785 
	C4286.227539,2995.858154 4302.991211,3056.212891 4319.739746,3116.572021 
	C4340.943359,3192.984375 4362.101562,3269.409180 4383.299805,3345.822998 
	C4384.837402,3351.364258 4385.172852,3357.544922 4391.026855,3361.687256 
	C4397.500977,3358.078125 4399.727539,3351.529297 4402.858887,3345.919922 
	C4425.270508,3305.766357 4447.484375,3265.502441 4469.790039,3225.289551 
	C4524.098633,3127.379150 4578.420898,3029.477051 4632.743164,2931.574463 
	C4634.036621,2929.244141 4635.401367,2926.953613 4636.708496,2924.630615 
	C4639.558105,2919.565674 4643.793945,2916.853516 4649.687500,2916.830566 
	C4653.685547,2916.814941 4657.683594,2916.653320 4661.681641,2916.652832 
	C4735.000000,2916.642090 4808.317871,2916.614258 4881.636230,2916.698975 
	C4888.149902,2916.706543 4894.662598,2917.463135 4900.152344,2917.807617 
	C4905.809570,2925.302246 4903.798340,2932.076660 4902.933105,2938.458008 
	C4898.814453,2968.824463 4894.349609,2999.144043 4890.063965,3029.488037 
	C4882.704102,3081.598145 4875.402832,3133.716309 4868.046875,3185.827148 
	C4860.504883,3239.256592 4852.871582,3292.672852 4845.382324,3346.109863 
	C4838.078613,3398.229004 4830.959961,3450.374268 4823.630859,3502.489746 
	C4822.161133,3512.941406 4820.110352,3523.311279 4818.237793,3534.242188 
	C4813.367188,3535.210449 4809.578125,3536.605469 4805.783203,3536.620117 
	C4761.126953,3536.791748 4716.469727,3536.822998 4671.813477,3536.671631 
	C4667.377930,3536.656738 4662.947266,3535.195557 4658.616699,3534.423584 
	C4654.840332,3522.640137 4660.400391,3512.445068 4660.490234,3500.218750 
z"/>
<path fill="#4F5731" opacity="1.000000" stroke="none" 
	d="
M2451.907227,3551.046875 
	C2396.356934,3550.359863 2343.656006,3544.042969 2293.192627,3524.586426 
	C2254.108887,3509.517334 2219.400635,3487.821533 2190.364258,3457.270264 
	C2150.193359,3415.003418 2128.523682,3364.627686 2123.755371,3306.817871 
	C2118.788330,3246.602783 2128.164795,3188.568604 2151.709229,3132.946533 
	C2180.116943,3065.836426 2226.223389,3013.436035 2286.855225,2973.816162 
	C2343.650146,2936.703613 2406.428955,2915.849121 2473.666748,2907.837402 
	C2526.971924,2901.485596 2580.080566,2902.214844 2632.851318,2912.324951 
	C2683.289307,2921.988770 2730.097412,2940.371338 2770.703369,2972.613037 
	C2824.479248,3015.311768 2856.284424,3070.864746 2863.854980,3138.991699 
	C2880.041260,3284.653564 2809.021240,3423.166992 2676.516113,3495.612305 
	C2620.091553,3526.461670 2559.792725,3543.954346 2495.679199,3548.396240 
	C2481.730713,3549.362549 2467.771240,3550.166260 2451.907227,3551.046875 
M2313.446533,3323.891602 
	C2330.078613,3353.949951 2355.862305,3372.897949 2387.599854,3384.297363 
	C2396.957031,3387.657959 2406.717529,3389.981201 2416.402832,3392.326904 
	C2439.317627,3397.876465 2462.686279,3396.792480 2485.974365,3396.567383 
	C2514.942627,3396.287354 2542.923340,3390.475098 2569.690674,3379.731201 
	C2618.148438,3360.281250 2654.301758,3327.664307 2674.868164,3278.911621 
	C2686.166992,3252.127930 2691.516602,3223.996338 2691.056641,3195.189941 
	C2690.447510,3157.041748 2677.764893,3123.464844 2648.279297,3097.614258 
	C2635.113525,3086.071533 2620.254883,3077.446289 2603.884033,3071.258789 
	C2584.411621,3063.898682 2564.211182,3060.438965 2543.568115,3058.354004 
	C2501.751465,3054.131592 2460.941895,3058.722412 2421.911621,3073.842773 
	C2357.793945,3098.681396 2316.404053,3144.141846 2301.728027,3212.252686 
	C2293.677246,3249.615723 2293.881836,3286.306396 2313.446533,3323.891602 
z"/>
<path fill="#4F5731" opacity="1.000000" stroke="none" 
	d="
M1454.033325,3034.046875 
	C1512.125610,2971.483887 1582.249756,2932.800293 1664.061035,2915.307617 
	C1741.514282,2898.746582 1818.822876,2898.894531 1895.520630,2920.182617 
	C1928.539673,2929.347168 1959.354858,2943.587646 1987.073608,2963.838867 
	C2051.465576,3010.883789 2085.590576,3074.249268 2088.365234,3154.150635 
	C2088.591309,3160.654053 2089.754883,3167.482666 2084.895752,3174.638916 
	C2081.185059,3175.182617 2076.719482,3176.392334 2072.250244,3176.406006 
	C2025.605713,3176.549072 1978.960449,3176.552734 1932.315918,3176.419189 
	C1927.811157,3176.406006 1923.309814,3175.212402 1918.201416,3174.479980 
	C1916.451172,3167.464844 1914.694214,3161.128418 1913.298096,3154.713135 
	C1904.030273,3112.128174 1877.849487,3084.151611 1838.318359,3067.656250 
	C1817.805420,3059.096924 1796.185913,3054.878174 1774.249023,3053.032715 
	C1738.020752,3049.984863 1702.246094,3053.378174 1667.832642,3065.577393 
	C1606.414429,3087.349365 1566.027100,3129.593262 1547.565918,3192.218994 
	C1539.017578,3221.217285 1535.553711,3250.780518 1539.059448,3281.092041 
	C1545.584473,3337.509521 1577.023560,3373.330811 1629.682007,3391.649902 
	C1647.388672,3397.809326 1665.793457,3400.635986 1684.609131,3401.225586 
	C1720.781128,3402.358887 1756.453247,3400.577637 1791.116333,3388.515869 
	C1838.159180,3372.145996 1873.163818,3342.544678 1894.359619,3297.153076 
	C1895.205322,3295.342041 1896.273560,3293.584473 1896.793823,3291.680420 
	C1899.986816,3279.997559 1907.911011,3276.757324 1919.433350,3276.864258 
	C1964.741699,3277.284912 2010.056641,3276.968994 2055.368164,3277.140625 
	C2060.429443,3277.159668 2065.485107,3278.540283 2069.776123,3279.175781 
	C2073.501221,3286.753662 2070.701660,3292.363525 2068.989502,3297.982666 
	C2057.197510,3336.680908 2038.583496,3371.853271 2013.495361,3403.517578 
	C1962.500732,3467.878418 1896.034058,3508.942139 1817.944336,3532.051025 
	C1768.986572,3546.538818 1718.733521,3552.337646 1667.838867,3550.799072 
	C1618.993408,3549.322510 1570.951416,3542.342529 1525.359497,3523.372070 
	C1478.887085,3504.035645 1439.140747,3475.864746 1409.462158,3434.614014 
	C1382.752441,3397.489990 1367.891968,3356.002441 1363.697754,3310.516602 
	C1357.882812,3247.454834 1368.667603,3187.090576 1392.950806,3128.937988 
	C1407.472290,3094.162598 1428.325684,3063.358643 1454.033325,3034.046875 
z"/>
<path fill="#4F5731" opacity="1.000000" stroke="none" 
	d="
M2983.419434,2231.914551 
	C2979.392822,2260.675049 2975.619141,2287.717529 2971.658447,2314.732666 
	C2970.412354,2323.234375 2968.664795,2331.662842 2967.009521,2340.889160 
	C2961.848633,2341.853027 2957.465332,2343.085449 2953.016846,2343.400879 
	C2947.048828,2343.823730 2941.030762,2343.552246 2935.034180,2343.552490 
	C2828.426514,2343.555908 2721.818848,2343.524658 2615.211182,2343.619629 
	C2607.377441,2343.626465 2599.260986,2342.241211 2590.989990,2346.405029 
	C2586.330078,2358.750000 2585.907227,2372.171631 2584.296875,2385.192627 
	C2581.700928,2406.178711 2576.286865,2426.919434 2576.920654,2449.079590 
	C2581.347168,2450.118408 2585.052734,2451.508057 2588.833984,2451.760498 
	C2595.469482,2452.203613 2602.151611,2451.983398 2608.814209,2451.983887 
	C2709.425293,2451.991943 2810.036133,2451.945557 2910.647217,2452.078125 
	C2918.428955,2452.088379 2926.678711,2450.225098 2934.307129,2455.604004 
	C2934.307129,2460.052246 2934.885742,2464.713135 2934.216797,2469.187744 
	C2928.031738,2510.573975 2923.889160,2552.287842 2915.810791,2593.977539 
	C2910.266846,2594.889648 2905.825195,2595.984375 2901.332031,2596.269775 
	C2895.358154,2596.648926 2889.344482,2596.413574 2883.347900,2596.413818 
	C2782.070557,2596.417725 2680.793457,2596.401855 2579.516113,2596.428955 
	C2556.797363,2596.435059 2554.375732,2594.863770 2551.031494,2620.983643 
	C2543.673828,2678.447510 2535.210693,2735.771240 2526.910645,2793.110352 
	C2525.789062,2800.858887 2525.617188,2809.058838 2520.800537,2816.797119 
	C2517.260986,2817.429199 2513.410889,2818.719727 2509.562744,2818.712646 
	C2459.608887,2818.623047 2409.655029,2818.374512 2359.702393,2818.013428 
	C2357.958740,2818.000977 2356.226562,2816.399658 2353.388916,2814.993652 
	C2353.388916,2812.043945 2353.003662,2808.770020 2353.446045,2805.612061 
	C2361.759521,2746.257812 2370.207764,2686.922607 2378.551270,2627.572754 
	C2385.782959,2576.134766 2392.879150,2524.678223 2400.107910,2473.239990 
	C2407.521973,2420.483643 2414.838379,2367.712402 2422.606934,2315.007812 
	C2424.798340,2300.140381 2424.680176,2286.264404 2417.625244,2272.290771 
	C2409.533691,2256.263428 2403.102539,2239.392578 2396.086914,2222.830078 
	C2393.260010,2216.156738 2390.796143,2209.329346 2387.714111,2201.408936 
	C2392.542969,2199.886475 2396.062256,2198.177490 2399.727783,2197.763428 
	C2404.996094,2197.168701 2410.371094,2197.469971 2415.700439,2197.469727 
	C2596.267334,2197.461670 2776.833984,2197.433838 2957.400879,2197.549316 
	C2966.552002,2197.555176 2976.094238,2195.653320 2985.060303,2200.826416 
	C2989.023682,2210.803223 2983.280029,2220.382812 2983.419434,2231.914551 
z"/>
<path fill="#4F5730" opacity="1.000000" stroke="none" 
	d="
M3714.762207,2734.975830 
	C3709.929443,2762.910645 3708.055908,2789.538330 3702.135254,2816.256348 
	C3697.033203,2817.203857 3692.592773,2818.729736 3688.146729,2818.746338 
	C3641.488281,2818.921875 3594.828369,2818.908936 3548.169678,2818.770508 
	C3543.647217,2818.757324 3539.128174,2817.554443 3535.228027,2816.992920 
	C3530.252930,2809.979004 3532.244385,2803.235840 3533.123047,2796.836914 
	C3539.830078,2747.994873 3546.756836,2699.182617 3553.602783,2650.359375 
	C3562.668945,2585.703125 3571.722656,2521.044678 3580.784424,2456.387695 
	C3585.038086,2426.036865 3589.321289,2395.690430 3593.522705,2365.332275 
	C3593.969238,2362.103516 3593.953613,2358.810791 3594.216309,2354.494873 
	C3590.156982,2353.307129 3586.612061,2351.667480 3582.948730,2351.335205 
	C3576.994873,2350.795166 3570.963623,2351.073486 3564.965088,2351.072510 
	C3505.640869,2351.062500 3446.316895,2351.107910 3386.992676,2351.015869 
	C3379.118652,2351.003662 3371.041504,2352.100830 3362.518555,2348.552979 
	C3362.021729,2345.428955 3360.731445,2342.195801 3361.147461,2339.199463 
	C3367.011475,2296.968750 3373.074951,2254.765869 3379.201660,2212.572021 
	C3379.764160,2208.697021 3381.090820,2204.932617 3382.165039,2200.714844 
	C3385.635254,2199.676758 3388.693604,2198.211182 3391.855713,2197.934326 
	C3397.816162,2197.412354 3403.836426,2197.469482 3409.831787,2197.468994 
	C3605.134766,2197.450439 3800.437500,2197.437744 3995.740479,2197.505859 
	C4004.270020,2197.508789 4012.799316,2198.281982 4020.636230,2198.662842 
	C4026.221436,2206.824707 4023.873291,2214.263184 4023.019531,2221.258545 
	C4020.598389,2241.095703 4017.599609,2260.862549 4014.799316,2280.652832 
	C4012.372314,2297.803467 4009.906738,2314.948975 4007.456299,2332.096191 
	C4006.611816,2338.004150 4006.347656,2344.114746 4000.302246,2350.147705 
	C3993.872070,2350.413330 3985.974609,2351.012207 3978.076660,2351.022461 
	C3916.752930,2351.101562 3855.428955,2351.027832 3794.105225,2351.116699 
	C3786.240723,2351.128174 3778.150879,2350.055664 3769.223633,2354.182373 
	C3767.732666,2361.465576 3765.729980,2369.117432 3764.639648,2376.896729 
	C3750.678467,2476.522217 3736.846680,2576.166016 3722.985107,2675.805664 
	C3720.323242,2694.940918 3717.675781,2714.078369 3714.762207,2734.975830 
z"/>
<path fill="#4F5730" opacity="1.000000" stroke="none" 
	d="
M3189.868652,2786.064453 
	C3188.512207,2795.024414 3187.659912,2802.300781 3186.417480,2809.509521 
	C3185.538330,2814.611328 3182.384521,2817.787598 3177.036865,2818.323486 
	C3174.391602,2818.588623 3171.729492,2818.833008 3169.074951,2818.834473 
	C3123.131592,2818.860596 3077.188232,2818.911865 3031.245605,2818.741455 
	C3026.760010,2818.724854 3022.279541,2817.289551 3018.239502,2816.589355 
	C3013.993896,2807.915527 3016.103760,2799.904053 3017.190430,2792.161621 
	C3031.064209,2693.303955 3045.234863,2594.488037 3059.106689,2495.629883 
	C3071.776367,2405.339844 3084.148926,2315.008057 3096.734863,2224.706055 
	C3097.828857,2216.858398 3099.541016,2209.096680 3101.086426,2200.635010 
	C3105.405518,2199.516357 3109.107422,2197.736084 3112.816406,2197.721680 
	C3161.421387,2197.532715 3210.027100,2197.563477 3258.632568,2197.657471 
	C3261.853760,2197.663818 3265.072998,2198.627197 3269.520264,2199.342773 
	C3269.869385,2204.213135 3270.954102,2208.692383 3270.376465,2212.945801 
	C3265.180664,2251.194092 3259.689453,2289.402100 3254.291748,2327.622803 
	C3246.847168,2380.341064 3239.374023,2433.055420 3231.978760,2485.780518 
	C3226.155273,2527.301514 3220.466064,2568.841309 3214.653809,2610.363770 
	C3206.535156,2668.364014 3198.357910,2726.356445 3189.868652,2786.064453 
z"/>
<path fill="#B2A98D" opacity="1.000000" stroke="none" 
	d="
M4005.259277,3837.195068 
	C4044.136719,3791.238525 4113.065430,3775.184570 4172.590332,3799.947510 
	C4204.683105,3813.298096 4228.742676,3835.221680 4241.664062,3868.150879 
	C4242.819336,3871.094727 4243.080566,3874.389404 4243.698242,3877.251953 
	C4241.729004,3878.323242 4240.638672,3879.431641 4239.542480,3879.436768 
	C4217.575684,3879.538330 4195.608887,3879.512451 4173.044922,3879.512451 
	C4168.332031,3875.369141 4163.740234,3870.461426 4158.336914,3866.729492 
	C4133.057129,3849.270508 4106.117188,3847.182373 4079.134766,3861.535645 
	C4052.402832,3875.755859 4040.586426,3899.834473 4042.033691,3929.443359 
	C4043.484619,3959.126221 4057.904053,3981.269043 4085.949707,3993.044678 
	C4116.113281,4005.709961 4149.914551,3997.493408 4169.091797,3973.198730 
	C4170.554199,3971.346191 4171.205078,3968.853027 4173.017090,3964.983398 
	C4155.848145,3961.977783 4139.912598,3965.310791 4124.644531,3962.679688 
	C4121.134277,3948.002686 4120.843750,3923.882568 4123.841797,3905.370850 
	C4140.388184,3902.734131 4228.531250,3902.636230 4248.316406,3905.442871 
	C4249.822266,3917.533447 4248.825195,3930.072998 4249.000977,3942.528809 
	C4249.179199,3955.182129 4249.040527,3967.839600 4249.040527,3980.495361 
	C4249.040527,3993.151123 4249.298340,4005.813477 4248.967773,4018.460449 
	C4248.639648,4030.992188 4250.697754,4043.696777 4246.917480,4056.782959 
	C4238.553711,4059.760010 4229.913086,4058.175049 4221.485352,4058.352539 
	C4212.929688,4058.532959 4204.362305,4058.134277 4194.940918,4057.974854 
	C4194.122559,4053.809082 4193.359375,4050.750732 4192.956543,4047.645508 
	C4192.534180,4044.386719 4192.459473,4041.083496 4192.113281,4036.071045 
	C4188.413574,4037.980225 4185.458496,4038.910645 4183.248047,4040.740967 
	C4167.257324,4053.980713 4148.537109,4060.234375 4128.250977,4062.164551 
	C4063.963379,4068.281250 3995.257324,4033.383545 3977.801514,3958.741455 
	C3967.551758,3914.912354 3975.875244,3874.103760 4005.259277,3837.195068 
z"/>
<path fill="#B1A98C" opacity="1.000000" stroke="none" 
	d="
M3756.557861,3882.931641 
	C3768.943604,3900.978760 3779.622559,3918.468018 3791.368164,3934.756104 
	C3793.520264,3933.839844 3794.245850,3933.703125 3794.713135,3933.281006 
	C3795.125977,3932.908447 3795.468262,3932.219727 3795.473145,3931.667725 
	C3795.875977,3887.045898 3796.239990,3842.423828 3796.634033,3797.802002 
	C3796.639648,3797.166504 3796.986084,3796.533936 3797.399170,3795.135010 
	C3807.113281,3790.652588 3817.863525,3793.224121 3828.259277,3792.914062 
	C3838.780273,3792.600098 3849.387695,3792.219482 3860.566895,3793.591553 
	C3861.325439,3797.611816 3862.308105,3800.751221 3862.458252,3803.930176 
	C3864.470703,3846.481445 3863.031006,4040.571533 3860.688477,4055.437500 
	C3847.778564,4059.189697 3828.255127,4059.805420 3796.260742,4057.310791 
	C3793.342285,4053.293213 3789.703369,4048.621826 3786.421631,4043.711670 
	C3761.990479,4007.153076 3737.663086,3970.524902 3713.210693,3933.980957 
	C3709.655518,3928.667480 3705.607910,3923.683350 3701.556885,3918.235596 
	C3695.617676,3922.252686 3696.906494,3927.151855 3696.893066,3931.371826 
	C3696.782227,3966.028076 3696.895996,4000.685547 3696.761230,4035.341797 
	C3696.733154,4042.543945 3695.956299,4049.742920 3695.482422,4057.645508 
	C3674.246094,4057.645508 3654.398926,4057.645508 3634.718262,4057.645508 
	C3629.170898,4051.007812 3631.046143,4043.412109 3631.028564,4036.320312 
	C3630.888916,3980.336670 3630.951172,3924.352539 3630.951172,3868.368408 
	C3630.951172,3850.373535 3630.872559,3832.377930 3630.992432,3814.383789 
	C3631.036133,3807.805908 3631.551270,3801.231201 3631.875977,3794.107666 
	C3643.415039,3791.875244 3654.008545,3793.038574 3664.505127,3792.837891 
	C3674.478271,3792.647461 3684.458008,3792.796875 3695.656494,3792.796875 
	C3706.883057,3806.432617 3715.825439,3822.022949 3725.893066,3836.781006 
	C3736.029297,3851.639160 3745.837402,3866.721191 3756.557861,3882.931641 
z"/>
<path fill="#AFA78B" opacity="1.000000" stroke="none" 
	d="
M2331.771484,3904.000000 
	C2331.763428,3955.884766 2331.792480,4005.770020 2331.748291,4055.245850 
	C2316.368896,4059.302246 2285.444580,4059.626221 2266.060547,4056.037354 
	C2265.682129,4051.993408 2264.933838,4047.558594 2264.908447,4043.119385 
	C2264.781738,4021.132324 2264.944824,3999.143311 2264.781982,3977.156738 
	C2264.733643,3970.612061 2266.089111,3963.824463 2261.922852,3956.390869 
	C2232.727783,3956.081299 2202.890625,3956.216064 2173.286133,3956.290771 
	C2168.924805,3968.030762 2170.973145,3978.770752 2170.675781,3989.298340 
	C2170.355713,4000.616455 2170.603760,4011.950439 2170.603760,4023.277588 
	C2170.603760,4033.868408 2170.603760,4044.459473 2170.603760,4054.988525 
	C2159.378662,4060.885254 2148.579834,4057.917236 2138.219238,4058.375488 
	C2127.642822,4058.843506 2117.029785,4058.479004 2105.688721,4058.479004 
	C2104.985840,4052.619873 2103.981689,4048.125488 2103.976318,4043.630127 
	C2103.881592,3965.007080 2103.886230,3886.384033 2103.969238,3807.760986 
	C2103.974121,3803.244141 2104.834473,3798.728027 2105.399414,3793.207764 
	C2126.616943,3792.458008 2147.093018,3792.641602 2168.496338,3793.055420 
	C2169.299316,3798.583008 2170.465088,3803.030762 2170.505127,3807.488525 
	C2170.702148,3829.474609 2170.539795,3851.463623 2170.646240,3873.450928 
	C2170.674561,3879.295898 2171.204834,3885.138184 2171.487549,3890.646484 
	C2187.024170,3893.919922 2234.997803,3894.630127 2262.995361,3892.095947 
	C2263.579834,3887.985596 2264.707764,3883.590576 2264.745850,3879.186035 
	C2264.936279,3857.199951 2264.783203,3835.210938 2264.883301,3813.223633 
	C2264.910156,3807.345215 2265.403809,3801.469238 2265.667725,3795.915527 
	C2280.101074,3791.932861 2309.949951,3791.536865 2329.229492,3794.813721 
	C2329.712402,3795.266846 2330.321289,3795.645996 2330.642334,3796.193848 
	C2330.965332,3796.745850 2331.140625,3797.464600 2331.144775,3798.112061 
	C2331.369141,3832.741211 2331.569336,3867.370605 2331.771484,3904.000000 
z"/>
<path fill="#B2A98D" opacity="1.000000" stroke="none" 
	d="
M1979.631714,3995.774414 
	C1942.930298,4057.152832 1864.822632,4078.435303 1799.895996,4051.470215 
	C1734.576172,4024.342285 1711.551147,3960.308350 1718.135254,3908.032471 
	C1728.532104,3825.485596 1803.945923,3778.583252 1879.534546,3790.146240 
	C1929.172852,3797.739258 1965.574707,3823.791748 1986.810425,3869.754883 
	C1990.345581,3877.406250 1994.297485,3885.309082 1993.010620,3894.571533 
	C1990.995605,3895.093750 1989.104858,3896.000977 1987.209473,3896.010986 
	C1967.255249,3896.114746 1947.300171,3896.074951 1926.345581,3896.074951 
	C1923.495117,3891.942139 1920.637695,3887.627686 1917.609619,3883.436279 
	C1894.114502,3850.919922 1849.383057,3842.697266 1816.484253,3864.815430 
	C1784.755005,3886.147461 1775.344849,3930.594971 1795.444824,3964.191895 
	C1820.947510,4006.819092 1883.312134,4010.844238 1914.668457,3971.800537 
	C1918.387329,3967.170166 1921.455688,3962.017090 1924.658936,3957.348877 
	C1943.642700,3954.402588 1977.552612,3954.687988 1993.494019,3958.138428 
	C1992.748047,3971.532227 1986.337524,3982.954834 1979.631714,3995.774414 
z"/>
<path fill="#B1A98C" opacity="1.000000" stroke="none" 
	d="
M2467.694336,4058.435059 
	C2454.108887,4057.869141 2442.191650,4059.763428 2428.933594,4056.762207 
	C2438.321289,4025.854248 2450.319336,3997.208984 2460.692871,3968.019531 
	C2470.933350,3939.205078 2481.721436,3910.584717 2492.329346,3881.901611 
	C2503.152100,3852.635986 2514.048584,3823.397705 2524.985107,3793.952637 
	C2538.371826,3791.739258 2550.987305,3793.089600 2563.516602,3792.850098 
	C2576.129150,3792.608887 2588.750244,3792.796875 2600.800537,3792.796875 
	C2608.922363,3806.711914 2690.059570,4024.705322 2698.646973,4055.266602 
	C2697.174316,4056.164062 2695.589600,4057.964844 2693.989014,4057.978760 
	C2672.742432,4058.166748 2651.493408,4058.104248 2630.393555,4058.104248 
	C2621.169922,4045.500488 2621.164307,4029.671631 2612.533447,4017.019043 
	C2580.059082,4017.019043 2547.547852,4017.019043 2513.634277,4017.019043 
	C2508.629150,4030.468750 2503.590576,4044.008057 2498.221436,4058.435303 
	C2488.055908,4058.435303 2478.795166,4058.435303 2467.694336,4058.435059 
M2587.887939,3938.311035 
	C2584.225830,3927.631592 2580.661865,3916.916992 2576.874512,3906.282227 
	C2572.971924,3895.322266 2570.447021,3883.766602 2564.118652,3872.727295 
	C2554.506836,3890.309326 2538.114746,3939.556885 2536.846924,3953.745361 
	C2555.372803,3956.660400 2577.222412,3956.320801 2592.012939,3952.644287 
	C2590.944580,3948.918701 2589.874023,3945.185059 2587.887939,3938.311035 
z"/>
<path fill="#B1A98C" opacity="1.000000" stroke="none" 
	d="
M4443.321289,3892.967285 
	C4474.567383,3893.890869 4503.809082,3892.602051 4534.192383,3894.065186 
	C4537.018555,3914.851562 4535.413086,3934.507568 4535.438477,3955.104004 
	C4502.677734,3958.028320 4470.806641,3954.308594 4438.603516,3957.338867 
	C4435.010254,3969.697998 4436.414551,3981.282959 4437.334961,3994.147705 
	C4442.828613,3994.751221 4447.250000,3995.633057 4451.676758,3995.657471 
	C4477.006836,3995.798340 4502.338379,3995.680176 4527.669434,3995.779297 
	C4534.232910,3995.804688 4540.793945,3996.292969 4547.057617,3996.555908 
	C4550.660156,4013.907227 4550.554688,4041.588135 4546.813477,4057.271729 
	C4528.029297,4059.716797 4508.805176,4058.090332 4489.664551,4058.372314 
	C4470.337402,4058.657471 4451.001953,4058.435303 4431.670410,4058.435303 
	C4412.386230,4058.435303 4393.102051,4058.435303 4372.817383,4058.435303 
	C4371.876953,4053.005615 4370.457031,4048.604248 4370.449219,4044.200195 
	C4370.313477,3965.540527 4370.325195,3886.880859 4370.412598,3808.220947 
	C4370.417480,3803.678467 4371.347656,3799.137207 4371.820801,3794.836670 
	C4390.224121,3791.870117 4530.111328,3792.121094 4546.854004,3795.240234 
	C4549.065430,3814.016113 4547.394531,3833.146729 4547.935059,3853.439697 
	C4542.765625,3854.270508 4538.402344,3855.545654 4534.029297,3855.579590 
	C4508.700195,3855.776855 4483.368164,3855.656250 4458.037109,3855.704102 
	C4451.451172,3855.716553 4444.865234,3855.946289 4438.000977,3856.081787 
	C4435.542969,3867.837891 4436.021484,3878.363037 4437.359863,3888.847412 
	C4437.542480,3890.273438 4439.913574,3891.420166 4443.321289,3892.967285 
z"/>
<path fill="#AFA78B" opacity="1.000000" stroke="none" 
	d="
M3333.081543,4035.019775 
	C3333.215088,3955.201660 3333.342773,3877.261719 3333.541748,3799.322021 
	C3333.544922,3798.112305 3334.435303,3796.904785 3335.437744,3794.362061 
	C3337.789062,3793.932129 3340.885010,3792.876953 3343.982422,3792.872070 
	C3396.614258,3792.788818 3449.245850,3792.827148 3501.877686,3792.889893 
	C3503.843262,3792.892334 3505.808350,3793.417480 3507.698486,3793.688232 
	C3512.229980,3805.362793 3512.997803,3824.802246 3509.924805,3853.718262 
	C3505.901611,3854.345459 3501.538086,3855.584229 3497.165527,3855.615967 
	C3471.183838,3855.805176 3445.199951,3855.656250 3419.217285,3855.763184 
	C3413.404785,3855.787109 3407.594482,3856.377930 3400.872559,3856.759521 
	C3399.463867,3868.968506 3399.534668,3879.927002 3400.784668,3892.001709 
	C3433.283691,3895.611816 3465.156982,3891.090576 3496.342529,3894.526123 
	C3499.887695,3909.954590 3500.181641,3936.389893 3496.992432,3955.829346 
	C3481.376465,3955.958008 3465.485107,3956.099609 3449.593750,3956.217285 
	C3433.664551,3956.335449 3417.735596,3956.430176 3400.894043,3956.541016 
	C3400.894043,3969.608398 3400.894043,3981.402588 3400.894043,3994.210693 
	C3405.647217,3994.731201 3410.072754,3995.611328 3414.502930,3995.635498 
	C3439.818848,3995.773438 3465.136475,3995.653564 3490.452637,3995.747559 
	C3497.001953,3995.771729 3503.549561,3996.249268 3509.680176,3996.501465 
	C3513.809814,4012.464111 3513.968018,4040.092285 3510.152100,4057.338623 
	C3491.315430,4059.708740 3472.105713,4058.156006 3452.971436,4058.417725 
	C3432.988281,4058.690918 3412.997314,4058.597168 3393.011719,4058.445312 
	C3373.858643,4058.299805 3354.654541,4059.177734 3335.915771,4057.786621 
	C3331.691895,4050.136719 3333.584229,4043.359863 3333.081543,4035.019775 
z"/>
<path fill="#4F5731" opacity="1.000000" stroke="none" 
	d="
M4128.002441,2595.964600 
	C4103.384766,2595.637695 4080.766357,2595.336670 4058.150146,2594.909180 
	C4056.981445,2594.887451 4055.833496,2593.782471 4053.773438,2592.713623 
	C4050.154541,2586.473145 4052.027100,2579.112793 4052.978271,2572.074707 
	C4056.008057,2549.648193 4059.491699,2527.282959 4062.705811,2504.880859 
	C4063.556641,2498.951416 4063.807129,2492.928955 4064.804688,2487.029297 
	C4066.004150,2479.936279 4067.707764,2472.928711 4069.177246,2465.959961 
	C4072.980225,2464.937012 4075.492432,2463.674805 4078.007080,2463.670410 
	C4143.271484,2463.555420 4208.536133,2463.549805 4273.800781,2463.642822 
	C4276.315918,2463.646484 4278.828613,2464.812744 4282.644531,2465.760498 
	C4283.002930,2471.053711 4284.217773,2476.252686 4283.550781,2481.197998 
	C4279.013672,2514.839355 4274.133301,2548.434814 4269.200195,2582.021240 
	C4268.637695,2585.851318 4267.066895,2589.533447 4266.037109,2593.033691 
	C4263.516602,2594.017334 4261.690430,2595.344238 4259.855957,2595.356445 
	C4216.571777,2595.644775 4173.286621,2595.791748 4128.002441,2595.964600 
z"/>
<path fill="#AFA78B" opacity="1.000000" stroke="none" 
	d="
M2802.489746,4057.854248 
	C2799.420654,4055.306152 2797.302246,4053.276855 2796.983154,4050.995361 
	C2796.341553,4046.410889 2796.625000,4041.688965 2796.624268,4037.023926 
	C2796.612549,3963.026611 2796.597412,3889.029053 2796.648438,3815.031738 
	C2796.652832,3808.492188 2797.111816,3801.952881 2797.345215,3795.798096 
	C2812.553711,3791.924805 2843.424561,3791.665527 2862.614014,3795.238525 
	C2862.925537,3801.330322 2863.534424,3807.804443 2863.544189,3814.279541 
	C2863.622314,3866.944336 2863.570068,3919.609131 2863.609863,3972.273926 
	C2863.615479,3979.522949 2863.906982,3986.772217 2864.097412,3995.438232 
	C2897.747070,3996.120117 2930.210693,3995.310059 2962.054443,3995.938232 
	C2965.958984,4015.134033 2965.739014,4042.276611 2961.734863,4058.258789 
	C2909.449951,4058.258789 2856.852051,4058.258789 2802.489746,4057.854248 
z"/>
<path fill="#AFA78B" opacity="1.000000" stroke="none" 
	d="
M3135.521973,3994.771484 
	C3168.611572,3996.522461 3199.841553,3994.552979 3231.941162,3996.606934 
	C3233.541748,4017.683838 3234.108398,4037.303467 3231.628418,4056.692871 
	C3215.350830,4058.862061 3115.406982,4059.902588 3076.637939,4058.395752 
	C3073.433350,4058.271240 3070.251709,4057.545898 3066.182373,4056.977295 
	C3063.519287,4034.426270 3065.222900,4012.566406 3064.913086,3990.791504 
	C3064.600586,3968.801758 3064.844238,3946.804199 3064.844238,3924.810059 
	C3064.844238,3903.482422 3064.773926,3882.154541 3064.863770,3860.827148 
	C3064.955811,3838.989990 3064.424805,3817.128418 3065.281250,3794.312744 
	C3087.775879,3791.359131 3108.654785,3793.404053 3130.769043,3792.681152 
	C3131.173828,3801.479736 3131.722656,3807.970459 3131.731445,3814.461426 
	C3131.802002,3867.114014 3131.703125,3919.767090 3131.852051,3972.419189 
	C3131.872559,3979.660645 3132.973877,3986.898682 3135.521973,3994.771484 
z"/>
<path fill="#4E5630" opacity="1.000000" stroke="none" 
	d="
M3955.801758,2700.846436 
	C3949.836426,2739.992188 3946.051514,2777.729492 3938.813477,2815.623535 
	C3934.520020,2816.793457 3930.836426,2818.652832 3927.143555,2818.672119 
	C3886.521973,2818.885010 3845.898438,2818.851807 3805.275879,2818.737305 
	C3802.095215,2818.728516 3798.917969,2817.611084 3795.246338,2816.915527 
	C3794.631592,2813.785645 3793.434082,2811.199707 3793.759766,2808.822021 
	C3799.178955,2769.250732 3804.734131,2729.697754 3810.422607,2690.164307 
	C3811.165527,2685.003174 3812.810059,2679.971436 3814.120117,2674.533936 
	C3830.337646,2669.716309 3846.353516,2672.541748 3862.121338,2672.057617 
	C3877.424072,2671.587891 3892.757324,2671.720947 3908.068604,2672.020264 
	C3923.910645,2672.329834 3939.869141,2670.512207 3955.926270,2673.541992 
	C3961.129639,2682.431885 3956.106934,2690.821533 3955.801758,2700.846436 
z"/>
<path fill="#4E5630" opacity="1.000000" stroke="none" 
	d="
M2756.615723,2688.725586 
	C2758.180664,2682.669678 2759.555908,2678.328369 2760.979492,2673.834473 
	C2764.921631,2673.169922 2768.155762,2672.154297 2771.390869,2672.150391 
	C2813.313721,2672.101318 2855.236572,2672.173340 2897.159180,2672.329346 
	C2898.988281,2672.336182 2900.813232,2673.445312 2903.809814,2674.422607 
	C2903.809814,2678.865234 2904.378174,2683.421875 2903.721680,2687.794678 
	C2897.325928,2730.400146 2893.095947,2773.352295 2884.804199,2816.286133 
	C2879.921387,2817.279297 2876.142822,2818.700439 2872.358154,2818.717285 
	C2833.095215,2818.892578 2793.831299,2818.891357 2754.568115,2818.775635 
	C2750.706055,2818.764160 2746.846924,2817.664307 2743.088867,2817.085205 
	C2738.456543,2809.495850 2740.658203,2802.189941 2741.635498,2795.165039 
	C2746.217773,2762.223145 2751.049561,2729.315674 2755.777100,2696.394043 
	C2756.060791,2694.418945 2756.212646,2692.425049 2756.615723,2688.725586 
z"/>
<path fill="#4E5630" opacity="1.000000" stroke="none" 
	d="
M3307.417969,2722.709961 
	C3309.782959,2705.256104 3310.235107,2689.235352 3315.864502,2674.600586 
	C3331.790283,2671.255127 3392.551514,2670.066162 3444.219971,2672.070801 
	C3448.698975,2672.244141 3453.139160,2673.419434 3458.836914,2674.326904 
	C3458.836914,2680.336426 3459.351562,2685.557129 3458.758545,2690.649170 
	C3450.814209,2758.886719 3443.352295,2804.253662 3438.280518,2816.290283 
	C3423.833984,2819.529297 3353.538818,2821.009033 3310.857422,2818.785400 
	C3306.394531,2818.552979 3301.992676,2817.151855 3297.926514,2816.363281 
	C3295.281494,2798.437256 3296.484131,2786.853027 3307.417969,2722.709961 
z"/>
<path fill="#010100" opacity="1.000000" stroke="none" 
	d="
M2312.754395,3322.563477 
	C2293.881836,3286.306396 2293.677246,3249.615723 2301.728027,3212.252686 
	C2316.404053,3144.141846 2357.793945,3098.681396 2421.911621,3073.842773 
	C2460.941895,3058.722412 2501.751465,3054.131592 2543.568115,3058.354004 
	C2564.211182,3060.438965 2584.411621,3063.898682 2603.884033,3071.258789 
	C2620.254883,3077.446289 2635.113525,3086.071533 2648.279297,3097.614258 
	C2677.764893,3123.464844 2690.447510,3157.041748 2691.056641,3195.189941 
	C2691.516602,3223.996338 2686.166992,3252.127930 2674.868164,3278.911621 
	C2654.301758,3327.664307 2618.148438,3360.281250 2569.690674,3379.731201 
	C2542.923340,3390.475098 2514.942627,3396.287354 2485.974365,3396.567383 
	C2462.686279,3396.792480 2439.317627,3397.876465 2416.402832,3392.326904 
	C2406.717529,3389.981201 2396.957031,3387.657959 2387.599854,3384.297363 
	C2355.862305,3372.897949 2330.078613,3353.949951 2312.754395,3322.563477 
z"/>
<path fill="#010100" opacity="1.000000" stroke="none" 
	d="
M2588.345703,3939.881348 
	C2589.874023,3945.185059 2590.944580,3948.918701 2592.012939,3952.644287 
	C2577.222412,3956.320801 2555.372803,3956.660400 2536.846924,3953.745361 
	C2538.114746,3939.556885 2554.506836,3890.309326 2564.118652,3872.727295 
	C2570.447021,3883.766602 2572.971924,3895.322266 2576.874512,3906.282227 
	C2580.661865,3916.916992 2584.225830,3927.631592 2588.345703,3939.881348 
z"/>
</svg>