<?xml version="1.0" encoding="UTF-8"?><svg id="LOGO" xmlns="http://www.w3.org/2000/svg" viewBox="0 0 1500 1500"><defs><style>.cls-1{fill:#728c69;}.cls-2{fill:#b6ad90;}</style></defs><path class="cls-2" d="M476.69,947.93h-16.85c-2.58,6.26-8.75,10.5-16.11,10.5-9.95,0-17.5-7.55-17.5-17.59s7.55-17.59,17.5-17.59c7.37,0,13.54,4.24,16.11,10.5h16.85c-3.13-15.01-16.3-25.78-32.97-25.78-19.25,0-33.7,14.18-33.7,32.87s14.46,32.87,33.7,32.87c16.67,0,29.83-10.77,32.97-25.78Z"/><polygon class="cls-2" points="518.71 948.12 541.55 948.12 541.55 972.61 557.39 972.61 557.39 909.07 541.55 909.07 541.55 933.2 518.71 933.2 518.71 909.07 502.87 909.07 502.87 972.61 518.71 972.61 518.71 948.12"/><path class="cls-2" d="M603.94,909.07l-23.39,63.54h17.04l3.41-10.04h24.31l3.41,10.04h17.31l-23.39-63.54h-18.69ZM605.88,948.02l7.27-21.46,7.28,21.46h-14.55Z"/><polygon class="cls-2" points="709.42 957.69 685.02 957.69 685.02 909.07 669.18 909.07 669.18 972.61 709.42 972.61 709.42 957.69"/><polygon class="cls-2" points="733.58 909.07 733.58 972.61 773.82 972.61 773.82 957.69 749.42 957.69 749.42 909.07 733.58 909.07"/><polygon class="cls-2" points="840.52 923.99 840.52 909.07 797.98 909.07 797.98 972.61 840.98 972.61 840.98 957.69 813.81 957.69 813.81 948.12 837.57 948.12 837.57 933.2 813.81 933.2 813.81 923.99 840.52 923.99"/><polygon class="cls-2" points="924.79 972.61 924.79 909.07 908.96 909.07 908.96 944.99 885.11 909.07 869.27 909.07 869.27 972.61 885.11 972.61 885.11 936.79 908.96 972.61 924.79 972.61"/><path class="cls-2" d="M987.18,949.87h12.89c-2.49,5.16-7.92,8.56-14.73,8.56-9.95,0-17.5-7.55-17.5-17.59s7.55-17.59,17.5-17.59c5.89,0,10.77,2.49,13.72,6.54h17.68c-3.22-12.62-16.02-21.82-31.4-21.82-19.25,0-33.7,14.18-33.7,32.87s14.46,32.87,33.7,32.87c8.2,0,14.46-2.58,18.97-7.73v6.63h13.35v-37.11h-30.48v14.36Z"/><polygon class="cls-2" points="1062.63 948.12 1086.39 948.12 1086.39 933.2 1062.63 933.2 1062.63 923.99 1089.34 923.99 1089.34 909.07 1046.79 909.07 1046.79 972.61 1089.8 972.61 1089.8 957.69 1062.63 957.69 1062.63 948.12"/><polygon class="cls-1" points="603.42 675.04 610.88 621.88 697.75 621.88 699.57 608.9 702.62 587.18 655.47 587.18 615.75 587.18 619.42 560.99 655.47 560.99 710.06 560.99 714.93 526.29 655.47 526.29 597.57 526.29 583.23 526.29 570.48 526.29 580.1 548.61 562.36 675.04 603.42 675.04"/><polygon class="cls-1" points="783.16 526.29 742.1 526.29 730.51 608.9 721.24 675.04 762.29 675.04 771.57 608.9 783.16 526.29"/><polygon class="cls-1" points="804.25 562.78 860.97 562.78 854.5 608.9 845.23 675.04 886.48 675.04 895.76 608.9 902.23 562.78 958.95 562.78 960.34 552.92 964.07 526.29 934.45 526.29 809.37 526.29 804.25 562.78"/><polygon class="cls-1" points="971.67 608.9 969.88 621.69 1022.04 621.69 1026.52 589.75 996.15 589.75 974.36 589.75 971.67 608.9"/><path class="cls-1" d="M679.47,732.58c-5.77-11.63-14.82-20.69-27.13-27.17-12.31-6.48-27.33-9.72-45.05-9.72s-33.48,3.24-47.68,9.72c-14.2,6.48-25.78,15.54-34.75,27.17-8.97,11.64-14.54,25.19-16.71,40.66-2.17,15.47-.4,29.03,5.3,40.66,5.71,11.64,14.75,20.69,27.13,27.17,12.38,6.48,27.36,9.72,44.95,9.72s33.64-3.24,47.77-9.72c14.13-6.48,25.71-15.54,34.75-27.17,9.04-11.63,14.64-25.19,16.81-40.66,2.17-15.47.37-29.02-5.4-40.66ZM643.22,773.24c-1.19,8.46-4.09,15.74-8.71,21.82-4.62,6.08-10.67,10.78-18.14,14.08-7.47,3.31-16.04,4.96-25.69,4.96s-17.55-1.65-24.1-4.96c-6.55-3.3-11.31-8-14.29-14.08-2.98-6.08-3.88-13.35-2.69-21.82,1.19-8.46,4.12-15.73,8.81-21.82,4.69-6.08,10.77-10.78,18.24-14.08,7.47-3.3,15.97-4.96,25.49-4.96s17.75,1.66,24.3,4.96c6.54,3.31,11.27,8,14.19,14.08,2.92,6.08,3.78,13.36,2.59,21.82Z"/><path class="cls-1" d="M910.78,847.61l20.87-148.75h-63.47l-60.3,108.67-30.15-108.67h-76.29l9.62,22.32h.07l-17.74,126.43h39.07l15.74-112.17,33.06,112.17h41.65l64.63-112.89-15.84,112.89h39.07Z"/><polygon class="cls-1" points="1111.72 698.86 1051.42 807.52 1021.28 698.86 973.38 698.86 957.81 698.86 946.29 698.86 954.98 719.02 936.94 847.61 976.01 847.61 991.75 735.44 1024.8 847.61 1066.45 847.61 1131.08 734.72 1115.25 847.61 1154.32 847.61 1175.19 698.86 1111.72 698.86"/><polygon class="cls-1" points="655.24 675.04 690.29 675.04 695.21 639.98 660.15 639.98 655.24 675.04"/><polygon class="cls-1" points="828.47 639.98 793.42 639.98 788.5 675.04 823.56 675.04 828.47 639.98"/><polygon class="cls-1" points="948.12 639.98 913.07 639.98 908.15 675.04 943.2 675.04 948.12 639.98"/><path class="cls-1" d="M477.48,819.75c8.92-9.85,15.02-21.32,18.31-34.41h-41.25c-2.23,6.48-5.58,11.97-10.04,16.46-4.47,4.5-9.93,7.87-16.39,10.11-6.46,2.25-13.73,3.37-21.79,3.37-9.26,0-17.02-1.69-23.29-5.06-6.27-3.37-10.75-8.2-13.44-14.48-2.69-6.28-3.42-13.78-2.2-22.51,1.22-8.73,4.06-16.23,8.51-22.51,4.45-6.28,10.29-11.11,17.5-14.48,7.22-3.37,15.45-5.06,24.71-5.06,8.06,0,15.01,1.19,20.82,3.57,5.81,2.38,10.33,5.79,13.54,10.21,3.21,4.43,5.03,9.82,5.47,16.16h41.25c.38-13.09-2.5-24.56-8.66-34.41-6.16-9.85-14.97-17.48-26.44-22.91-11.47-5.42-25.14-8.13-41.01-8.13-17.32,0-32.92,3.24-46.78,9.72-13.87,6.48-25.22,15.54-34.06,27.17-8.84,11.64-14.34,25.19-16.51,40.66-2.17,15.47-.47,29.03,5.11,40.66,5.57,11.64,14.38,20.69,26.43,27.17,12.05,6.48,26.73,9.72,44.06,9.72,15.87,0,30.3-2.71,43.29-8.13,12.99-5.42,23.95-13.06,32.87-22.91Z"/></svg>