<svg version="1.1" id="Layer_1" xmlns="http://www.w3.org/2000/svg" xmlns:xlink="http://www.w3.org/1999/xlink" x="0px" y="0px"
	 width="100%" viewBox="0 0 6250 6251" enable-background="new 0 0 6250 6251" xml:space="preserve">
<path fill="#000000" opacity="1.000000" stroke="none" 
	d="
M5740.000000,6256.000000 
	C3826.667236,6256.000000 1915.334473,6256.000000 4.001282,6256.000000 
	C4.000854,4172.000977 4.000854,2088.002441 4.000427,4.002680 
	C2087.998291,4.001787 4171.996582,4.001787 6255.996094,4.000894 
	C6255.997070,2087.997559 6255.997070,4171.995117 6255.998535,6255.996094 
	C6084.666504,6256.000000 5913.333496,6256.000000 5740.000000,6256.000000 
M3725.588135,3143.108154 
	C3725.554199,3158.035889 3717.933838,3172.630615 3722.732178,3188.193848 
	C3726.077148,3188.886719 3728.640869,3189.872803 3731.208008,3189.880615 
	C3765.195557,3189.985596 3799.183838,3190.014404 3833.170898,3189.852295 
	C3836.284180,3189.837402 3839.390869,3188.382812 3843.367920,3187.377441 
	C3844.783203,3179.761963 3846.370361,3172.679932 3847.382324,3165.516113 
	C3850.829102,3141.109863 3853.981689,3116.661865 3857.414062,3092.253418 
	C3864.742432,3040.140381 3872.162354,2988.040527 3879.572266,2935.938965 
	C3883.417480,2908.900146 3887.289307,2881.864746 3891.256836,2854.843750 
	C3891.574951,2852.676758 3892.731934,2850.632568 3894.809814,2844.942383 
	C3897.880127,2853.375244 3899.885010,2858.087402 3901.328613,2862.965576 
	C3931.400391,2964.561035 3961.406982,3066.175781 3991.434082,3167.784424 
	C3992.755371,3172.255127 3994.145752,3176.705322 3995.514893,3181.161621 
	C3997.041016,3186.129150 4000.413818,3188.969971 4005.544922,3189.595947 
	C4008.186035,3189.917969 4010.858398,3190.133301 4013.517090,3190.135742 
	C4047.509033,3190.168945 4081.503418,3189.934814 4115.491699,3190.281738 
	C4126.151367,3190.390381 4133.357910,3186.481445 4137.661621,3176.766846 
	C4139.001465,3173.742920 4141.082520,3171.054688 4142.736816,3168.162598 
	C4170.533203,3119.570068 4198.301270,3070.961914 4226.104492,3022.373535 
	C4257.548340,2967.422852 4288.985352,2912.467773 4320.554688,2857.589111 
	C4322.715332,2853.832764 4323.510254,2848.404053 4330.689941,2847.758545 
	C4330.809570,2850.949219 4331.359375,2854.036133 4330.964844,2856.997314 
	C4328.502930,2875.484131 4325.832031,2893.943115 4323.226562,2912.410889 
	C4310.848633,3000.141602 4298.450684,3087.869873 4286.158691,3175.612549 
	C4285.633789,3179.359131 4286.091797,3183.243408 4286.091797,3187.167236 
	C4289.913086,3188.282227 4292.421387,3189.637695 4294.938477,3189.654297 
	C4328.922852,3189.879639 4362.908203,3189.970459 4396.893555,3189.919922 
	C4400.080078,3189.915039 4403.264648,3188.727051 4407.114258,3187.955566 
	C4408.487793,3183.230957 4410.310059,3178.934814 4410.946777,3174.469482 
	C4417.910645,3125.666992 4424.684570,3076.837402 4431.520996,3028.016602 
	C4439.003418,2974.579102 4446.541504,2921.148926 4453.972656,2867.703613 
	C4460.302734,2822.175293 4466.550781,2776.635254 4472.713379,2731.083496 
	C4473.216797,2727.363281 4472.779785,2723.515869 4472.779785,2718.299316 
	C4465.018066,2717.882324 4458.513672,2717.256348 4452.007324,2717.230957 
	C4423.347168,2717.120117 4394.687500,2717.181885 4366.027344,2717.182373 
	C4341.366211,2717.182861 4316.674316,2717.923096 4292.055664,2716.902588 
	C4277.989258,2716.319336 4270.349609,2721.996338 4263.852051,2733.906494 
	C4229.383301,2797.089355 4194.244629,2859.906494 4159.351074,2922.857666 
	C4137.704102,2961.910889 4116.138184,3001.009277 4094.376709,3039.998291 
	C4091.597412,3044.977783 4090.014160,3051.281982 4081.979736,3053.606445 
	C4080.087891,3048.874268 4077.760254,3044.322266 4076.416748,3039.496582 
	C4058.725098,2975.943359 4041.174072,2912.351318 4023.584229,2848.769775 
	C4012.746094,2809.593506 4001.991211,2770.393311 3991.009033,2731.257324 
	C3987.493652,2718.730713 3985.935547,2717.796631 3972.863770,2717.250000 
	C3969.536377,2717.110840 3966.199707,2717.185547 3962.867188,2717.185303 
	C3922.876221,2717.181641 3882.885498,2717.180420 3842.894531,2717.182617 
	C3815.567383,2717.184082 3788.239502,2717.099365 3760.913818,2717.290527 
	C3756.599854,2717.320801 3752.294922,2718.609863 3746.859131,2719.501953 
	C3748.199951,2724.118652 3748.801270,2727.315186 3750.034424,2730.245361 
	C3756.498535,2745.600098 3762.902832,2760.987305 3769.775635,2776.160400 
	C3773.747559,2784.929688 3775.026123,2793.427734 3773.514404,2803.205322 
	C3767.509521,2842.044434 3762.331055,2881.011963 3756.892090,2919.938232 
	C3746.659424,2993.170654 3736.458252,3066.406982 3725.588135,3143.108154 
M4662.988281,2853.199463 
	C4663.910156,2851.713867 4664.832520,2850.228271 4666.906738,2846.886230 
	C4669.498535,2853.982666 4671.780273,2859.343750 4673.431152,2864.892334 
	C4685.026855,2903.852051 4696.504395,2942.846924 4707.996582,2981.837402 
	C4726.270996,3043.838623 4744.495605,3105.854492 4762.834961,3167.836426 
	C4764.886230,3174.768066 4765.896484,3182.246826 4771.213379,3187.531494 
	C4772.751953,3188.156738 4773.978027,3189.083984 4775.211426,3189.093262 
	C4814.507324,3189.389160 4853.804199,3189.634766 4893.100586,3189.774658 
	C4898.880859,3189.795166 4903.186035,3186.906006 4906.082520,3181.856201 
	C4911.719238,3172.028564 4917.464355,3162.263428 4923.095703,3152.433105 
	C4979.746094,3053.549805 5036.374023,2954.653076 5093.053711,2855.785889 
	C5095.268066,2851.923096 5097.939941,2848.322998 5102.329102,2841.677734 
	C5102.822266,2847.571045 5103.465820,2849.961670 5103.146484,2852.216064 
	C5094.738770,2911.576904 5086.176270,2970.916016 5077.757324,3030.275391 
	C5070.835449,3079.082764 5064.003418,3127.903320 5057.348633,3176.748047 
	C5056.855957,3180.361328 5058.111816,3184.213379 5058.606934,3188.391357 
	C5079.425293,3191.966797 5099.414062,3190.057129 5119.268555,3190.045654 
	C5138.995605,3190.034180 5158.929688,3192.146729 5178.942871,3188.098389 
	C5180.453613,3181.837158 5182.119629,3176.786621 5182.852051,3171.604004 
	C5189.935547,3121.472168 5196.822266,3071.312744 5203.847168,3021.172119 
	C5211.241699,2968.395020 5218.734375,2915.631104 5226.166016,2862.858887 
	C5231.833008,2822.618652 5237.574707,2782.388184 5243.028809,2742.118896 
	C5243.992676,2735.000244 5245.845703,2727.616943 5242.369629,2720.722168 
	C5237.008301,2716.457031 5230.830566,2717.243652 5224.920898,2717.236328 
	C5170.266113,2717.167725 5115.609863,2717.387695 5060.957031,2717.044434 
	C5049.737793,2716.973633 5041.387695,2719.807373 5037.259277,2730.924561 
	C5036.799805,2732.162842 5036.046387,2733.295654 5035.399902,2734.461426 
	C4993.710938,2809.647705 4952.029297,2884.838379 4910.322266,2960.014648 
	C4895.126465,2987.404785 4879.965332,3014.814697 4864.541504,3042.075928 
	C4862.092773,3046.404541 4860.777832,3052.337402 4852.872070,3053.332031 
	C4851.059082,3047.920654 4848.957031,3042.476807 4847.400391,3036.881348 
	C4820.259277,2939.296875 4793.204102,2841.687988 4766.061035,2744.104004 
	C4763.763672,2735.844238 4760.976074,2727.720703 4758.860352,2720.955078 
	C4750.335938,2715.864746 4742.833496,2717.266846 4735.620605,2717.246338 
	C4691.629883,2717.120605 4647.639648,2717.176270 4603.648926,2717.185059 
	C4580.320801,2717.189453 4556.990723,2717.091064 4533.665527,2717.377686 
	C4530.128906,2717.421143 4526.614746,2719.308594 4521.773438,2720.729736 
	C4529.088867,2738.051514 4535.544922,2754.070312 4542.622070,2769.809814 
	C4546.603516,2778.664795 4547.402832,2787.236084 4545.939941,2796.929688 
	C4539.580078,2839.085449 4534.021484,2881.361816 4528.087402,2923.582520 
	C4520.669922,2976.357666 4513.173340,3029.121826 4505.705566,3081.889893 
	C4501.504883,3111.574219 4497.187500,3141.242920 4493.185059,3170.953857 
	C4492.418945,3176.638672 4490.536621,3182.826172 4495.939941,3188.503906 
	C4497.992188,3188.916748 4500.562988,3189.875488 4503.136719,3189.884033 
	C4536.458984,3189.992676 4569.782227,3190.060791 4603.103027,3189.839600 
	C4606.816895,3189.814941 4610.518555,3187.951904 4614.447266,3186.880859 
	C4615.938965,3180.256836 4617.659180,3174.517334 4618.485840,3168.652100 
	C4626.945801,3108.623779 4635.227539,3048.570801 4643.626953,2988.533936 
	C4649.810547,2944.332764 4656.095703,2900.145508 4662.988281,2853.199463 
M3685.632568,2848.635986 
	C3675.698730,2819.021484 3659.501465,2793.352295 3636.813965,2771.888916 
	C3610.116943,2746.632812 3578.395508,2730.232910 3543.295898,2720.260742 
	C3495.174072,2706.588623 3446.238525,2705.281494 3396.791016,2710.958008 
	C3353.900879,2715.881836 3313.483643,2728.364258 3275.512695,2748.775635 
	C3170.118408,2805.430176 3118.052490,2915.660156 3132.262451,3025.391113 
	C3138.420898,3072.944580 3160.377930,3112.369873 3197.081299,3143.330078 
	C3226.753906,3168.359863 3261.277344,3183.527344 3298.943115,3191.635986 
	C3342.966309,3201.113037 3387.331543,3202.162354 3431.989014,3196.295410 
	C3474.747559,3190.677979 3515.200195,3178.182861 3552.797852,3157.019775 
	C3610.525146,3124.526611 3653.378906,3078.494873 3676.968018,3016.141113 
	C3697.248047,2962.533691 3703.139648,2907.643311 3685.632568,2848.635986 
M3083.511230,3025.322021 
	C3086.136719,3015.255859 3093.055176,3006.065918 3089.986328,2994.321045 
	C3076.210205,2989.847656 3062.149658,2992.505615 3048.328857,2992.083252 
	C3033.678467,2991.635254 3018.989990,2991.581543 3004.344238,2992.098877 
	C2990.570068,2992.585205 2976.483398,2989.521973 2963.735840,2994.299072 
	C2962.676514,2995.680908 2962.190674,2996.166748 2961.879395,2996.746338 
	C2960.621582,2999.087646 2959.304688,3001.406982 2958.210205,3003.825439 
	C2939.217041,3045.798096 2906.346924,3070.773926 2862.018799,3080.577393 
	C2845.855225,3084.152344 2829.074219,3086.293213 2812.540527,3086.512939 
	C2788.511475,3086.832275 2764.542725,3084.171143 2742.405029,3073.393311 
	C2709.955566,3057.595459 2690.288574,3032.187012 2687.354736,2995.830566 
	C2686.077881,2980.006104 2685.857910,2963.589600 2688.574463,2948.039062 
	C2699.432861,2885.878662 2734.520264,2844.370850 2796.358398,2827.461182 
	C2827.783691,2818.868408 2859.641846,2818.181885 2891.357910,2825.446533 
	C2934.725586,2835.379150 2964.478760,2859.600586 2972.562744,2905.610352 
	C2973.103271,2908.686279 2974.999268,2911.524170 2976.097900,2914.083740 
	C2978.976318,2914.714111 2980.907471,2915.500977 2982.840820,2915.506348 
	C3019.496582,2915.605225 3056.153076,2915.670410 3092.808350,2915.533691 
	C3095.925293,2915.522217 3099.036621,2914.033936 3102.691406,2913.092529 
	C3103.266113,2907.909912 3104.304932,2903.366211 3104.189453,2898.852051 
	C3102.657227,2838.910156 3077.315430,2791.170166 3029.701904,2755.154297 
	C3003.751709,2735.525391 2974.293457,2723.083984 2942.704590,2716.315430 
	C2874.064697,2701.607178 2806.069824,2704.502930 2739.859131,2728.444092 
	C2688.755371,2746.923096 2644.921387,2776.577881 2611.046631,2819.761719 
	C2565.208008,2878.196289 2547.139160,2945.147461 2553.220215,3018.341797 
	C2557.106201,3065.117676 2576.897461,3105.253906 2611.431152,3137.870605 
	C2637.276123,3162.280762 2667.652832,3178.508545 2701.534668,3187.617432 
	C2775.087402,3207.391846 2848.363281,3204.499023 2919.755127,3178.430664 
	C2994.408936,3151.171387 3050.479004,3102.425293 3083.511230,3025.322021 
M1401.999878,2828.121338 
	C1415.991333,2828.121094 1429.993286,2828.460693 1443.971313,2828.027344 
	C1458.439453,2827.578857 1473.115601,2830.106689 1487.038940,2826.217041 
	C1491.725708,2813.772217 1501.340942,2756.123779 1503.152832,2729.312988 
	C1503.362305,2726.212891 1502.269653,2723.024902 1501.792603,2719.955078 
	C1492.750732,2715.855957 1483.976929,2717.247314 1475.453613,2717.241943 
	C1342.197876,2717.156982 1208.942139,2717.180664 1075.686401,2717.188965 
	C1070.357056,2717.189209 1064.974487,2716.847656 1059.716797,2717.487549 
	C1056.172363,2717.919189 1052.804199,2719.798584 1048.758789,2721.244141 
	C1050.794556,2726.850098 1052.196655,2731.263184 1053.979370,2735.517090 
	C1059.643921,2749.033691 1065.112305,2762.648926 1071.316040,2775.917725 
	C1075.759033,2785.420410 1076.296387,2794.811279 1074.766479,2805.053223 
	C1068.469727,2847.204590 1062.646729,2889.427002 1056.701904,2931.630615 
	C1046.206055,3006.143555 1035.640869,3080.647217 1025.398193,3155.195068 
	C1023.974731,3165.555176 1021.313538,3175.990234 1022.859924,3186.993408 
	C1036.850586,3192.850586 1050.953003,3189.582764 1064.672852,3190.095947 
	C1079.310425,3190.643799 1093.999634,3190.634766 1108.638184,3190.098877 
	C1122.357666,3189.596924 1136.489136,3192.843506 1150.910889,3186.538330 
	C1152.381714,3178.842285 1154.190918,3171.115479 1155.298340,3163.289551 
	C1161.083740,3122.407715 1166.633789,3081.492432 1172.418701,3040.610596 
	C1173.331421,3034.160889 1173.482788,3027.220459 1180.562012,3021.348877 
	C1187.238281,3021.144287 1195.146606,3020.697266 1203.055176,3020.691650 
	C1277.012085,3020.637451 1350.969116,3020.700439 1424.925903,3020.598145 
	C1432.757446,3020.587158 1440.863281,3021.913330 1449.786133,3017.545166 
	C1456.372070,2987.511963 1459.189697,2956.415039 1463.483154,2925.573242 
	C1463.994873,2921.897461 1462.816406,2917.986572 1462.413086,2914.104736 
	C1453.806152,2910.412842 1445.743408,2911.474121 1437.895508,2911.465088 
	C1365.937378,2911.383301 1293.979370,2911.419434 1222.021240,2911.410889 
	C1216.025146,2911.410156 1209.999634,2911.677002 1204.043823,2911.166260 
	C1200.352295,2910.849609 1196.766846,2909.297607 1192.373535,2908.091309 
	C1192.719849,2901.872070 1192.679321,2896.616699 1193.364990,2891.457520 
	C1195.119385,2878.256348 1197.812134,2865.153320 1199.013428,2851.910156 
	C1201.289917,2826.811523 1205.050415,2828.134521 1226.099976,2828.129150 
	C1283.399902,2828.114258 1340.699951,2828.122559 1401.999878,2828.121338 
M2077.040039,2983.871338 
	C2083.260498,2939.697510 2089.437988,2895.517578 2095.726074,2851.353271 
	C2097.753662,2837.114014 2099.519043,2835.521484 2113.099365,2834.850342 
	C2117.752441,2834.620361 2122.423584,2834.733398 2127.086426,2834.732666 
	C2168.388184,2834.725098 2209.689941,2834.748047 2250.991699,2834.704102 
	C2256.979492,2834.697754 2262.976807,2834.540039 2268.951660,2834.167480 
	C2274.200928,2833.840820 2277.667480,2830.930664 2278.628174,2825.708252 
	C2279.711182,2819.819824 2280.437256,2813.865479 2281.301758,2807.937256 
	C2284.569092,2785.536865 2288.037354,2763.162598 2290.969727,2740.718506 
	C2291.880127,2733.750488 2294.010254,2726.317627 2288.584961,2718.275635 
	C2280.514648,2717.922119 2271.984619,2717.227051 2263.453857,2717.223145 
	C2119.563965,2717.156250 1975.674194,2717.174805 1831.784302,2717.178467 
	C1827.121338,2717.178467 1822.432617,2716.923828 1817.802856,2717.326904 
	C1813.344482,2717.714844 1808.946899,2718.802002 1804.641724,2719.561035 
	C1803.369263,2723.047119 1802.004639,2725.441895 1801.643311,2727.979736 
	C1797.231323,2758.960449 1792.867676,2789.948730 1788.796753,2820.975098 
	C1788.320190,2824.607910 1789.669800,2828.480225 1790.084106,2831.578369 
	C1798.059204,2835.965088 1805.535400,2834.641113 1812.747925,2834.662842 
	C1855.381470,2834.792725 1898.015991,2834.660889 1940.649536,2834.798096 
	C1947.815430,2834.821045 1955.345703,2833.440186 1961.643311,2837.727783 
	C1965.793457,2843.560303 1964.221069,2849.597412 1963.550537,2855.432861 
	C1962.714844,2862.705811 1961.423218,2869.925537 1960.401123,2877.178223 
	C1952.874756,2930.583008 1945.313599,2983.983154 1937.868896,3037.399170 
	C1931.434937,3083.561768 1925.104370,3129.739014 1918.849487,3175.926270 
	C1918.345093,3179.651123 1918.782959,3183.503662 1918.782959,3186.943848 
	C1935.308716,3191.103516 1972.131836,3192.105225 2031.522949,3190.111328 
	C2036.621826,3189.940186 2041.683105,3188.646729 2046.098633,3187.975586 
	C2051.664551,3170.476807 2067.773193,3063.315430 2077.040039,2983.871338 
M1585.116455,2751.033936 
	C1580.862915,2782.042236 1576.647339,2813.055908 1572.347534,2844.057861 
	C1565.119873,2896.170654 1557.908447,2948.285400 1550.561646,3000.381348 
	C1542.284912,3059.071533 1533.819580,3117.734863 1525.620483,3176.435791 
	C1525.110352,3180.087646 1526.204956,3183.963379 1526.598267,3188.226318 
	C1530.719727,3188.951172 1533.932129,3190.005859 1537.144531,3190.006104 
	C1573.117920,3190.010010 1609.091553,3189.894775 1645.064087,3189.645020 
	C1647.586548,3189.627686 1650.099731,3188.295898 1652.236328,3187.684326 
	C1657.216919,3180.911377 1657.104126,3173.283691 1658.123779,3166.198730 
	C1665.522949,3114.783691 1672.541992,3063.313721 1679.742432,3011.869873 
	C1687.219727,2958.448730 1694.753540,2905.035400 1702.286255,2851.621826 
	C1707.773071,2812.716064 1713.350586,2773.822998 1718.743042,2734.904053 
	C1719.451538,2729.789795 1720.916870,2724.321777 1715.671143,2718.690430 
	C1711.526001,2718.265137 1706.331665,2717.295166 1701.132690,2717.270508 
	C1670.483765,2717.124268 1639.833862,2717.195801 1609.184204,2717.202637 
	C1607.185913,2717.203125 1605.181763,2717.189941 1603.190186,2717.325684 
	C1592.544678,2718.051025 1590.410156,2719.803223 1588.512939,2729.841309 
	C1587.399902,2735.730225 1586.585571,2741.675293 1585.116455,2751.033936 
M3966.549072,3387.240967 
	C3945.700684,3355.558594 3897.167969,3334.690674 3846.960693,3348.679688 
	C3805.259521,3360.299561 3775.282471,3397.028076 3772.265625,3440.124023 
	C3769.032715,3486.310059 3793.009277,3527.441650 3834.653320,3544.037354 
	C3868.556396,3557.547607 3902.152588,3558.065430 3933.353271,3535.457275 
	C3934.151367,3534.878906 3935.734619,3535.384033 3937.768066,3535.384033 
	C3938.774170,3539.584473 3939.792480,3543.835938 3940.948730,3548.663574 
	C3954.522461,3548.952637 3967.511963,3550.598389 3980.164307,3547.649170 
	C3982.817871,3513.383057 3981.924561,3447.793701 3978.728027,3433.535645 
	C3959.203613,3430.766113 3900.699951,3431.085693 3885.239014,3434.173828 
	C3884.280273,3447.790771 3883.564453,3461.528564 3885.499023,3474.818359 
	C3897.266846,3480.455811 3910.006836,3473.568604 3922.194580,3480.393555 
	C3920.155762,3483.715820 3918.988770,3486.814697 3916.847656,3488.924805 
	C3889.888916,3515.488525 3843.296143,3506.281006 3828.414795,3471.561035 
	C3818.290283,3447.939697 3825.072754,3420.126953 3844.706299,3404.757812 
	C3864.508301,3389.255859 3893.275879,3388.466797 3913.093018,3405.090820 
	C3921.694824,3412.306641 3930.036865,3414.404053 3940.278564,3414.055176 
	C3948.924072,3413.760742 3957.589600,3414.112061 3966.240723,3413.919434 
	C3969.337891,3413.850342 3972.418457,3413.025635 3975.990234,3412.470703 
	C3977.156250,3402.715820 3971.548340,3396.510742 3966.549072,3387.240967 
M3604.664062,3412.780273 
	C3590.315430,3391.235107 3575.966797,3369.689697 3561.687988,3348.249023 
	C3544.644775,3348.168945 3528.788086,3346.813965 3513.088135,3349.125000 
	C3510.690918,3367.704590 3510.864990,3530.175049 3513.420166,3548.574707 
	C3520.930908,3548.777344 3528.750732,3549.204834 3536.566406,3549.138672 
	C3544.367432,3549.072998 3552.324951,3550.080811 3561.272461,3547.553955 
	C3561.272461,3540.306885 3561.270996,3533.747314 3561.272705,3527.187744 
	C3561.279053,3503.190430 3561.217773,3479.192383 3561.368896,3455.196045 
	C3561.391357,3451.616943 3560.123779,3447.175293 3566.325439,3444.612549 
	C3569.145508,3448.494629 3572.290771,3452.528809 3575.123047,3456.771484 
	C3592.882080,3483.371826 3610.529785,3510.047119 3628.326660,3536.622070 
	C3631.230469,3540.958496 3634.696045,3544.918945 3637.773682,3548.887939 
	C3654.518066,3548.763916 3670.443359,3550.772461 3687.536865,3547.218750 
	C3687.536865,3525.002197 3687.536865,3503.069336 3687.536865,3481.136230 
	C3687.536865,3459.138672 3687.796387,3437.137207 3687.463623,3415.144775 
	C3687.134033,3393.366943 3688.945068,3371.495117 3686.245117,3350.030273 
	C3666.668701,3346.888184 3652.299072,3347.144775 3637.396484,3350.944092 
	C3637.162598,3357.164551 3636.729492,3363.706543 3636.703369,3370.250488 
	C3636.605469,3394.913818 3636.675049,3419.578369 3636.579834,3444.241699 
	C3636.567871,3447.354736 3637.222168,3451.071289 3631.379150,3452.600586 
	C3623.217041,3440.419678 3614.756104,3427.792725 3604.664062,3412.780273 
M2194.070312,3402.315186 
	C2201.900879,3410.288574 2209.731201,3418.261963 2218.069580,3426.752441 
	C2230.867676,3426.752441 2244.182373,3426.815674 2257.495605,3426.707031 
	C2260.697998,3426.680664 2264.290283,3427.053955 2266.793457,3421.931152 
	C2259.448486,3392.817139 2241.995850,3370.512695 2214.447266,3356.476807 
	C2189.136719,3343.580566 2162.337402,3340.679932 2134.787842,3347.942383 
	C2097.815918,3357.688477 2072.122559,3380.499023 2061.142334,3417.188477 
	C2049.598877,3455.758789 2056.994629,3491.332520 2085.115723,3520.994141 
	C2109.842529,3547.075439 2141.410400,3555.998535 2176.298828,3552.023926 
	C2219.046631,3547.154297 2249.031250,3524.561279 2264.254883,3483.740723 
	C2265.498291,3480.406006 2268.567383,3476.611084 2264.223877,3471.959473 
	C2248.406494,3471.959473 2231.884766,3471.959473 2215.174072,3471.959473 
	C2211.464844,3476.883545 2208.223877,3481.923096 2204.263428,3486.312988 
	C2188.409180,3503.887207 2162.049561,3509.107422 2140.073730,3499.311279 
	C2119.109131,3489.965820 2106.472168,3468.011963 2108.278320,3444.073486 
	C2110.072754,3420.288330 2125.891602,3401.609131 2148.861328,3395.202148 
	C2163.944580,3390.994873 2177.828857,3393.710205 2194.070312,3402.315186 
M2350.731201,3363.644531 
	C2350.730225,3419.542969 2350.666260,3475.441895 2350.823975,3531.339844 
	C2350.840088,3537.046387 2348.913330,3543.316406 2353.805420,3548.685059 
	C2368.782227,3549.420166 2383.873535,3549.519287 2400.216797,3548.626465 
	C2401.768799,3523.030273 2399.863770,3498.505615 2401.328369,3474.401367 
	C2418.946533,3470.998291 2456.769531,3471.208252 2472.006836,3474.804199 
	C2473.936279,3498.720947 2471.339355,3523.162598 2473.519775,3547.800781 
	C2490.684326,3549.835449 2506.433350,3550.115967 2522.584229,3547.701660 
	C2523.002441,3544.580078 2523.645264,3542.007324 2523.647949,3539.434082 
	C2523.708252,3479.542969 2523.739502,3419.651855 2523.604980,3359.760986 
	C2523.596436,3356.062256 2522.180176,3352.366699 2521.407715,3348.616211 
	C2505.215820,3347.652100 2490.108398,3347.542969 2474.578125,3348.551514 
	C2471.667236,3357.457275 2472.876953,3365.445312 2472.712158,3373.263428 
	C2472.529785,3381.910400 2472.786865,3390.566406 2472.635498,3399.214844 
	C2472.499268,3407.009766 2473.446289,3414.940918 2471.535889,3422.261475 
	C2448.147949,3425.627197 2414.689941,3425.029785 2400.569824,3420.791504 
	C2400.569824,3397.384766 2400.569824,3373.530029 2400.569824,3349.103271 
	C2383.518799,3347.490723 2367.920410,3346.923828 2351.883301,3349.333496 
	C2351.445068,3353.457764 2351.097900,3356.723633 2350.731201,3363.644531 
M4073.078613,3509.739746 
	C4073.425537,3522.192627 4072.322754,3534.729248 4073.749512,3546.745117 
	C4077.059814,3547.813477 4078.943604,3548.947266 4080.831055,3548.953613 
	C4120.799805,3549.085449 4160.769531,3549.154785 4200.737793,3548.989746 
	C4203.691406,3548.977539 4206.637695,3547.101807 4209.887207,3545.989990 
	C4209.858398,3531.231201 4211.383301,3517.444580 4208.736328,3502.958008 
	C4202.342285,3502.507080 4197.163574,3501.867188 4191.980469,3501.825928 
	C4173.994141,3501.682373 4156.003906,3501.902100 4138.020996,3501.620605 
	C4133.630371,3501.551758 4129.261719,3500.097900 4124.855957,3499.275635 
	C4124.505371,3489.684570 4121.879395,3481.048584 4127.411133,3473.033936 
	C4151.084961,3470.063477 4174.998535,3474.473389 4199.582520,3470.297607 
	C4199.582520,3461.894287 4199.774414,3454.616943 4199.528320,3447.354492 
	C4199.286621,3440.227295 4200.728027,3432.856201 4197.593750,3425.291748 
	C4173.400879,3422.392822 4149.414062,3426.053223 4125.656250,3423.166260 
	C4123.476562,3414.027588 4123.376953,3405.675781 4125.783691,3396.449219 
	C4132.073242,3396.200439 4137.998047,3395.796875 4143.924805,3395.763428 
	C4160.579102,3395.669434 4177.235840,3395.813477 4193.889160,3395.668213 
	C4198.270020,3395.630127 4202.644043,3394.884277 4207.159668,3394.450439 
	C4208.769043,3378.817627 4209.687988,3364.437500 4206.656738,3350.286865 
	C4203.713867,3349.341309 4201.864746,3348.233154 4200.010742,3348.226807 
	C4160.709961,3348.092285 4121.408691,3348.053955 4082.107422,3348.112793 
	C4079.572266,3348.116699 4077.038574,3349.059814 4074.810791,3349.504639 
	C4074.200928,3351.406494 4073.446289,3352.666260 4073.442383,3353.928955 
	C4073.278809,3404.555908 4073.183105,3455.183350 4073.078613,3509.739746 
M2650.378174,3403.268555 
	C2634.284668,3446.937012 2618.166748,3490.596436 2602.136230,3534.288086 
	C2600.623291,3538.411865 2597.218262,3542.429199 2600.983643,3548.108154 
	C2616.836670,3550.192139 2633.253174,3549.361816 2650.377441,3548.392578 
	C2654.345459,3538.468994 2658.225586,3528.765137 2661.858887,3519.678711 
	C2682.292725,3516.349609 2724.172852,3516.802979 2738.806152,3520.509033 
	C2742.066650,3529.255615 2745.505127,3538.479736 2749.160889,3548.287109 
	C2767.302979,3549.104248 2784.805664,3550.948730 2803.446289,3546.943359 
	C2778.849609,3480.131348 2754.768311,3414.719238 2730.843506,3349.731934 
	C2711.561523,3347.010010 2684.975586,3347.289551 2669.862061,3350.413086 
	C2663.841309,3366.737549 2657.643311,3383.541992 2650.378174,3403.268555 
M3284.847656,3493.953125 
	C3284.847656,3502.610107 3284.601074,3511.275879 3284.915039,3519.921387 
	C3285.245850,3529.026611 3283.472168,3538.322998 3286.635986,3548.497803 
	C3328.822266,3550.001221 3370.680176,3549.066650 3412.521973,3549.016602 
	C3414.992188,3549.013428 3417.460693,3547.591797 3420.511475,3546.650879 
	C3422.002930,3531.901123 3423.134277,3517.634521 3419.499512,3502.866943 
	C3391.902832,3499.833984 3364.674805,3503.868652 3336.644043,3500.309570 
	C3335.896484,3491.002197 3335.335693,3482.708008 3337.103271,3473.245117 
	C3342.202637,3472.817627 3346.673096,3472.157471 3351.149170,3472.118408 
	C3367.129639,3471.979004 3383.114014,3472.172363 3399.092773,3471.950928 
	C3402.817383,3471.899414 3406.525879,3470.709961 3410.621094,3469.976318 
	C3411.325684,3454.492432 3412.790283,3440.136475 3409.558105,3424.861572 
	C3396.834473,3423.762695 3384.921387,3424.480469 3373.052734,3424.194092 
	C3361.250977,3423.909180 3349.341309,3425.144043 3337.009033,3423.177979 
	C3335.661133,3413.632568 3335.076660,3405.418213 3337.716797,3395.883301 
	C3364.967773,3395.883301 3391.433838,3395.883301 3418.447266,3395.883301 
	C3420.686279,3379.563721 3421.885498,3364.728760 3417.993896,3349.485596 
	C3402.660400,3346.361816 3388.025146,3348.299316 3373.517334,3347.955322 
	C3358.875488,3347.607910 3344.210449,3347.568359 3329.571533,3347.967529 
	C3315.135498,3348.360596 3300.527832,3346.121338 3284.847656,3349.892822 
	C3284.847656,3396.876221 3284.847656,3443.422363 3284.847656,3493.953125 
M2479.647217,3005.633057 
	C2482.821533,2978.083984 2488.812744,2950.849854 2490.101318,2922.002930 
	C2484.677490,2921.077881 2480.266846,2919.686523 2475.851562,2919.670898 
	C2430.642578,2919.511963 2385.432617,2919.510986 2340.223877,2919.681641 
	C2335.821777,2919.698242 2331.424805,2921.157959 2326.605957,2922.023193 
	C2320.104248,2951.476074 2317.752197,2980.613281 2313.250732,3009.398193 
	C2312.870117,3011.832764 2313.875732,3014.484375 2314.220703,3016.917969 
	C2319.988770,3021.028076 2326.112061,3020.177246 2331.973633,3020.187012 
	C2374.523682,3020.257324 2417.073975,3020.227295 2459.624023,3020.216309 
	C2462.282471,3020.215820 2464.940918,3020.053955 2467.599365,3020.058594 
	C2474.976074,3020.071777 2478.303955,3015.851074 2479.647217,3005.633057 
M2910.526123,3549.251221 
	C2940.442139,3549.099609 2970.357910,3548.951416 3000.273682,3548.773682 
	C3000.889648,3548.770020 3001.575195,3548.542725 3002.098145,3548.213135 
	C3002.642578,3547.869629 3003.029297,3547.275879 3004.805664,3545.388184 
	C3004.805664,3535.612305 3005.041504,3524.396484 3004.670410,3513.200439 
	C3004.549805,3509.562988 3002.842285,3505.978271 3001.849854,3502.330322 
	C2977.089600,3500.498291 2953.240234,3503.586182 2928.051270,3500.133057 
	C2927.837402,3474.660400 2927.966309,3450.188232 2927.944580,3425.720947 
	C2927.922363,3400.516357 2927.939697,3375.311523 2927.939697,3349.562988 
	C2910.349854,3347.258545 2894.209229,3346.665283 2876.847656,3349.876465 
	C2876.847656,3372.569336 2876.847656,3394.457764 2876.847656,3416.346191 
	C2876.847656,3438.290527 2876.616699,3460.238281 2876.913086,3482.178467 
	C2877.205811,3503.875244 2875.593994,3525.650146 2878.168945,3548.552246 
	C2888.292236,3548.799805 2897.505371,3549.025391 2910.526123,3549.251221 
M3081.203857,3353.121338 
	C3081.203857,3417.604980 3081.203857,3482.088379 3081.203857,3547.138672 
	C3085.804443,3547.921143 3089.639893,3549.128662 3093.479004,3549.140381 
	C3129.406494,3549.251709 3165.335205,3549.197510 3201.262451,3549.031982 
	C3203.646729,3549.020996 3206.025146,3547.707764 3208.530762,3546.962891 
	C3208.150879,3531.677734 3211.138428,3517.089355 3205.804932,3501.775146 
	C3197.700928,3501.775146 3189.765137,3501.775146 3181.829590,3501.775146 
	C3173.180176,3501.775146 3164.519531,3502.044922 3155.884277,3501.693848 
	C3148.223877,3501.382568 3140.104492,3503.522461 3131.939697,3498.479248 
	C3131.939697,3481.717773 3131.939697,3465.161377 3131.939697,3448.604736 
	C3131.939697,3431.971191 3132.196533,3415.332275 3131.866943,3398.705322 
	C3131.540771,3382.264404 3133.359863,3365.718262 3130.478027,3348.687500 
	C3114.015869,3348.075928 3098.190674,3346.125244 3081.203857,3353.121338 
M2217.102051,3077.404053 
	C2191.115723,3077.638184 2165.128662,3077.831055 2139.144043,3078.195312 
	C2137.312256,3078.220947 2135.498291,3079.511230 2132.345703,3080.726318 
	C2126.273926,3104.014648 2125.200928,3128.710938 2121.268066,3152.881348 
	C2119.493652,3163.787354 2116.348633,3174.912109 2118.179199,3187.065186 
	C2122.422852,3188.133545 2126.104980,3189.617920 2129.882324,3189.921143 
	C2154.574463,3191.903320 2212.660156,3190.387939 2226.549072,3187.414551 
	C2232.592285,3170.871582 2233.034180,3152.741455 2235.336670,3135.089355 
	C2237.710938,3116.887695 2242.619141,3098.813721 2241.177734,3080.238281 
	C2234.099609,3076.582520 2227.342285,3077.689209 2217.102051,3077.404053 
M1856.321777,3134.896729 
	C1857.627563,3125.667725 1859.328857,3116.472900 1860.125488,3107.200195 
	C1860.896484,3098.225830 1865.925659,3089.259521 1861.228638,3080.272705 
	C1846.970581,3076.894775 1801.861084,3075.591309 1765.315796,3077.606689 
	C1761.526001,3077.815918 1757.804565,3079.266357 1754.575195,3080.018799 
	C1747.980103,3101.652832 1738.774536,3171.056641 1740.246582,3187.617920 
	C1751.589722,3192.281006 1763.689575,3189.714355 1775.484375,3190.121582 
	C1787.461060,3190.535156 1799.470093,3190.468506 1811.452148,3190.140869 
	C1823.247803,3189.818359 1835.297729,3191.873535 1847.274780,3187.794922 
	C1853.162598,3171.447510 1852.973145,3154.626709 1856.321777,3134.896729 
M1324.343872,3122.106445 
	C1322.905518,3132.621826 1321.077515,3143.102295 1320.136108,3153.661865 
	C1319.152344,3164.694092 1314.379639,3175.553223 1317.776001,3187.349854 
	C1320.525146,3188.227051 1322.970947,3189.677246 1325.423218,3189.687988 
	C1355.942383,3189.823486 1386.463135,3189.839355 1416.981201,3189.590332 
	C1419.975586,3189.565918 1422.953979,3187.585693 1426.395752,3186.349609 
	C1432.057373,3154.415283 1436.293213,3122.916992 1439.944092,3091.341309 
	C1440.366211,3087.689941 1438.973755,3083.829102 1438.340820,3079.507812 
	C1433.041870,3078.744385 1428.539185,3077.606934 1424.019165,3077.533447 
	C1408.757690,3077.285400 1393.490234,3077.405273 1378.224976,3077.404053 
	C1367.605713,3077.403320 1356.980347,3077.212402 1346.368652,3077.506348 
	C1331.860596,3077.908203 1330.465942,3079.272949 1328.430420,3093.001953 
	C1327.165527,3101.532471 1325.939209,3110.068604 1324.343872,3122.106445 
z"/>
<path fill="#4F5730" opacity="1.000000" stroke="none" 
	d="
M3725.916016,3141.375000 
	C3736.458252,3066.406982 3746.659424,2993.170654 3756.892090,2919.938232 
	C3762.331055,2881.011963 3767.509521,2842.044434 3773.514404,2803.205322 
	C3775.026123,2793.427734 3773.747559,2784.929688 3769.775635,2776.160400 
	C3762.902832,2760.987305 3756.498535,2745.600098 3750.034424,2730.245361 
	C3748.801270,2727.315186 3748.199951,2724.118652 3746.859131,2719.501953 
	C3752.294922,2718.609863 3756.599854,2717.320801 3760.913818,2717.290527 
	C3788.239502,2717.099365 3815.567383,2717.184082 3842.894531,2717.182617 
	C3882.885498,2717.180420 3922.876221,2717.181641 3962.867188,2717.185303 
	C3966.199707,2717.185547 3969.536377,2717.110840 3972.863770,2717.250000 
	C3985.935547,2717.796631 3987.493652,2718.730713 3991.009033,2731.257324 
	C4001.991211,2770.393311 4012.746094,2809.593506 4023.584229,2848.769775 
	C4041.174072,2912.351318 4058.725098,2975.943359 4076.416748,3039.496582 
	C4077.760254,3044.322266 4080.087891,3048.874268 4081.979736,3053.606445 
	C4090.014160,3051.281982 4091.597412,3044.977783 4094.376709,3039.998291 
	C4116.138184,3001.009277 4137.704102,2961.910889 4159.351074,2922.857666 
	C4194.244629,2859.906494 4229.383301,2797.089355 4263.852051,2733.906494 
	C4270.349609,2721.996338 4277.989258,2716.319336 4292.055664,2716.902588 
	C4316.674316,2717.923096 4341.366211,2717.182861 4366.027344,2717.182373 
	C4394.687500,2717.181885 4423.347168,2717.120117 4452.007324,2717.230957 
	C4458.513672,2717.256348 4465.018066,2717.882324 4472.779785,2718.299316 
	C4472.779785,2723.515869 4473.216797,2727.363281 4472.713379,2731.083496 
	C4466.550781,2776.635254 4460.302734,2822.175293 4453.972656,2867.703613 
	C4446.541504,2921.148926 4439.003418,2974.579102 4431.520996,3028.016602 
	C4424.684570,3076.837402 4417.910645,3125.666992 4410.946777,3174.469482 
	C4410.310059,3178.934814 4408.487793,3183.230957 4407.114258,3187.955566 
	C4403.264648,3188.727051 4400.080078,3189.915039 4396.893555,3189.919922 
	C4362.908203,3189.970459 4328.922852,3189.879639 4294.938477,3189.654297 
	C4292.421387,3189.637695 4289.913086,3188.282227 4286.091797,3187.167236 
	C4286.091797,3183.243408 4285.633789,3179.359131 4286.158691,3175.612549 
	C4298.450684,3087.869873 4310.848633,3000.141602 4323.226562,2912.410889 
	C4325.832031,2893.943115 4328.502930,2875.484131 4330.964844,2856.997314 
	C4331.359375,2854.036133 4330.809570,2850.949219 4330.689941,2847.758545 
	C4323.510254,2848.404053 4322.715332,2853.832764 4320.554688,2857.589111 
	C4288.985352,2912.467773 4257.548340,2967.422852 4226.104492,3022.373535 
	C4198.301270,3070.961914 4170.533203,3119.570068 4142.736816,3168.162598 
	C4141.082520,3171.054688 4139.001465,3173.742920 4137.661621,3176.766846 
	C4133.357910,3186.481445 4126.151367,3190.390381 4115.491699,3190.281738 
	C4081.503418,3189.934814 4047.509033,3190.168945 4013.517090,3190.135742 
	C4010.858398,3190.133301 4008.186035,3189.917969 4005.544922,3189.595947 
	C4000.413818,3188.969971 3997.041016,3186.129150 3995.514893,3181.161621 
	C3994.145752,3176.705322 3992.755371,3172.255127 3991.434082,3167.784424 
	C3961.406982,3066.175781 3931.400391,2964.561035 3901.328613,2862.965576 
	C3899.885010,2858.087402 3897.880127,2853.375244 3894.809814,2844.942383 
	C3892.731934,2850.632568 3891.574951,2852.676758 3891.256836,2854.843750 
	C3887.289307,2881.864746 3883.417480,2908.900146 3879.572266,2935.938965 
	C3872.162354,2988.040527 3864.742432,3040.140381 3857.414062,3092.253418 
	C3853.981689,3116.661865 3850.829102,3141.109863 3847.382324,3165.516113 
	C3846.370361,3172.679932 3844.783203,3179.761963 3843.367920,3187.377441 
	C3839.390869,3188.382812 3836.284180,3189.837402 3833.170898,3189.852295 
	C3799.183838,3190.014404 3765.195557,3189.985596 3731.208008,3189.880615 
	C3728.640869,3189.872803 3726.077148,3188.886719 3722.732178,3188.193848 
	C3717.933838,3172.630615 3725.554199,3158.035889 3725.916016,3141.375000 
z"/>
<path fill="#4F5730" opacity="1.000000" stroke="none" 
	d="
M4662.662109,2854.575684 
	C4656.095703,2900.145508 4649.810547,2944.332764 4643.626953,2988.533936 
	C4635.227539,3048.570801 4626.945801,3108.623779 4618.485840,3168.652100 
	C4617.659180,3174.517334 4615.938965,3180.256836 4614.447266,3186.880859 
	C4610.518555,3187.951904 4606.816895,3189.814941 4603.103027,3189.839600 
	C4569.782227,3190.060791 4536.458984,3189.992676 4503.136719,3189.884033 
	C4500.562988,3189.875488 4497.992188,3188.916748 4495.939941,3188.503906 
	C4490.536621,3182.826172 4492.418945,3176.638672 4493.185059,3170.953857 
	C4497.187500,3141.242920 4501.504883,3111.574219 4505.705566,3081.889893 
	C4513.173340,3029.121826 4520.669922,2976.357666 4528.087402,2923.582520 
	C4534.021484,2881.361816 4539.580078,2839.085449 4545.939941,2796.929688 
	C4547.402832,2787.236084 4546.603516,2778.664795 4542.622070,2769.809814 
	C4535.544922,2754.070312 4529.088867,2738.051514 4521.773438,2720.729736 
	C4526.614746,2719.308594 4530.128906,2717.421143 4533.665527,2717.377686 
	C4556.990723,2717.091064 4580.320801,2717.189453 4603.648926,2717.185059 
	C4647.639648,2717.176270 4691.629883,2717.120605 4735.620605,2717.246338 
	C4742.833496,2717.266846 4750.335938,2715.864746 4758.860352,2720.955078 
	C4760.976074,2727.720703 4763.763672,2735.844238 4766.061035,2744.104004 
	C4793.204102,2841.687988 4820.259277,2939.296875 4847.400391,3036.881348 
	C4848.957031,3042.476807 4851.059082,3047.920654 4852.872070,3053.332031 
	C4860.777832,3052.337402 4862.092773,3046.404541 4864.541504,3042.075928 
	C4879.965332,3014.814697 4895.126465,2987.404785 4910.322266,2960.014648 
	C4952.029297,2884.838379 4993.710938,2809.647705 5035.399902,2734.461426 
	C5036.046387,2733.295654 5036.799805,2732.162842 5037.259277,2730.924561 
	C5041.387695,2719.807373 5049.737793,2716.973633 5060.957031,2717.044434 
	C5115.609863,2717.387695 5170.266113,2717.167725 5224.920898,2717.236328 
	C5230.830566,2717.243652 5237.008301,2716.457031 5242.369629,2720.722168 
	C5245.845703,2727.616943 5243.992676,2735.000244 5243.028809,2742.118896 
	C5237.574707,2782.388184 5231.833008,2822.618652 5226.166016,2862.858887 
	C5218.734375,2915.631104 5211.241699,2968.395020 5203.847168,3021.172119 
	C5196.822266,3071.312744 5189.935547,3121.472168 5182.852051,3171.604004 
	C5182.119629,3176.786621 5180.453613,3181.837158 5178.942871,3188.098389 
	C5158.929688,3192.146729 5138.995605,3190.034180 5119.268555,3190.045654 
	C5099.414062,3190.057129 5079.425293,3191.966797 5058.606934,3188.391357 
	C5058.111816,3184.213379 5056.855957,3180.361328 5057.348633,3176.748047 
	C5064.003418,3127.903320 5070.835449,3079.082764 5077.757324,3030.275391 
	C5086.176270,2970.916016 5094.738770,2911.576904 5103.146484,2852.216064 
	C5103.465820,2849.961670 5102.822266,2847.571045 5102.329102,2841.677734 
	C5097.939941,2848.322998 5095.268066,2851.923096 5093.053711,2855.785889 
	C5036.374023,2954.653076 4979.746094,3053.549805 4923.095703,3152.433105 
	C4917.464355,3162.263428 4911.719238,3172.028564 4906.082520,3181.856201 
	C4903.186035,3186.906006 4898.880859,3189.795166 4893.100586,3189.774658 
	C4853.804199,3189.634766 4814.507324,3189.389160 4775.211426,3189.093262 
	C4773.978027,3189.083984 4772.751953,3188.156738 4771.213379,3187.531494 
	C4765.896484,3182.246826 4764.886230,3174.768066 4762.834961,3167.836426 
	C4744.495605,3105.854492 4726.270996,3043.838623 4707.996582,2981.837402 
	C4696.504395,2942.846924 4685.026855,2903.852051 4673.431152,2864.892334 
	C4671.780273,2859.343750 4669.498535,2853.982666 4666.906738,2846.886230 
	C4664.832520,2850.228271 4663.910156,2851.713867 4662.662109,2854.575684 
z"/>
<path fill="#4F5730" opacity="1.000000" stroke="none" 
	d="
M3686.159180,2850.144531 
	C3703.139648,2907.643311 3697.248047,2962.533691 3676.968018,3016.141113 
	C3653.378906,3078.494873 3610.525146,3124.526611 3552.797852,3157.019775 
	C3515.200195,3178.182861 3474.747559,3190.677979 3431.989014,3196.295410 
	C3387.331543,3202.162354 3342.966309,3201.113037 3298.943115,3191.635986 
	C3261.277344,3183.527344 3226.753906,3168.359863 3197.081299,3143.330078 
	C3160.377930,3112.369873 3138.420898,3072.944580 3132.262451,3025.391113 
	C3118.052490,2915.660156 3170.118408,2805.430176 3275.512695,2748.775635 
	C3313.483643,2728.364258 3353.900879,2715.881836 3396.791016,2710.958008 
	C3446.238525,2705.281494 3495.174072,2706.588623 3543.295898,2720.260742 
	C3578.395508,2730.232910 3610.116943,2746.632812 3636.813965,2771.888916 
	C3659.501465,2793.352295 3675.698730,2819.021484 3686.159180,2850.144531 
M3531.287354,3025.025391 
	C3551.492188,2998.768555 3561.324951,2968.623047 3562.236816,2935.945068 
	C3563.385498,2894.770508 3547.458008,2862.138916 3510.297852,2841.709961 
	C3497.947510,2834.920654 3484.614502,2830.836182 3470.816650,2828.115967 
	C3443.010254,2822.634521 3415.151367,2822.710205 3387.524414,2828.592041 
	C3348.614258,2836.875488 3314.810303,2854.134033 3290.680664,2887.081055 
	C3269.274658,2916.309570 3261.546875,2949.428223 3263.591309,2985.099121 
	C3265.471680,3017.902588 3280.180664,3043.502930 3307.887207,3061.379883 
	C3323.216309,3071.271484 3340.102783,3077.015381 3358.046631,3080.058594 
	C3380.535156,3083.872559 3402.873047,3084.129883 3425.572021,3080.916992 
	C3466.652344,3075.102539 3502.118408,3059.219971 3531.287354,3025.025391 
z"/>
<path fill="#4F5730" opacity="1.000000" stroke="none" 
	d="
M3082.943848,3026.762695 
	C3050.479004,3102.425293 2994.408936,3151.171387 2919.755127,3178.430664 
	C2848.363281,3204.499023 2775.087402,3207.391846 2701.534668,3187.617432 
	C2667.652832,3178.508545 2637.276123,3162.280762 2611.431152,3137.870605 
	C2576.897461,3105.253906 2557.106201,3065.117676 2553.220215,3018.341797 
	C2547.139160,2945.147461 2565.208008,2878.196289 2611.046631,2819.761719 
	C2644.921387,2776.577881 2688.755371,2746.923096 2739.859131,2728.444092 
	C2806.069824,2704.502930 2874.064697,2701.607178 2942.704590,2716.315430 
	C2974.293457,2723.083984 3003.751709,2735.525391 3029.701904,2755.154297 
	C3077.315430,2791.170166 3102.657227,2838.910156 3104.189453,2898.852051 
	C3104.304932,2903.366211 3103.266113,2907.909912 3102.691406,2913.092529 
	C3099.036621,2914.033936 3095.925293,2915.522217 3092.808350,2915.533691 
	C3056.153076,2915.670410 3019.496582,2915.605225 2982.840820,2915.506348 
	C2980.907471,2915.500977 2978.976318,2914.714111 2976.097900,2914.083740 
	C2974.999268,2911.524170 2973.103271,2908.686279 2972.562744,2905.610352 
	C2964.478760,2859.600586 2934.725586,2835.379150 2891.357910,2825.446533 
	C2859.641846,2818.181885 2827.783691,2818.868408 2796.358398,2827.461182 
	C2734.520264,2844.370850 2699.432861,2885.878662 2688.574463,2948.039062 
	C2685.857910,2963.589600 2686.077881,2980.006104 2687.354736,2995.830566 
	C2690.288574,3032.187012 2709.955566,3057.595459 2742.405029,3073.393311 
	C2764.542725,3084.171143 2788.511475,3086.832275 2812.540527,3086.512939 
	C2829.074219,3086.293213 2845.855225,3084.152344 2862.018799,3080.577393 
	C2906.346924,3070.773926 2939.217041,3045.798096 2958.210205,3003.825439 
	C2959.304688,3001.406982 2960.621582,2999.087646 2961.879395,2996.746338 
	C2962.190674,2996.166748 2962.676514,2995.680908 2963.735840,2994.299072 
	C2976.483398,2989.521973 2990.570068,2992.585205 3004.344238,2992.098877 
	C3018.989990,2991.581543 3033.678467,2991.635254 3048.328857,2992.083252 
	C3062.149658,2992.505615 3076.210205,2989.847656 3089.986328,2994.321045 
	C3093.055176,3006.065918 3086.136719,3015.255859 3082.943848,3026.762695 
z"/>
<path fill="#4F5730" opacity="1.000000" stroke="none" 
	d="
M1399.999878,2828.121582 
	C1340.699951,2828.122559 1283.399902,2828.114258 1226.099976,2828.129150 
	C1205.050415,2828.134521 1201.289917,2826.811523 1199.013428,2851.910156 
	C1197.812134,2865.153320 1195.119385,2878.256348 1193.364990,2891.457520 
	C1192.679321,2896.616699 1192.719849,2901.872070 1192.373535,2908.091309 
	C1196.766846,2909.297607 1200.352295,2910.849609 1204.043823,2911.166260 
	C1209.999634,2911.677002 1216.025146,2911.410156 1222.021240,2911.410889 
	C1293.979370,2911.419434 1365.937378,2911.383301 1437.895508,2911.465088 
	C1445.743408,2911.474121 1453.806152,2910.412842 1462.413086,2914.104736 
	C1462.816406,2917.986572 1463.994873,2921.897461 1463.483154,2925.573242 
	C1459.189697,2956.415039 1456.372070,2987.511963 1449.786133,3017.545166 
	C1440.863281,3021.913330 1432.757446,3020.587158 1424.925903,3020.598145 
	C1350.969116,3020.700439 1277.012085,3020.637451 1203.055176,3020.691650 
	C1195.146606,3020.697266 1187.238281,3021.144287 1180.562012,3021.348877 
	C1173.482788,3027.220459 1173.331421,3034.160889 1172.418701,3040.610596 
	C1166.633789,3081.492432 1161.083740,3122.407715 1155.298340,3163.289551 
	C1154.190918,3171.115479 1152.381714,3178.842285 1150.910889,3186.538330 
	C1136.489136,3192.843506 1122.357666,3189.596924 1108.638184,3190.098877 
	C1093.999634,3190.634766 1079.310425,3190.643799 1064.672852,3190.095947 
	C1050.953003,3189.582764 1036.850586,3192.850586 1022.859924,3186.993408 
	C1021.313538,3175.990234 1023.974731,3165.555176 1025.398193,3155.195068 
	C1035.640869,3080.647217 1046.206055,3006.143555 1056.701904,2931.630615 
	C1062.646729,2889.427002 1068.469727,2847.204590 1074.766479,2805.053223 
	C1076.296387,2794.811279 1075.759033,2785.420410 1071.316040,2775.917725 
	C1065.112305,2762.648926 1059.643921,2749.033691 1053.979370,2735.517090 
	C1052.196655,2731.263184 1050.794556,2726.850098 1048.758789,2721.244141 
	C1052.804199,2719.798584 1056.172363,2717.919189 1059.716797,2717.487549 
	C1064.974487,2716.847656 1070.357056,2717.189209 1075.686401,2717.188965 
	C1208.942139,2717.180664 1342.197876,2717.156982 1475.453613,2717.241943 
	C1483.976929,2717.247314 1492.750732,2715.855957 1501.792603,2719.955078 
	C1502.269653,2723.024902 1503.362305,2726.212891 1503.152832,2729.312988 
	C1501.340942,2756.123779 1491.725708,2813.772217 1487.038940,2826.217041 
	C1473.115601,2830.106689 1458.439453,2827.578857 1443.971313,2828.027344 
	C1429.993286,2828.460693 1415.991333,2828.121094 1399.999878,2828.121582 
z"/>
<path fill="#4F5730" opacity="1.000000" stroke="none" 
	d="
M2076.766113,2985.622559 
	C2067.773193,3063.315430 2051.664551,3170.476807 2046.098633,3187.975586 
	C2041.683105,3188.646729 2036.621826,3189.940186 2031.522949,3190.111328 
	C1972.131836,3192.105225 1935.308716,3191.103516 1918.782959,3186.943848 
	C1918.782959,3183.503662 1918.345093,3179.651123 1918.849487,3175.926270 
	C1925.104370,3129.739014 1931.434937,3083.561768 1937.868896,3037.399170 
	C1945.313599,2983.983154 1952.874756,2930.583008 1960.401123,2877.178223 
	C1961.423218,2869.925537 1962.714844,2862.705811 1963.550537,2855.432861 
	C1964.221069,2849.597412 1965.793457,2843.560303 1961.643311,2837.727783 
	C1955.345703,2833.440186 1947.815430,2834.821045 1940.649536,2834.798096 
	C1898.015991,2834.660889 1855.381470,2834.792725 1812.747925,2834.662842 
	C1805.535400,2834.641113 1798.059204,2835.965088 1790.084106,2831.578369 
	C1789.669800,2828.480225 1788.320190,2824.607910 1788.796753,2820.975098 
	C1792.867676,2789.948730 1797.231323,2758.960449 1801.643311,2727.979736 
	C1802.004639,2725.441895 1803.369263,2723.047119 1804.641724,2719.561035 
	C1808.946899,2718.802002 1813.344482,2717.714844 1817.802856,2717.326904 
	C1822.432617,2716.923828 1827.121338,2717.178467 1831.784302,2717.178467 
	C1975.674194,2717.174805 2119.563965,2717.156250 2263.453857,2717.223145 
	C2271.984619,2717.227051 2280.514648,2717.922119 2288.584961,2718.275635 
	C2294.010254,2726.317627 2291.880127,2733.750488 2290.969727,2740.718506 
	C2288.037354,2763.162598 2284.569092,2785.536865 2281.301758,2807.937256 
	C2280.437256,2813.865479 2279.711182,2819.819824 2278.628174,2825.708252 
	C2277.667480,2830.930664 2274.200928,2833.840820 2268.951660,2834.167480 
	C2262.976807,2834.540039 2256.979492,2834.697754 2250.991699,2834.704102 
	C2209.689941,2834.748047 2168.388184,2834.725098 2127.086426,2834.732666 
	C2122.423584,2834.733398 2117.752441,2834.620361 2113.099365,2834.850342 
	C2099.519043,2835.521484 2097.753662,2837.114014 2095.726074,2851.353271 
	C2089.437988,2895.517578 2083.260498,2939.697510 2076.766113,2985.622559 
z"/>
<path fill="#4F5730" opacity="1.000000" stroke="none" 
	d="
M1585.376709,2749.314453 
	C1586.585571,2741.675293 1587.399902,2735.730225 1588.512939,2729.841309 
	C1590.410156,2719.803223 1592.544678,2718.051025 1603.190186,2717.325684 
	C1605.181763,2717.189941 1607.185913,2717.203125 1609.184204,2717.202637 
	C1639.833862,2717.195801 1670.483765,2717.124268 1701.132690,2717.270508 
	C1706.331665,2717.295166 1711.526001,2718.265137 1715.671143,2718.690430 
	C1720.916870,2724.321777 1719.451538,2729.789795 1718.743042,2734.904053 
	C1713.350586,2773.822998 1707.773071,2812.716064 1702.286255,2851.621826 
	C1694.753540,2905.035400 1687.219727,2958.448730 1679.742432,3011.869873 
	C1672.541992,3063.313721 1665.522949,3114.783691 1658.123779,3166.198730 
	C1657.104126,3173.283691 1657.216919,3180.911377 1652.236328,3187.684326 
	C1650.099731,3188.295898 1647.586548,3189.627686 1645.064087,3189.645020 
	C1609.091553,3189.894775 1573.117920,3190.010010 1537.144531,3190.006104 
	C1533.932129,3190.005859 1530.719727,3188.951172 1526.598267,3188.226318 
	C1526.204956,3183.963379 1525.110352,3180.087646 1525.620483,3176.435791 
	C1533.819580,3117.734863 1542.284912,3059.071533 1550.561646,3000.381348 
	C1557.908447,2948.285400 1565.119873,2896.170654 1572.347534,2844.057861 
	C1576.647339,2813.055908 1580.862915,2782.042236 1585.376709,2749.314453 
z"/>
<path fill="#BCAB8E" opacity="1.000000" stroke="none" 
	d="
M3967.307129,3388.418945 
	C3971.548340,3396.510742 3977.156250,3402.715820 3975.990234,3412.470703 
	C3972.418457,3413.025635 3969.337891,3413.850342 3966.240723,3413.919434 
	C3957.589600,3414.112061 3948.924072,3413.760742 3940.278564,3414.055176 
	C3930.036865,3414.404053 3921.694824,3412.306641 3913.093018,3405.090820 
	C3893.275879,3388.466797 3864.508301,3389.255859 3844.706299,3404.757812 
	C3825.072754,3420.126953 3818.290283,3447.939697 3828.414795,3471.561035 
	C3843.296143,3506.281006 3889.888916,3515.488525 3916.847656,3488.924805 
	C3918.988770,3486.814697 3920.155762,3483.715820 3922.194580,3480.393555 
	C3910.006836,3473.568604 3897.266846,3480.455811 3885.499023,3474.818359 
	C3883.564453,3461.528564 3884.280273,3447.790771 3885.239014,3434.173828 
	C3900.699951,3431.085693 3959.203613,3430.766113 3978.728027,3433.535645 
	C3981.924561,3447.793701 3982.817871,3513.383057 3980.164307,3547.649170 
	C3967.511963,3550.598389 3954.522461,3548.952637 3940.948730,3548.663574 
	C3939.792480,3543.835938 3938.774170,3539.584473 3937.768066,3535.384033 
	C3935.734619,3535.384033 3934.151367,3534.878906 3933.353271,3535.457275 
	C3902.152588,3558.065430 3868.556396,3557.547607 3834.653320,3544.037354 
	C3793.009277,3527.441650 3769.032715,3486.310059 3772.265625,3440.124023 
	C3775.282471,3397.028076 3805.259521,3360.299561 3846.960693,3348.679688 
	C3897.167969,3334.690674 3945.700684,3355.558594 3967.307129,3388.418945 
z"/>
<path fill="#BCAB8E" opacity="1.000000" stroke="none" 
	d="
M3605.479492,3413.973145 
	C3614.756104,3427.792725 3623.217041,3440.419678 3631.379150,3452.600586 
	C3637.222168,3451.071289 3636.567871,3447.354736 3636.579834,3444.241699 
	C3636.675049,3419.578369 3636.605469,3394.913818 3636.703369,3370.250488 
	C3636.729492,3363.706543 3637.162598,3357.164551 3637.396484,3350.944092 
	C3652.299072,3347.144775 3666.668701,3346.888184 3686.245117,3350.030273 
	C3688.945068,3371.495117 3687.134033,3393.366943 3687.463623,3415.144775 
	C3687.796387,3437.137207 3687.536865,3459.138672 3687.536865,3481.136230 
	C3687.536865,3503.069336 3687.536865,3525.002197 3687.536865,3547.218750 
	C3670.443359,3550.772461 3654.518066,3548.763916 3637.773682,3548.887939 
	C3634.696045,3544.918945 3631.230469,3540.958496 3628.326660,3536.622070 
	C3610.529785,3510.047119 3592.882080,3483.371826 3575.123047,3456.771484 
	C3572.290771,3452.528809 3569.145508,3448.494629 3566.325439,3444.612549 
	C3560.123779,3447.175293 3561.391357,3451.616943 3561.368896,3455.196045 
	C3561.217773,3479.192383 3561.279053,3503.190430 3561.272705,3527.187744 
	C3561.270996,3533.747314 3561.272461,3540.306885 3561.272461,3547.553955 
	C3552.324951,3550.080811 3544.367432,3549.072998 3536.566406,3549.138672 
	C3528.750732,3549.204834 3520.930908,3548.777344 3513.420166,3548.574707 
	C3510.864990,3530.175049 3510.690918,3367.704590 3513.088135,3349.125000 
	C3528.788086,3346.813965 3544.644775,3348.168945 3561.687988,3348.249023 
	C3575.966797,3369.689697 3590.315430,3391.235107 3605.479492,3413.973145 
z"/>
<path fill="#BAAA8D" opacity="1.000000" stroke="none" 
	d="
M2192.706299,3401.454102 
	C2177.828857,3393.710205 2163.944580,3390.994873 2148.861328,3395.202148 
	C2125.891602,3401.609131 2110.072754,3420.288330 2108.278320,3444.073486 
	C2106.472168,3468.011963 2119.109131,3489.965820 2140.073730,3499.311279 
	C2162.049561,3509.107422 2188.409180,3503.887207 2204.263428,3486.312988 
	C2208.223877,3481.923096 2211.464844,3476.883545 2215.174072,3471.959473 
	C2231.884766,3471.959473 2248.406494,3471.959473 2264.223877,3471.959473 
	C2268.567383,3476.611084 2265.498291,3480.406006 2264.254883,3483.740723 
	C2249.031250,3524.561279 2219.046631,3547.154297 2176.298828,3552.023926 
	C2141.410400,3555.998535 2109.842529,3547.075439 2085.115723,3520.994141 
	C2056.994629,3491.332520 2049.598877,3455.758789 2061.142334,3417.188477 
	C2072.122559,3380.499023 2097.815918,3357.688477 2134.787842,3347.942383 
	C2162.337402,3340.679932 2189.136719,3343.580566 2214.447266,3356.476807 
	C2241.995850,3370.512695 2259.448486,3392.817139 2266.793457,3421.931152 
	C2264.290283,3427.053955 2260.697998,3426.680664 2257.495605,3426.707031 
	C2244.182373,3426.815674 2230.867676,3426.752441 2218.069580,3426.752441 
	C2209.731201,3418.261963 2201.900879,3410.288574 2192.706299,3401.454102 
z"/>
<path fill="#BCAB8E" opacity="1.000000" stroke="none" 
	d="
M2350.741211,3361.816895 
	C2351.097900,3356.723633 2351.445068,3353.457764 2351.883301,3349.333496 
	C2367.920410,3346.923828 2383.518799,3347.490723 2400.569824,3349.103271 
	C2400.569824,3373.530029 2400.569824,3397.384766 2400.569824,3420.791504 
	C2414.689941,3425.029785 2448.147949,3425.627197 2471.535889,3422.261475 
	C2473.446289,3414.940918 2472.499268,3407.009766 2472.635498,3399.214844 
	C2472.786865,3390.566406 2472.529785,3381.910400 2472.712158,3373.263428 
	C2472.876953,3365.445312 2471.667236,3357.457275 2474.578125,3348.551514 
	C2490.108398,3347.542969 2505.215820,3347.652100 2521.407715,3348.616211 
	C2522.180176,3352.366699 2523.596436,3356.062256 2523.604980,3359.760986 
	C2523.739502,3419.651855 2523.708252,3479.542969 2523.647949,3539.434082 
	C2523.645264,3542.007324 2523.002441,3544.580078 2522.584229,3547.701660 
	C2506.433350,3550.115967 2490.684326,3549.835449 2473.519775,3547.800781 
	C2471.339355,3523.162598 2473.936279,3498.720947 2472.006836,3474.804199 
	C2456.769531,3471.208252 2418.946533,3470.998291 2401.328369,3474.401367 
	C2399.863770,3498.505615 2401.768799,3523.030273 2400.216797,3548.626465 
	C2383.873535,3549.519287 2368.782227,3549.420166 2353.805420,3548.685059 
	C2348.913330,3543.316406 2350.840088,3537.046387 2350.823975,3531.339844 
	C2350.666260,3475.441895 2350.730225,3419.542969 2350.741211,3361.816895 
z"/>
<path fill="#B8A98C" opacity="1.000000" stroke="none" 
	d="
M4073.078613,3507.775146 
	C4073.183105,3455.183350 4073.278809,3404.555908 4073.442383,3353.928955 
	C4073.446289,3352.666260 4074.200928,3351.406494 4074.810791,3349.504639 
	C4077.038574,3349.059814 4079.572266,3348.116699 4082.107422,3348.112793 
	C4121.408691,3348.053955 4160.709961,3348.092285 4200.010742,3348.226807 
	C4201.864746,3348.233154 4203.713867,3349.341309 4206.656738,3350.286865 
	C4209.687988,3364.437500 4208.769043,3378.817627 4207.159668,3394.450439 
	C4202.644043,3394.884277 4198.270020,3395.630127 4193.889160,3395.668213 
	C4177.235840,3395.813477 4160.579102,3395.669434 4143.924805,3395.763428 
	C4137.998047,3395.796875 4132.073242,3396.200439 4125.783691,3396.449219 
	C4123.376953,3405.675781 4123.476562,3414.027588 4125.656250,3423.166260 
	C4149.414062,3426.053223 4173.400879,3422.392822 4197.593750,3425.291748 
	C4200.728027,3432.856201 4199.286621,3440.227295 4199.528320,3447.354492 
	C4199.774414,3454.616943 4199.582520,3461.894287 4199.582520,3470.297607 
	C4174.998535,3474.473389 4151.084961,3470.063477 4127.411133,3473.033936 
	C4121.879395,3481.048584 4124.505371,3489.684570 4124.855957,3499.275635 
	C4129.261719,3500.097900 4133.630371,3501.551758 4138.020996,3501.620605 
	C4156.003906,3501.902100 4173.994141,3501.682373 4191.980469,3501.825928 
	C4197.163574,3501.867188 4202.342285,3502.507080 4208.736328,3502.958008 
	C4211.383301,3517.444580 4209.858398,3531.231201 4209.887207,3545.989990 
	C4206.637695,3547.101807 4203.691406,3548.977539 4200.737793,3548.989746 
	C4160.769531,3549.154785 4120.799805,3549.085449 4080.831055,3548.953613 
	C4078.943604,3548.947266 4077.059814,3547.813477 4073.749512,3546.745117 
	C4072.322754,3534.729248 4073.425537,3522.192627 4073.078613,3507.775146 
z"/>
<path fill="#BCAB8E" opacity="1.000000" stroke="none" 
	d="
M2650.911621,3401.807617 
	C2657.643311,3383.541992 2663.841309,3366.737549 2669.862061,3350.413086 
	C2684.975586,3347.289551 2711.561523,3347.010010 2730.843506,3349.731934 
	C2754.768311,3414.719238 2778.849609,3480.131348 2803.446289,3546.943359 
	C2784.805664,3550.948730 2767.302979,3549.104248 2749.160889,3548.287109 
	C2745.505127,3538.479736 2742.066650,3529.255615 2738.806152,3520.509033 
	C2724.172852,3516.802979 2682.292725,3516.349609 2661.858887,3519.678711 
	C2658.225586,3528.765137 2654.345459,3538.468994 2650.377441,3548.392578 
	C2633.253174,3549.361816 2616.836670,3550.192139 2600.983643,3548.108154 
	C2597.218262,3542.429199 2600.623291,3538.411865 2602.136230,3534.288086 
	C2618.166748,3490.596436 2634.284668,3446.937012 2650.911621,3401.807617 
M2717.234131,3471.303223 
	C2722.520752,3468.928711 2720.453369,3464.652100 2719.339355,3461.234619 
	C2714.435059,3446.191406 2709.206787,3431.253418 2704.040771,3416.296387 
	C2703.226318,3413.938477 2702.839600,3410.970459 2699.165527,3411.360352 
	C2688.581299,3433.230225 2681.128418,3457.097900 2680.753174,3471.550537 
	C2691.880859,3471.550537 2703.014648,3471.550537 2717.234131,3471.303223 
z"/>
<path fill="#B8A98C" opacity="1.000000" stroke="none" 
	d="
M3284.847656,3491.960693 
	C3284.847656,3443.422363 3284.847656,3396.876221 3284.847656,3349.892822 
	C3300.527832,3346.121338 3315.135498,3348.360596 3329.571533,3347.967529 
	C3344.210449,3347.568359 3358.875488,3347.607910 3373.517334,3347.955322 
	C3388.025146,3348.299316 3402.660400,3346.361816 3417.993896,3349.485596 
	C3421.885498,3364.728760 3420.686279,3379.563721 3418.447266,3395.883301 
	C3391.433838,3395.883301 3364.967773,3395.883301 3337.716797,3395.883301 
	C3335.076660,3405.418213 3335.661133,3413.632568 3337.009033,3423.177979 
	C3349.341309,3425.144043 3361.250977,3423.909180 3373.052734,3424.194092 
	C3384.921387,3424.480469 3396.834473,3423.762695 3409.558105,3424.861572 
	C3412.790283,3440.136475 3411.325684,3454.492432 3410.621094,3469.976318 
	C3406.525879,3470.709961 3402.817383,3471.899414 3399.092773,3471.950928 
	C3383.114014,3472.172363 3367.129639,3471.979004 3351.149170,3472.118408 
	C3346.673096,3472.157471 3342.202637,3472.817627 3337.103271,3473.245117 
	C3335.335693,3482.708008 3335.896484,3491.002197 3336.644043,3500.309570 
	C3364.674805,3503.868652 3391.902832,3499.833984 3419.499512,3502.866943 
	C3423.134277,3517.634521 3422.002930,3531.901123 3420.511475,3546.650879 
	C3417.460693,3547.591797 3414.992188,3549.013428 3412.521973,3549.016602 
	C3370.680176,3549.066650 3328.822266,3550.001221 3286.635986,3548.497803 
	C3283.472168,3538.322998 3285.245850,3529.026611 3284.915039,3519.921387 
	C3284.601074,3511.275879 3284.847656,3502.610107 3284.847656,3491.960693 
z"/>
<path fill="#4F5730" opacity="1.000000" stroke="none" 
	d="
M2479.433350,3007.346680 
	C2478.303955,3015.851074 2474.976074,3020.071777 2467.599365,3020.058594 
	C2464.940918,3020.053955 2462.282471,3020.215820 2459.624023,3020.216309 
	C2417.073975,3020.227295 2374.523682,3020.257324 2331.973633,3020.187012 
	C2326.112061,3020.177246 2319.988770,3021.028076 2314.220703,3016.917969 
	C2313.875732,3014.484375 2312.870117,3011.832764 2313.250732,3009.398193 
	C2317.752197,2980.613281 2320.104248,2951.476074 2326.605957,2922.023193 
	C2331.424805,2921.157959 2335.821777,2919.698242 2340.223877,2919.681641 
	C2385.432617,2919.510986 2430.642578,2919.511963 2475.851562,2919.670898 
	C2480.266846,2919.686523 2484.677490,2921.077881 2490.101318,2922.002930 
	C2488.812744,2950.849854 2482.821533,2978.083984 2479.433350,3007.346680 
z"/>
<path fill="#B8A98C" opacity="1.000000" stroke="none" 
	d="
M2908.622314,3549.250977 
	C2897.505371,3549.025391 2888.292236,3548.799805 2878.168945,3548.552246 
	C2875.593994,3525.650146 2877.205811,3503.875244 2876.913086,3482.178467 
	C2876.616699,3460.238281 2876.847656,3438.290527 2876.847656,3416.346191 
	C2876.847656,3394.457764 2876.847656,3372.569336 2876.847656,3349.876465 
	C2894.209229,3346.665283 2910.349854,3347.258545 2927.939697,3349.562988 
	C2927.939697,3375.311523 2927.922363,3400.516357 2927.944580,3425.720947 
	C2927.966309,3450.188232 2927.837402,3474.660400 2928.051270,3500.133057 
	C2953.240234,3503.586182 2977.089600,3500.498291 3001.849854,3502.330322 
	C3002.842285,3505.978271 3004.549805,3509.562988 3004.670410,3513.200439 
	C3005.041504,3524.396484 3004.805664,3535.612305 3004.805664,3545.388184 
	C3003.029297,3547.275879 3002.642578,3547.869629 3002.098145,3548.213135 
	C3001.575195,3548.542725 3000.889648,3548.770020 3000.273682,3548.773682 
	C2970.357910,3548.951416 2940.442139,3549.099609 2908.622314,3549.250977 
z"/>
<path fill="#B8A98C" opacity="1.000000" stroke="none" 
	d="
M3081.813232,3351.500977 
	C3098.190674,3346.125244 3114.015869,3348.075928 3130.478027,3348.687500 
	C3133.359863,3365.718262 3131.540771,3382.264404 3131.866943,3398.705322 
	C3132.196533,3415.332275 3131.939697,3431.971191 3131.939697,3448.604736 
	C3131.939697,3465.161377 3131.939697,3481.717773 3131.939697,3498.479248 
	C3140.104492,3503.522461 3148.223877,3501.382568 3155.884277,3501.693848 
	C3164.519531,3502.044922 3173.180176,3501.775146 3181.829590,3501.775146 
	C3189.765137,3501.775146 3197.700928,3501.775146 3205.804932,3501.775146 
	C3211.138428,3517.089355 3208.150879,3531.677734 3208.530762,3546.962891 
	C3206.025146,3547.707764 3203.646729,3549.020996 3201.262451,3549.031982 
	C3165.335205,3549.197510 3129.406494,3549.251709 3093.479004,3549.140381 
	C3089.639893,3549.128662 3085.804443,3547.921143 3081.203857,3547.138672 
	C3081.203857,3482.088379 3081.203857,3417.604980 3081.813232,3351.500977 
z"/>
<path fill="#4F5730" opacity="1.000000" stroke="none" 
	d="
M2218.941650,3077.407227 
	C2227.342285,3077.689209 2234.099609,3076.582520 2241.177734,3080.238281 
	C2242.619141,3098.813721 2237.710938,3116.887695 2235.336670,3135.089355 
	C2233.034180,3152.741455 2232.592285,3170.871582 2226.549072,3187.414551 
	C2212.660156,3190.387939 2154.574463,3191.903320 2129.882324,3189.921143 
	C2126.104980,3189.617920 2122.422852,3188.133545 2118.179199,3187.065186 
	C2116.348633,3174.912109 2119.493652,3163.787354 2121.268066,3152.881348 
	C2125.200928,3128.710938 2126.273926,3104.014648 2132.345703,3080.726318 
	C2135.498291,3079.511230 2137.312256,3078.220947 2139.144043,3078.195312 
	C2165.128662,3077.831055 2191.115723,3077.638184 2218.941650,3077.407227 
z"/>
<path fill="#4F5730" opacity="1.000000" stroke="none" 
	d="
M1856.134521,3136.652344 
	C1852.973145,3154.626709 1853.162598,3171.447510 1847.274780,3187.794922 
	C1835.297729,3191.873535 1823.247803,3189.818359 1811.452148,3190.140869 
	C1799.470093,3190.468506 1787.461060,3190.535156 1775.484375,3190.121582 
	C1763.689575,3189.714355 1751.589722,3192.281006 1740.246582,3187.617920 
	C1738.774536,3171.056641 1747.980103,3101.652832 1754.575195,3080.018799 
	C1757.804565,3079.266357 1761.526001,3077.815918 1765.315796,3077.606689 
	C1801.861084,3075.591309 1846.970581,3076.894775 1861.228638,3080.272705 
	C1865.925659,3089.259521 1860.896484,3098.225830 1860.125488,3107.200195 
	C1859.328857,3116.472900 1857.627563,3125.667725 1856.134521,3136.652344 
z"/>
<path fill="#4F5730" opacity="1.000000" stroke="none" 
	d="
M1324.519775,3120.354248 
	C1325.939209,3110.068604 1327.165527,3101.532471 1328.430420,3093.001953 
	C1330.465942,3079.272949 1331.860596,3077.908203 1346.368652,3077.506348 
	C1356.980347,3077.212402 1367.605713,3077.403320 1378.224976,3077.404053 
	C1393.490234,3077.405273 1408.757690,3077.285400 1424.019165,3077.533447 
	C1428.539185,3077.606934 1433.041870,3078.744385 1438.340820,3079.507812 
	C1438.973755,3083.829102 1440.366211,3087.689941 1439.944092,3091.341309 
	C1436.293213,3122.916992 1432.057373,3154.415283 1426.395752,3186.349609 
	C1422.953979,3187.585693 1419.975586,3189.565918 1416.981201,3189.590332 
	C1386.463135,3189.839355 1355.942383,3189.823486 1325.423218,3189.687988 
	C1322.970947,3189.677246 1320.525146,3188.227051 1317.776001,3187.349854 
	C1314.379639,3175.553223 1319.152344,3164.694092 1320.136108,3153.661865 
	C1321.077515,3143.102295 1322.905518,3132.621826 1324.519775,3120.354248 
z"/>
<path fill="#010100" opacity="1.000000" stroke="none" 
	d="
M3530.408447,3026.162598 
	C3502.118408,3059.219971 3466.652344,3075.102539 3425.572021,3080.916992 
	C3402.873047,3084.129883 3380.535156,3083.872559 3358.046631,3080.058594 
	C3340.102783,3077.015381 3323.216309,3071.271484 3307.887207,3061.379883 
	C3280.180664,3043.502930 3265.471680,3017.902588 3263.591309,2985.099121 
	C3261.546875,2949.428223 3269.274658,2916.309570 3290.680664,2887.081055 
	C3314.810303,2854.134033 3348.614258,2836.875488 3387.524414,2828.592041 
	C3415.151367,2822.710205 3443.010254,2822.634521 3470.816650,2828.115967 
	C3484.614502,2830.836182 3497.947510,2834.920654 3510.297852,2841.709961 
	C3547.458008,2862.138916 3563.385498,2894.770508 3562.236816,2935.945068 
	C3561.324951,2968.623047 3551.492188,2998.768555 3530.408447,3026.162598 
z"/>
<path fill="#010100" opacity="1.000000" stroke="none" 
	d="
M2715.691406,3471.426758 
	C2703.014648,3471.550537 2691.880859,3471.550537 2680.753174,3471.550537 
	C2681.128418,3457.097900 2688.581299,3433.230225 2699.165527,3411.360352 
	C2702.839600,3410.970459 2703.226318,3413.938477 2704.040771,3416.296387 
	C2709.206787,3431.253418 2714.435059,3446.191406 2719.339355,3461.234619 
	C2720.453369,3464.652100 2722.520752,3468.928711 2715.691406,3471.426758 
z"/>
</svg>