<?xml version="1.0" encoding="utf-8"?>
<!-- Generator: Adobe Illustrator 28.3.0, SVG Export Plug-In . SVG Version: 6.00 Build 0)  -->
<svg version="1.1" id="Layer_1" xmlns="http://www.w3.org/2000/svg" xmlns:xlink="http://www.w3.org/1999/xlink" x="0px" y="0px"
	 viewBox="0 0 3000 3000" style="enable-background:new 0 0 3000 3000;" xml:space="preserve">
<style type="text/css">
	.st0{fill:none;}
	.st1{fill:#020202;}
</style>
<g>
	<path class="st0" d="M1725.7,1045.5c-95.2,152.9-190.3,305.6-285.1,458.2c-4.3,6.8,1.9,16.4,3.4,21.7
		c52.5,170.5,148.7,307.6,288.7,411l-2.3-889.5C1730.3,1044.3,1727,1043.3,1725.7,1045.5z"/>
	<path class="st1" d="M2429.1,1837l-42.9-40c-2.3-2.1-6-1.4-7.3,1.5c-94.8,199.8-296.9,276.3-487.1,220c0,0,0,0,0,0
		c-1.7-0.7-110.2-43.8-157.9-81.1c-0.1-0.1-0.2-0.1-0.2-0.2c-0.2-0.2-0.5-0.4-0.7-0.6c-0.1-0.1-0.2-0.2-0.3-0.3
		c-140-103.4-236.2-240.4-288.7-411c-1.5-5.3-7.7-14.9-3.4-21.7c94.9-152.6,189.9-305.3,285.1-458.2c1.4-2.2,4.6-1.2,4.6,1.4
		l2.3,889.5c0,0,0,0,0.1-0.1c0,0,0.1-0.1,0.1-0.2c0,0,0,0,0,0c0.9-1.3,5.1-7.3,12.2-15c0-0.1,0.1-0.1,0.1-0.2
		c21.7-22.7,71.2-59.2,146.5-25.9l-2.2-819.8c0-45.2,6.2-110,37-142.9c2.3-2.5,1.8-3.7-1.5-3.7l-147.4,0.3c-2.8,0-5.4,1.4-6.8,3.7
		l-338.8,544.6c-0.5,0.9-2,0.8-2.3-0.3c-31-116.3-33.9-231.8-8.7-346.3c39-177.9,160.3-341.2,352.2-363.6
		c174.5-20.4,332,71.5,448,194.9c1.6,1.7,4.3,1.9,6.1,0.5l109.1-85.6c2.9-2.3,2.9-6.7-0.1-8.9c-174.7-128.7-390.5-176.4-599-116.3
		c-419.6,120.7-594.3,575.7-430.4,930.4l-53.6,84.1c-1.5,2.4-4.9,2.4-6.4,0L730,935.2c-1.5-2.5-4.3-4-7.2-4l-150.4-0.8
		c-3.4,0-4.2,1.4-2.4,4.2c27.8,42.9,34,88.9,34.1,139.4c0.5,360.7,0.5,721.4,0.2,1082c-0.1,40.3-11.2,78.5-33.3,114.6
		c-1.7,2.7-0.9,4.1,2.3,4.1h85.4c3.3,0,3.8-1.2,1.6-3.6c-31.8-35-34.2-108.2-34.3-155.2c-0.6-347.8-1-695.5-1-1043
		c0-2,2.6-2.8,3.7-1.1L850.1,1428l72,116.9l244.3,391.5c1.2,1.9,3.9,1.9,5.1,0c36.6-59.5,106.8-169.4,146.1-232.2
		c41.7,81.9,101.9,157.8,182,222.1c70.6,56.7,148.9,96.9,230.4,121.1c0.3,47.2-10.7,186.9-33.1,221c-1.7,2.6-1,3.9,2.2,3.9h227
		c2.8,0,3.4-1.2,1.8-3.4c-0.6-0.8-1.4-1.5-2.2-2.2c-4.6-3.4-6.9-5.2-7-5.3c-17.3-22.4-22.9-129.7-26.5-186.9
		c197,8.4,395.7-70,537.4-229.3C2431.6,1842.8,2431.5,1839.2,2429.1,1837z"/>
</g>
</svg>
