<?xml version="1.0" encoding="utf-8"?>
<!-- Generator: Adobe Illustrator 28.3.0, SVG Export Plug-In . SVG Version: 6.00 Build 0)  -->
<svg version="1.1" id="Layer_1" xmlns="http://www.w3.org/2000/svg" xmlns:xlink="http://www.w3.org/1999/xlink" x="0px" y="0px"
	 viewBox="0 0 3000 3000" style="enable-background:new 0 0 3000 3000;" xml:space="preserve">
<style type="text/css">
	.st0{fill:none;}
	.st1{fill:#020202;}
</style>
<g>
	<g>
		<path d="M781.6,2242.9c0,0-9.5-0.7-35-0.7c-25.5,0-35.7,0.7-35.7,0.7l3.4-5.8c6.5-12.2,8.5-15.3,8.5-117.3v-95.2
			c-0.3,1.7-3.4,19-7.5,28.6l-66,155l-65.3-154.4c-3.7-8.8-7.5-25.8-7.8-28.6v97.9c0,98.9,1.4,100.3,8.5,113.9l3.1,5.8
			c0,0-10.2-0.7-29.6-0.7c-20.7,0-29.6,0.7-29.6,0.7l3.1-5.8c6.1-12.2,8.5-15.3,8.5-117.3c0-98.9-1.4-100.3-8.5-113.9l-3.1-5.8
			c0,0,15.6,0.7,43.2,0.7c27.2,0,38.1-1,38.1-1l39.8,94.9c5.1,12.2,6.1,18,6.5,19.7c0-1,1-6.1,6.8-19.4l40.1-94.9
			c0,0,10.2,0.7,37.1,0.7c26.9,0,41.5-0.7,41.5-0.7l-3.1,5.8c-6.5,12.2-8.5,15.3-8.5,117.3c0,98.9,1.4,100.3,8.5,113.9L781.6,2242.9
			z"/>
		<path d="M976.4,2242.2c-29.9,0-42.2,0.7-42.2,0.7c4.4-3.1,11.2-8.8,11.2-21.4c0-11.9-4.8-31.6-11.6-56.8l-3.4-12.6h-73.8
			c-5.8,25.2-9.9,49-9.9,66c0,16.3,4.8,21.8,9.2,24.8c0,0-12.2-0.7-35.4-0.7c-21.8,0-32.6,0.7-32.6,0.7c5.1-4.1,8.5-8.5,12.9-19
			c8.5-20.7,28.9-140.1,75.1-223.7c0,0,8.8,0.7,31.3,0.7c21.8,0,32.3-0.7,32.3-0.7l45.2,162.2c13.3,47.6,18.4,68.3,30.9,80.6
			C1015.9,2242.9,1004,2242.2,976.4,2242.2z M903,2040.9c-2.4-9.5-4.1-19.4-4.1-19.4c-9.5,17.3-23.8,58.1-35,100.3h59.5L903,2040.9z
			"/>
		<path d="M1164.8,2230.6l-0.7,11.9h-114.9c-18.4,0-26.2,0.3-26.2,0.3l3.1-5.8c6.8-12.9,8.5-15.3,8.5-117.3
			c0-98.9-1.4-100.3-8.5-113.9l-3.1-5.8c0,0,10.2,0.7,37.1,0.7c26.5,0,36.4-0.7,36.4-0.7l-3.4,5.8c-7.5,12.9-9.2,18.4-9.2,103.7
			v103.4h24.5c42.2,0,47.6-9.9,60.2-28.2C1168.5,2184.7,1166.8,2198,1164.8,2230.6z"/>
		<path d="M1256.3,2242.9c0,0-10.9-0.7-36-0.7c-25.5,0-36.4,0.7-36.4,0.7l3.1-5.8c6.8-12.9,8.5-15.3,8.5-117.3
			c0-98.9-1.4-100.3-8.5-113.9l-3.1-5.8c0,0,10.2,0.7,36,0.7c26.5,0,36.4-0.7,36.4-0.7l-3.1,5.8c-6.8,12.9-8.5,15.3-8.5,117.3
			c0,98.9,1.4,100.3,8.5,113.9L1256.3,2242.9z"/>
		<path d="M1465,2244.9c-96.6,0-121-61.5-121-120c0-84,45.6-126.8,123.4-126.8c44.2,0,61.9,9.9,61.9,9.9s-0.7,7.5-0.7,25.8
			c0,16.3,0.7,27.2,0.7,27.2c-14.6-21.1-26.9-33.3-58.5-33.3c-41.1,0-74.1,29.6-74.1,95.5c0,54.7,19.4,91.8,72.8,91.8
			c32,0,45.2-12.9,59.8-34c0,0-0.7,10.9-0.7,29.6c0,16.7,0.7,24.5,0.7,24.5S1506.8,2244.9,1465,2244.9z"/>
		<path d="M1700.3,2228.9l-0.3,9.9c0,0-15.3,4.4-58.1,4.4c-41.1,0-57.8-3.7-71.1-16c-15.3-13.6-16.7-30.9-16.7-62.6v-82.3
			c0-31.6,1.7-51,17-64.9c13.6-11.9,30.3-17.3,72.1-17.3c38.8,0,56.1,2.7,56.1,2.7s-0.3,6.5-0.3,21.4c0,16,0.7,23.5,0.7,24.1
			c-0.3-0.3-2.4-3.4-11.2-9.2c-6.5-4.1-20.7-9.5-39.4-9.5c-14.3,0-31.6,1-39.4,13.9c-4.8,7.5-6.1,15-6.1,39.4v23.5h36.7
			c16,0,29.2-1.7,37.4-6.5c8.8-5.1,11.6-8.2,12.2-8.8c0,0.3-1,9.9-1,30.3c0,19.4,1,29.2,1,29.9c-0.3-0.3-2.7-3.4-12.2-9.2
			c-8.2-4.8-21.4-6.5-37.4-6.5h-36.7v25.5c0,24.1,1,31.6,5.8,39.1c7.8,12.9,26.5,12.9,39.4,12.9c31.6,0,42.8-11.9,55.4-30.3
			C1704,2183,1702,2200.4,1700.3,2228.9z"/>
		<path d="M1940,2005.9c-6.1,11.9-8.5,15.3-8.5,117.3v120c0,0-8.5-1-26.5-1c-19.7,0-33.3,1-33.3,1l-87.4-174.1
			c-5.8-11.6-8.8-23.8-9.2-24.8v78.9c0,98.9,1.4,100.3,8.5,113.9l3.1,5.8c0,0-9.2-0.7-29.6-0.7c-21.1,0-29.6,0.7-29.6,0.7l3.1-5.8
			c6.1-12.2,8.5-15.3,8.5-117.3c0-98.9-1.4-100.3-8.5-113.9l-3.1-5.8c0,0,10.9,0.7,37.7,0.7c22.8,0,34-0.7,34-0.7l86.7,173.1
			c7.5,14.6,9.5,25.5,9.5,25.5v-78.9c0-98.9-1.4-100.3-8.5-113.9l-3.1-5.8c0,0,9.2,0.7,29.6,0.7c21.1,0,29.6-0.7,29.6-0.7
			L1940,2005.9z"/>
		<path d="M2139.2,2046.7c-0.3-0.3-2.4-3.4-11.9-9.2c-8.2-4.8-21.1-8.5-37.1-8.5h-20.1v94.2c0,98.9,1.4,100.3,8.5,113.9l3.1,5.8
			c0,0-10.5-0.7-36-0.7c-25.5,0-36.4,0.7-36.4,0.7l3.1-5.8c6.8-12.9,8.5-15.3,8.5-117.3V2029h-19.7c-16,0-28.9,3.7-37.1,8.5
			c-8.8,5.4-11.9,8.5-12.2,9.2c0-0.3,1-8.5,1-24.8c0-15-0.3-21.4-0.3-21.4h186.3c0,0-0.3,6.5-0.3,21.4
			C2138.6,2038.2,2139.2,2046,2139.2,2046.7z"/>
		<path d="M2301.8,2228.9l-0.3,9.9c0,0-15.3,4.4-58.1,4.4c-41.1,0-57.8-3.7-71.1-16c-15.3-13.6-16.7-30.9-16.7-62.6v-82.3
			c0-31.6,1.7-51,17-64.9c13.6-11.9,30.3-17.3,72.1-17.3c38.8,0,56.1,2.7,56.1,2.7s-0.3,6.5-0.3,21.4c0,16,0.7,23.5,0.7,24.1
			c-0.3-0.3-2.4-3.4-11.2-9.2c-6.5-4.1-20.7-9.5-39.4-9.5c-14.3,0-31.6,1-39.4,13.9c-4.8,7.5-6.1,15-6.1,39.4v23.5h36.7
			c16,0,29.2-1.7,37.4-6.5c8.8-5.1,11.6-8.2,12.2-8.8c0,0.3-1,9.9-1,30.3c0,19.4,1,29.2,1,29.9c-0.3-0.3-2.7-3.4-12.2-9.2
			c-8.2-4.8-21.4-6.5-37.4-6.5h-36.7v25.5c0,24.1,1,31.6,5.8,39.1c7.8,12.9,26.5,12.9,39.4,12.9c31.6,0,42.8-11.9,55.4-30.3
			C2305.5,2183,2303.5,2200.4,2301.8,2228.9z"/>
		<path d="M2518,2242.9c0,0-11.9-0.7-33-0.7c-19.4,0-31.3,0.7-31.3,0.7s3.4-2.7,3.4-10.2c0-44.5-25.8-95.2-57.5-108.5
			c21.8-2.4,53-9.5,53-54.7c0-36.7-21.1-42.8-50-42.8c-8.8,0-14.6,0.7-14.6,0.7v110.8c0,83,1.7,86,8.5,98.9l3.1,5.8
			c0,0-10.5-0.7-35-0.7c-24.5,0-35.4,0.7-35.4,0.7l3.1-5.8c6.5-12.2,8.5-15.3,8.5-117.3c0-98.9-1.4-100.3-8.5-113.9l-3.1-5.8
			c0,0,11.9,0.7,28.6,0.7c10.5,0,33.7-0.7,44.2-0.7c53.4,0,101.7,5.1,101.7,62.9c0,15.3-4.8,53.7-49.3,62.2
			c53.4,20.4,49,103,60.9,114.9L2518,2242.9z"/>
	</g>
	<g>
		<path d="M592.6,2330c-0.8,7.4-4,13.2-9.5,17.3c-5.6,4.1-13.1,6.1-22.4,6.1c-7,0-13-1.2-18.1-3.7c-5.1-2.4-9-6-11.8-10.7
			c-2.8-4.7-4.2-10.3-4.2-16.8c0-6.1,1.4-11.6,4.1-16.3c2.7-4.7,6.6-8.4,11.7-11c5.1-2.6,11.2-3.9,18.4-3.9c8.6,0,15.4,1.7,20.5,5.2
			c5.1,3.5,8.5,8.7,10.3,15.8l-17.4,2c-1.1-3.2-2.6-5.4-4.8-6.8c-2.1-1.4-5-2.1-8.7-2.1c-5,0-9,1.5-11.8,4.5
			c-2.8,3-4.2,7.2-4.2,12.6c0,5.4,1.4,9.6,4.3,12.6c2.8,3,6.9,4.5,12.1,4.5c4,0,7.2-0.8,9.5-2.3c2.3-1.5,3.8-3.9,4.5-7.1H592.6z"/>
		<path d="M647.7,2292.6h17.4v33.4c0,9.2-2.5,16.1-7.5,20.6c-5,4.5-12.6,6.7-22.9,6.7s-17.9-2.2-22.9-6.7c-5-4.5-7.5-11.3-7.5-20.6
			v-33.4h17.4v34.7c0,4.2,1,7.2,3.1,9.1c2.1,1.9,5.4,2.9,9.8,2.9s7.8-1,9.8-2.9c2.1-1.9,3.1-5,3.1-9.1V2292.6z"/>
		<path d="M680.9,2351.9v-59.3h17.4v45h33.9l-1.8,14.3H680.9z"/>
		<path d="M752,2351.9v-45h-22.1v-14.3h61.6v14.3h-22.1v45H752z"/>
		<path d="M844.9,2292.6h17.4v33.4c0,9.2-2.5,16.1-7.5,20.6c-5,4.5-12.6,6.7-22.9,6.7s-17.9-2.2-22.9-6.7c-5-4.5-7.5-11.3-7.5-20.6
			v-33.4H819v34.7c0,4.2,1,7.2,3.1,9.1c2.1,1.9,5.4,2.9,9.8,2.9s7.8-1,9.8-2.9c2.1-1.9,3.1-5,3.1-9.1V2292.6z"/>
		<path d="M920.1,2351.9l-11.9-20.1h-13.6v20.1h-16.4v-59.3h30.3c17.7,0,26.5,6.6,26.5,19.7c0,3.9-0.9,7.2-2.6,9.8
			c-1.7,2.6-4.3,4.7-7.9,6.3l14.5,23.4H920.1z M907.4,2319.2c3.8,0,6.5-0.6,8.2-1.7c1.7-1.1,2.6-2.9,2.6-5.4c0-2.4-0.8-4.2-2.4-5.3
			c-1.6-1.1-4.4-1.6-8.2-1.6h-12.9v13.9H907.4z"/>
		<path d="M949.4,2351.9v-59.3h51.6v13.4h-34.5v9h32.8v13.4h-32.8v10.1h36.5l-1.7,13.4H949.4z"/>
		<path d="M1067.5,2322.2c0,4-1.4,7.2-4.1,9.8c-2.7,2.5-6.2,3.8-10.5,3.8c-4.3,0-7.8-1.3-10.5-3.8c-2.7-2.5-4.1-5.8-4.1-9.8
			c0-4,1.4-7.2,4.1-9.8c2.7-2.5,6.2-3.8,10.5-3.8c4.3,0,7.8,1.3,10.5,3.8C1066.1,2315,1067.5,2318.3,1067.5,2322.2z"/>
		<path d="M1169.5,2330c-0.8,7.4-4,13.2-9.5,17.3c-5.6,4.1-13.1,6.1-22.4,6.1c-7,0-13-1.2-18.1-3.7c-5.1-2.4-9-6-11.8-10.7
			c-2.8-4.7-4.2-10.3-4.2-16.8c0-6.1,1.4-11.6,4.1-16.3c2.7-4.7,6.6-8.4,11.7-11c5.1-2.6,11.2-3.9,18.4-3.9c8.6,0,15.4,1.7,20.5,5.2
			c5.1,3.5,8.5,8.7,10.3,15.8l-17.4,2c-1.1-3.2-2.6-5.4-4.8-6.8c-2.1-1.4-5-2.1-8.7-2.1c-5,0-9,1.5-11.8,4.5
			c-2.8,3-4.2,7.2-4.2,12.6c0,5.4,1.4,9.6,4.3,12.6c2.8,3,6.9,4.5,12.1,4.5c4,0,7.2-0.8,9.5-2.3c2.3-1.5,3.8-3.9,4.5-7.1H1169.5z"/>
		<path d="M1249.8,2322.2c0,6.3-1.4,11.8-4.2,16.5c-2.8,4.7-6.9,8.3-12.2,10.8c-5.3,2.5-11.7,3.8-19.1,3.8c-7.1,0-13.3-1.2-18.6-3.7
			c-5.3-2.4-9.3-6-12.2-10.7c-2.9-4.7-4.3-10.3-4.3-16.8c0-6.3,1.4-11.8,4.2-16.5c2.8-4.7,6.9-8.3,12.2-10.8
			c5.3-2.5,11.7-3.8,19.1-3.8c7.1,0,13.3,1.2,18.6,3.7c5.3,2.4,9.3,6,12.2,10.7C1248.4,2310.1,1249.8,2315.7,1249.8,2322.2z
			 M1231.7,2322.2c0-5.4-1.5-9.6-4.5-12.6s-7.2-4.5-12.7-4.5s-9.7,1.5-12.7,4.5c-3,3-4.5,7.2-4.5,12.6s1.5,9.6,4.5,12.6
			c3,3,7.2,4.5,12.7,4.5s9.7-1.5,12.7-4.5C1230.2,2331.9,1231.7,2327.7,1231.7,2322.2z"/>
		<path d="M1322.1,2351.9v-34.5l-15.4,34.5H1294l-15.4-34.4v34.4h-15.8v-59.3h19.7l18.2,40.3l18.1-40.3h19.3v59.3H1322.1z"/>
		<path d="M1413.9,2351.9v-34.5l-15.4,34.5h-12.8l-15.4-34.4v34.4h-15.8v-59.3h19.7l18.2,40.3l18.1-40.3h19.3v59.3H1413.9z"/>
		<path d="M1489.1,2292.6h17.4v33.4c0,9.2-2.5,16.1-7.5,20.6c-5,4.5-12.6,6.7-22.9,6.7s-17.9-2.2-22.9-6.7c-5-4.5-7.5-11.3-7.5-20.6
			v-33.4h17.4v34.7c0,4.2,1,7.2,3.1,9.1c2.1,1.9,5.4,2.9,9.8,2.9s7.8-1,9.8-2.9c2.1-1.9,3.1-5,3.1-9.1V2292.6z"/>
		<path d="M1569,2351.9l-30-36v36h-16.6v-59.3h15.4l30,36v-36h16.6v59.3H1569z"/>
		<path d="M1601,2351.9v-59.3h17.4v59.3H1601z"/>
		<path d="M1651.2,2351.9v-45h-22.1v-14.3h61.6v14.3h-22.1v45H1651.2z"/>
		<path d="M1721.8,2351.9v-22.7l-24.7-36.6h18.9l14.7,22.8l14.8-22.8h18.3l-24.7,36.6v22.7H1721.8z"/>
		<path d="M1825.7,2322.2c0,4-1.4,7.2-4.1,9.8c-2.7,2.5-6.2,3.8-10.5,3.8c-4.3,0-7.8-1.3-10.5-3.8c-2.7-2.5-4.1-5.8-4.1-9.8
			c0-4,1.4-7.2,4.1-9.8c2.7-2.5,6.2-3.8,10.5-3.8c4.3,0,7.8,1.3,10.5,3.8C1824.3,2315,1825.7,2318.3,1825.7,2322.2z"/>
		<path d="M1927.7,2330c-0.8,7.4-4,13.2-9.5,17.3c-5.6,4.1-13.1,6.1-22.4,6.1c-7,0-13-1.2-18.1-3.7c-5.1-2.4-9-6-11.8-10.7
			c-2.8-4.7-4.2-10.3-4.2-16.8c0-6.1,1.4-11.6,4.1-16.3c2.7-4.7,6.6-8.4,11.7-11c5.1-2.6,11.2-3.9,18.4-3.9c8.6,0,15.4,1.7,20.5,5.2
			c5.1,3.5,8.5,8.7,10.3,15.8l-17.4,2c-1.1-3.2-2.6-5.4-4.8-6.8c-2.1-1.4-5-2.1-8.7-2.1c-5,0-9,1.5-11.8,4.5
			c-2.8,3-4.2,7.2-4.2,12.6c0,5.4,1.4,9.6,4.3,12.6c2.8,3,6.9,4.5,12.1,4.5c4,0,7.2-0.8,9.5-2.3c2.3-1.5,3.8-3.9,4.5-7.1H1927.7z"/>
		<path d="M2008,2322.2c0,6.3-1.4,11.8-4.2,16.5c-2.8,4.7-6.9,8.3-12.2,10.8c-5.3,2.5-11.7,3.8-19.1,3.8c-7.1,0-13.3-1.2-18.6-3.7
			c-5.3-2.4-9.3-6-12.2-10.7c-2.9-4.7-4.3-10.3-4.3-16.8c0-6.3,1.4-11.8,4.2-16.5c2.8-4.7,6.9-8.3,12.2-10.8
			c5.3-2.5,11.7-3.8,19.1-3.8c7.1,0,13.3,1.2,18.6,3.7c5.3,2.4,9.3,6,12.2,10.7C2006.6,2310.1,2008,2315.7,2008,2322.2z
			 M1989.9,2322.2c0-5.4-1.5-9.6-4.5-12.6s-7.2-4.5-12.7-4.5s-9.7,1.5-12.7,4.5c-3,3-4.5,7.2-4.5,12.6s1.5,9.6,4.5,12.6
			c3,3,7.2,4.5,12.7,4.5s9.7-1.5,12.7-4.5C1988.4,2331.9,1989.9,2327.7,1989.9,2322.2z"/>
		<path d="M2067.7,2351.9l-30-36v36h-16.6v-59.3h15.4l30,36v-36h16.6v59.3H2067.7z"/>
		<path d="M2146.3,2351.9l-30-36v36h-16.6v-59.3h15.4l30,36v-36h16.6v59.3H2146.3z"/>
		<path d="M2178.3,2351.9v-59.3h51.6v13.4h-34.5v9h32.8v13.4h-32.8v10.1h36.5l-1.7,13.4H2178.3z"/>
		<path d="M2308.4,2330c-0.8,7.4-4,13.2-9.5,17.3c-5.6,4.1-13.1,6.1-22.4,6.1c-7,0-13-1.2-18.1-3.7c-5.1-2.4-9-6-11.8-10.7
			c-2.8-4.7-4.2-10.3-4.2-16.8c0-6.1,1.4-11.6,4.1-16.3c2.7-4.7,6.6-8.4,11.7-11c5.1-2.6,11.2-3.9,18.4-3.9c8.6,0,15.4,1.7,20.5,5.2
			c5.1,3.5,8.5,8.7,10.3,15.8l-17.4,2c-1.1-3.2-2.6-5.4-4.8-6.8c-2.1-1.4-5-2.1-8.7-2.1c-5,0-9,1.5-11.8,4.5
			c-2.8,3-4.2,7.2-4.2,12.6c0,5.4,1.4,9.6,4.3,12.6c2.8,3,6.9,4.5,12.1,4.5c4,0,7.2-0.8,9.5-2.3c2.3-1.5,3.8-3.9,4.5-7.1H2308.4z"/>
		<path d="M2336.2,2351.9v-45h-22.1v-14.3h61.6v14.3h-22.1v45H2336.2z"/>
		<path d="M2386.4,2351.9v-59.3h51.6v13.4h-34.5v9h32.8v13.4h-32.8v10.1h36.5l-1.7,13.4H2386.4z"/>
		<path d="M2453.2,2351.9v-59.3h27.9c11.8,0,20.8,2.5,26.9,7.5c6.1,5,9.2,12.4,9.2,22.1c0,9.5-3.2,16.8-9.6,21.9
			c-6.4,5.1-15.5,7.7-27.3,7.7H2453.2z M2480.6,2337.9c12.5,0,18.8-5.3,18.8-15.8c0-10.4-6-15.6-18-15.6h-11v31.4H2480.6z"/>
	</g>
	<g>
		<path class="st0" d="M1728.4,940c-73.8,118.5-147.5,236.8-221,355.1c-3.3,5.3,1.5,12.7,2.7,16.8
			c40.7,132.2,115.2,238.3,223.7,318.5l-1.8-689.3C1732,939.1,1729.4,938.4,1728.4,940z"/>
		<path class="st1" d="M2273.6,1553.5l-33.3-31c-1.8-1.6-4.6-1.1-5.6,1.1c-73.5,154.9-230.1,214.1-377.5,170.5c0,0,0,0,0,0
			c-1.3-0.5-85.4-34-122.4-62.8c-0.1,0-0.1-0.1-0.2-0.1c-0.2-0.2-0.4-0.3-0.6-0.4c-0.1-0.1-0.2-0.1-0.2-0.2
			c-108.5-80.1-183.1-186.3-223.7-318.5c-1.2-4.1-6-11.5-2.7-16.8c73.5-118.3,147.2-236.6,221-355.1c1.1-1.7,3.6-0.9,3.6,1.1
			l1.8,689.3c0,0,0,0,0-0.1c0,0,0-0.1,0.1-0.1c0,0,0,0,0,0c0.7-1,3.9-5.6,9.4-11.6c0,0,0.1-0.1,0.1-0.1
			c16.8-17.6,55.2-45.9,113.5-20.1l-1.7-635.3c0-35,4.8-85.3,28.7-110.7c1.8-1.9,1.4-2.9-1.2-2.9l-114.3,0.2c-2.2,0-4.2,1.1-5.3,2.9
			l-262.6,422.1c-0.4,0.7-1.5,0.6-1.8-0.2c-24-90.1-26.2-179.6-6.8-268.4c30.3-137.9,124.2-264.5,273-281.8
			c135.2-15.8,257.3,55.4,347.2,151.1c1.3,1.3,3.3,1.5,4.7,0.3l84.6-66.3c2.2-1.8,2.2-5.2-0.1-6.9
			c-135.4-99.8-302.6-136.7-464.2-90.1c-325.2,93.5-460.5,446.2-333.6,721l-41.5,65.2c-1.1,1.8-3.8,1.8-4.9,0L956.7,854.6
			c-1.2-1.9-3.3-3.1-5.6-3.1l-116.6-0.6c-2.6,0-3.2,1.1-1.8,3.2c21.5,33.3,26.4,68.9,26.5,108c0.4,279.5,0.4,559,0.1,838.5
			c-0.1,31.2-8.7,60.9-25.8,88.8c-1.3,2.1-0.7,3.2,1.8,3.2h66.2c2.5,0,3-0.9,1.3-2.8c-24.6-27.2-26.5-83.9-26.6-120.3
			c-0.5-269.5-0.8-539-0.8-808.3c0-1.5,2-2.2,2.9-0.8l171.5,276.2l55.8,90.6l189.3,303.4c0.9,1.5,3,1.5,3.9,0
			c28.4-46.1,82.7-131.3,113.3-180c32.3,63.5,79,122.3,141.1,172.2c54.7,43.9,115.4,75.1,178.5,93.8c0.2,36.5-8.3,144.8-25.7,171.2
			c-1.3,2-0.8,3,1.7,3h175.9c2.2,0,2.7-0.9,1.4-2.7c-0.5-0.6-1.1-1.2-1.7-1.7c-3.6-2.7-5.3-4-5.4-4.1
			c-13.4-17.3-17.8-100.6-20.6-144.8c152.7,6.5,306.6-54.3,416.4-177.7C2275.5,1558,2275.4,1555.2,2273.6,1553.5z"/>
	</g>
</g>
</svg>
