<?xml version="1.0" encoding="UTF-8"?>
<!DOCTYPE svg PUBLIC "-//W3C//DTD SVG 1.1//EN" "http://www.w3.org/Graphics/SVG/1.1/DTD/svg11.dtd">
<svg xmlns="http://www.w3.org/2000/svg" version="1.1" width="1500px" height="1500px" style="shape-rendering:geometricPrecision; text-rendering:geometricPrecision; image-rendering:optimizeQuality; fill-rule:evenodd; clip-rule:evenodd" xmlns:xlink="http://www.w3.org/1999/xlink">
<g><path style="opacity:0.991" fill="#000000" d="M 509.5,500.5 C 650.833,500.5 792.167,500.5 933.5,500.5C 921.517,617.512 909.351,734.512 897,851.5C 896.801,853.402 895.967,854.902 894.5,856C 879.5,861.667 864.5,867.333 849.5,873C 954.833,873.5 1060.17,873.667 1165.5,873.5C 1161.95,914.178 1158.29,954.844 1154.5,995.5C 1067.5,995.667 980.499,995.5 893.5,995C 814.855,988.023 773.022,945.189 768,866.5C 767.256,850.811 767.589,835.144 769,819.5C 779.203,719.139 789.203,618.806 799,518.5C 785.962,546.742 772.795,574.909 759.5,603C 627.167,603.667 494.833,603.667 362.5,603C 383.582,550.928 421.582,518.594 476.5,506C 487.575,503.731 498.575,501.897 509.5,500.5 Z"/></g>
<g><path style="opacity:0.988" fill="#000000" d="M 343.5,691.5 C 481.167,691.5 618.833,691.5 756.5,691.5C 752.969,725.144 749.636,758.81 746.5,792.5C 622.497,792.556 498.497,792.389 374.5,792C 404.727,799.746 434.727,808.079 464.5,817C 458.107,876.09 451.941,935.257 446,994.5C 401.906,995.497 357.739,995.83 313.5,995.5C 323.631,894.187 333.631,792.854 343.5,691.5 Z"/></g>
</svg>
